<mxfile host="app.diagrams.net" agent="Mozilla/5.0 (Windows NT 10.0; Win64; x64) AppleWebKit/537.36 (KHTML, like Gecko) Chrome/135.0.0.0 Safari/537.36 Edg/135.0.0.0" version="26.2.7">
  <diagram name="Page-1" id="acwCKmZkidqvUQwCOqH5">
    <mxGraphModel dx="1806" dy="524" grid="1" gridSize="10" guides="1" tooltips="1" connect="1" arrows="1" fold="1" page="1" pageScale="1" pageWidth="827" pageHeight="1169" math="0" shadow="0">
      <root>
        <mxCell id="0" />
        <mxCell id="1" parent="0" />
        <mxCell id="R-gMwyTmyChJ_m9MSwHn-16" value="" style="rounded=0;whiteSpace=wrap;html=1;fillColor=#f8cecc;strokeColor=default;" vertex="1" parent="1">
          <mxGeometry x="551.25" y="840" width="314" height="30" as="geometry" />
        </mxCell>
        <mxCell id="R-gMwyTmyChJ_m9MSwHn-15" value="" style="rounded=0;whiteSpace=wrap;html=1;fillColor=#f5f5f5;fontColor=#333333;strokeColor=default;" vertex="1" parent="1">
          <mxGeometry x="-48.62" y="840" width="332.12" height="30" as="geometry" />
        </mxCell>
        <mxCell id="R-gMwyTmyChJ_m9MSwHn-12" value="" style="rounded=0;whiteSpace=wrap;html=1;" vertex="1" parent="1">
          <mxGeometry x="350.88" y="930" width="131" height="110" as="geometry" />
        </mxCell>
        <mxCell id="9EPkMwTMLO34tnoBVW8a-7" value="" style="rounded=0;whiteSpace=wrap;html=1;fillColor=#dae8fc;strokeColor=#6c8ebf;" parent="1" vertex="1">
          <mxGeometry x="272.38" y="6410" width="234.25" height="370" as="geometry" />
        </mxCell>
        <mxCell id="3uFvsSg2rkh7UaSVAgNL-26" value="" style="rounded=0;whiteSpace=wrap;html=1;" parent="1" vertex="1">
          <mxGeometry x="17.879999999999995" y="6420" width="200" height="350" as="geometry" />
        </mxCell>
        <mxCell id="3uFvsSg2rkh7UaSVAgNL-23" value="" style="rounded=0;whiteSpace=wrap;html=1;fillColor=#f8cecc;strokeColor=default;" parent="1" vertex="1">
          <mxGeometry x="557.13" y="6530" width="250.25" height="230" as="geometry" />
        </mxCell>
        <mxCell id="GOm38GStyMNKn4AWp28O-10" value="&lt;div style=&quot;&quot;&gt;&lt;font face=&quot;Verdana&quot; style=&quot;font-size: 15px;&quot;&gt;&lt;br&gt;&lt;/font&gt;&lt;/div&gt;&lt;div style=&quot;&quot;&gt;&lt;font face=&quot;Verdana&quot; style=&quot;font-size: 15px;&quot;&gt;&lt;br&gt;&lt;/font&gt;&lt;/div&gt;&lt;div style=&quot;&quot;&gt;&lt;br&gt;&lt;/div&gt;&lt;div style=&quot;&quot;&gt;&lt;font style=&quot;font-size: 15px;&quot; face=&quot;Verdana&quot;&gt;&lt;span style=&quot;color: light-dark(rgb(59, 59, 59), rgb(186, 186, 186)); white-space: pre; background-color: transparent;&quot;&gt;...&lt;/span&gt;&lt;/font&gt;&lt;/div&gt;&lt;div style=&quot;&quot;&gt;&lt;font face=&quot;Verdana&quot; style=&quot;font-size: 15px;&quot;&gt;add a2, a2, a3;&amp;nbsp;&lt;span style=&quot;text-align: center; text-wrap-mode: nowrap; background-color: transparent; color: light-dark(rgb(0, 0, 0), rgb(255, 255, 255));&quot;&gt;&lt;font style=&quot;&quot;&gt;// value1&amp;nbsp;的值被覆盖&lt;/font&gt;&lt;/span&gt;&lt;span style=&quot;text-align: center; text-wrap-mode: nowrap; background-color: transparent; color: light-dark(rgb(0, 0, 0), rgb(255, 255, 255));&quot;&gt;&amp;nbsp;&lt;/span&gt;&lt;br&gt;&lt;/font&gt;&lt;/div&gt;&lt;div style=&quot;&quot;&gt;&lt;font style=&quot;font-size: 15px;&quot; face=&quot;Verdana&quot;&gt;&lt;font style=&quot;&quot;&gt;mul a2, a2, a2; //&amp;nbsp;计算结果错误!&lt;/font&gt;&lt;br&gt;&lt;/font&gt;&lt;/div&gt;&lt;div style=&quot;&quot;&gt;&lt;font style=&quot;font-size: 15px;&quot; face=&quot;Verdana&quot;&gt;&lt;span style=&quot;color: light-dark(rgb(59, 59, 59), rgb(186, 186, 186)); white-space: pre; background-color: transparent;&quot;&gt;...&lt;/span&gt;&lt;/font&gt;&lt;/div&gt;&lt;div&gt;&lt;span style=&quot;font-size: 14px; color: light-dark(rgb(59, 59, 59), rgb(186, 186, 186)); font-family: Consolas, &amp;quot;Courier New&amp;quot;, monospace; white-space: pre; background-color: transparent;&quot;&gt;&lt;br&gt;&lt;/span&gt;&lt;/div&gt;" style="rounded=0;whiteSpace=wrap;html=1;align=left;verticalAlign=top;spacing=15;" parent="1" vertex="1">
          <mxGeometry x="551.25" y="870" width="314" height="210" as="geometry" />
        </mxCell>
        <mxCell id="GOm38GStyMNKn4AWp28O-6" value="&lt;div style=&quot;font-family: Consolas, &amp;quot;Courier New&amp;quot;, monospace; line-height: 19px; white-space: pre;&quot;&gt;&lt;div style=&quot;&quot;&gt;&lt;span style=&quot;background-color: light-dark(rgb(255, 255, 255), rgb(18, 18, 18)); color: light-dark(rgb(59, 59, 59), rgb(186, 186, 186)); font-size: 14px;&quot;&gt;@&lt;/span&gt;&lt;span style=&quot;background-color: light-dark(rgb(255, 255, 255), rgb(18, 18, 18)); font-size: 14px; color: rgb(38, 127, 153);&quot;&gt;Def&lt;/span&gt;&lt;span style=&quot;background-color: light-dark(rgb(255, 255, 255), rgb(18, 18, 18)); color: light-dark(rgb(59, 59, 59), rgb(186, 186, 186)); font-size: 14px;&quot;&gt; &lt;/span&gt;&lt;span style=&quot;background-color: light-dark(rgb(255, 255, 255), rgb(18, 18, 18)); font-size: 14px; color: rgb(0, 0, 255);&quot;&gt;protected&lt;/span&gt;&lt;span style=&quot;background-color: light-dark(rgb(255, 255, 255), rgb(18, 18, 18)); color: light-dark(rgb(59, 59, 59), rgb(186, 186, 186)); font-size: 14px;&quot;&gt; &lt;/span&gt;&lt;span style=&quot;background-color: light-dark(rgb(255, 255, 255), rgb(18, 18, 18)); font-size: 14px; color: rgb(38, 127, 153);&quot;&gt;AllocatableValue&lt;/span&gt;&lt;span style=&quot;background-color: light-dark(rgb(255, 255, 255), rgb(18, 18, 18)); color: light-dark(rgb(59, 59, 59), rgb(186, 186, 186)); font-size: 14px;&quot;&gt; &lt;/span&gt;&lt;span style=&quot;background-color: light-dark(rgb(255, 255, 255), rgb(18, 18, 18)); font-size: 14px; color: rgb(0, 16, 128);&quot;&gt;result&lt;/span&gt;&lt;span style=&quot;background-color: light-dark(rgb(255, 255, 255), rgb(18, 18, 18)); color: light-dark(rgb(59, 59, 59), rgb(186, 186, 186)); font-size: 14px;&quot;&gt;;&lt;/span&gt;&lt;/div&gt;&lt;div style=&quot;&quot;&gt;&lt;div style=&quot;color: rgb(59, 59, 59); background-color: rgb(255, 255, 255); font-size: 14px; line-height: 19px;&quot;&gt;&lt;div&gt;@&lt;span style=&quot;color: rgb(38, 127, 153);&quot;&gt;Use&lt;/span&gt; &lt;span style=&quot;color: rgb(0, 0, 255);&quot;&gt;protected&lt;/span&gt; &lt;span style=&quot;color: rgb(38, 127, 153);&quot;&gt;AllocatableValue&lt;/span&gt; &lt;span style=&quot;color: rgb(0, 16, 128);&quot;&gt;value1&lt;/span&gt;;&lt;/div&gt;&lt;div&gt;@&lt;span style=&quot;color: rgb(38, 127, 153);&quot;&gt;Alive&lt;/span&gt; &lt;span style=&quot;color: rgb(0, 0, 255);&quot;&gt;protected&lt;/span&gt; &lt;span style=&quot;color: rgb(38, 127, 153);&quot;&gt;AllocatableValue&lt;/span&gt; &lt;span style=&quot;color: rgb(0, 16, 128);&quot;&gt;value2&lt;/span&gt;;&lt;/div&gt;&lt;div&gt;&lt;br&gt;&lt;/div&gt;&lt;div&gt;&lt;span style=&quot;color: rgb(38, 127, 153);&quot;&gt;void&lt;/span&gt; &lt;span style=&quot;color: rgb(121, 94, 38);&quot;&gt;emitCode&lt;/span&gt;(...) {&lt;/div&gt;&lt;div&gt;&amp;nbsp; &amp;nbsp; &amp;nbsp;...&lt;/div&gt;&lt;div&gt;&amp;nbsp; &amp;nbsp; &amp;nbsp;&lt;span style=&quot;color: rgb(0, 16, 128);&quot;&gt;masm&lt;/span&gt;.&lt;span style=&quot;color: rgb(121, 94, 38);&quot;&gt;add&lt;/span&gt;(result, value1, value2);&lt;/div&gt;&lt;div&gt;&amp;nbsp; &amp;nbsp; &amp;nbsp;&lt;span style=&quot;color: rgb(0, 16, 128);&quot;&gt;masm&lt;/span&gt;.&lt;span style=&quot;color: rgb(121, 94, 38);&quot;&gt;mul&lt;/span&gt;(result, result, value1);&lt;/div&gt;&lt;div&gt;&amp;nbsp; &amp;nbsp; &amp;nbsp;...&lt;/div&gt;&lt;div&gt;}&lt;br&gt;&lt;/div&gt;&lt;/div&gt;&lt;/div&gt;&lt;/div&gt;" style="rounded=0;whiteSpace=wrap;html=1;align=left;verticalAlign=top;spacing=7;" parent="1" vertex="1">
          <mxGeometry x="-48.620000000000005" y="870" width="332.12" height="210" as="geometry" />
        </mxCell>
        <mxCell id="b25NzEHvAgJfCk7m8K_a-11" value="" style="swimlane;childLayout=stackLayout;resizeParent=1;resizeParentMax=0;horizontal=1;startSize=0;horizontalStack=0;html=1;" parent="1" vertex="1">
          <mxGeometry x="28" y="40" width="770" height="690" as="geometry" />
        </mxCell>
        <mxCell id="b25NzEHvAgJfCk7m8K_a-12" value="&lt;font&gt;Java字节码到Graal IR节点&lt;/font&gt;" style="swimlane;startSize=30;horizontal=0;html=1;fillColor=#dae8fc;strokeColor=#6c8ebf;" parent="b25NzEHvAgJfCk7m8K_a-11" vertex="1">
          <mxGeometry width="770" height="210" as="geometry" />
        </mxCell>
        <mxCell id="b25NzEHvAgJfCk7m8K_a-32" value="Graal IR 到 LIR Instruction" style="swimlane;startSize=30;horizontal=0;html=1;fillColor=#d5e8d4;strokeColor=#82b366;" parent="b25NzEHvAgJfCk7m8K_a-11" vertex="1">
          <mxGeometry y="210" width="770" height="180" as="geometry" />
        </mxCell>
        <mxCell id="b25NzEHvAgJfCk7m8K_a-13" value="LIR Instruction 到 机器码" style="swimlane;startSize=30;horizontal=0;html=1;fillColor=#ffe6cc;strokeColor=#d79b00;" parent="b25NzEHvAgJfCk7m8K_a-11" vertex="1">
          <mxGeometry y="390" width="770" height="300" as="geometry">
            <mxRectangle y="120" width="600" height="30" as="alternateBounds" />
          </mxGeometry>
        </mxCell>
        <mxCell id="b25NzEHvAgJfCk7m8K_a-33" value="" style="swimlane;childLayout=stackLayout;resizeParent=1;resizeParentMax=0;startSize=0;horizontal=0;horizontalStack=1;" parent="1" vertex="1">
          <mxGeometry x="28" y="20" width="770" height="710" as="geometry" />
        </mxCell>
        <mxCell id="b25NzEHvAgJfCk7m8K_a-34" value="Graal 编译流程" style="swimlane;startSize=20;" parent="b25NzEHvAgJfCk7m8K_a-33" vertex="1">
          <mxGeometry width="251" height="710" as="geometry" />
        </mxCell>
        <mxCell id="b25NzEHvAgJfCk7m8K_a-96" style="edgeStyle=orthogonalEdgeStyle;rounded=0;orthogonalLoop=1;jettySize=auto;html=1;exitX=0.5;exitY=1;exitDx=0;exitDy=0;entryX=0.5;entryY=0;entryDx=0;entryDy=0;" parent="b25NzEHvAgJfCk7m8K_a-34" source="b25NzEHvAgJfCk7m8K_a-37" target="b25NzEHvAgJfCk7m8K_a-42" edge="1">
          <mxGeometry relative="1" as="geometry" />
        </mxCell>
        <mxCell id="b25NzEHvAgJfCk7m8K_a-37" value="Java字节码" style="rounded=1;whiteSpace=wrap;html=1;" parent="b25NzEHvAgJfCk7m8K_a-34" vertex="1">
          <mxGeometry x="58" y="30" width="84" height="30" as="geometry" />
        </mxCell>
        <mxCell id="b25NzEHvAgJfCk7m8K_a-97" style="edgeStyle=orthogonalEdgeStyle;rounded=0;orthogonalLoop=1;jettySize=auto;html=1;exitX=0.5;exitY=1;exitDx=0;exitDy=0;entryX=0.5;entryY=0;entryDx=0;entryDy=0;" parent="b25NzEHvAgJfCk7m8K_a-34" source="b25NzEHvAgJfCk7m8K_a-42" target="b25NzEHvAgJfCk7m8K_a-53" edge="1">
          <mxGeometry relative="1" as="geometry" />
        </mxCell>
        <mxCell id="b25NzEHvAgJfCk7m8K_a-42" value="构建HIR" style="rounded=0;whiteSpace=wrap;html=1;" parent="b25NzEHvAgJfCk7m8K_a-34" vertex="1">
          <mxGeometry x="58" y="80" width="84" height="30" as="geometry" />
        </mxCell>
        <mxCell id="b25NzEHvAgJfCk7m8K_a-99" style="edgeStyle=orthogonalEdgeStyle;rounded=0;orthogonalLoop=1;jettySize=auto;html=1;exitX=0.5;exitY=1;exitDx=0;exitDy=0;entryX=0.5;entryY=0;entryDx=0;entryDy=0;" parent="b25NzEHvAgJfCk7m8K_a-34" source="b25NzEHvAgJfCk7m8K_a-52" target="b25NzEHvAgJfCk7m8K_a-58" edge="1">
          <mxGeometry relative="1" as="geometry" />
        </mxCell>
        <mxCell id="b25NzEHvAgJfCk7m8K_a-52" value="Address Lowering phase" style="rounded=0;whiteSpace=wrap;html=1;" parent="b25NzEHvAgJfCk7m8K_a-34" vertex="1">
          <mxGeometry x="53" y="180" width="94" height="30" as="geometry" />
        </mxCell>
        <mxCell id="b25NzEHvAgJfCk7m8K_a-98" style="edgeStyle=orthogonalEdgeStyle;rounded=0;orthogonalLoop=1;jettySize=auto;html=1;exitX=0.5;exitY=1;exitDx=0;exitDy=0;entryX=0.5;entryY=0;entryDx=0;entryDy=0;" parent="b25NzEHvAgJfCk7m8K_a-34" source="b25NzEHvAgJfCk7m8K_a-53" target="b25NzEHvAgJfCk7m8K_a-52" edge="1">
          <mxGeometry relative="1" as="geometry" />
        </mxCell>
        <mxCell id="b25NzEHvAgJfCk7m8K_a-53" value="其他Phase" style="rounded=0;whiteSpace=wrap;html=1;" parent="b25NzEHvAgJfCk7m8K_a-34" vertex="1">
          <mxGeometry x="58" y="130" width="84" height="30" as="geometry" />
        </mxCell>
        <mxCell id="b25NzEHvAgJfCk7m8K_a-101" style="edgeStyle=orthogonalEdgeStyle;rounded=0;orthogonalLoop=1;jettySize=auto;html=1;exitX=0.5;exitY=1;exitDx=0;exitDy=0;entryX=0.5;entryY=0;entryDx=0;entryDy=0;" parent="b25NzEHvAgJfCk7m8K_a-34" source="b25NzEHvAgJfCk7m8K_a-58" target="b25NzEHvAgJfCk7m8K_a-59" edge="1">
          <mxGeometry relative="1" as="geometry" />
        </mxCell>
        <mxCell id="b25NzEHvAgJfCk7m8K_a-58" value="规则匹配" style="rounded=0;whiteSpace=wrap;html=1;" parent="b25NzEHvAgJfCk7m8K_a-34" vertex="1">
          <mxGeometry x="55.5" y="270" width="89" height="30" as="geometry" />
        </mxCell>
        <mxCell id="b25NzEHvAgJfCk7m8K_a-104" style="edgeStyle=orthogonalEdgeStyle;rounded=0;orthogonalLoop=1;jettySize=auto;html=1;exitX=0.5;exitY=1;exitDx=0;exitDy=0;entryX=0.5;entryY=0;entryDx=0;entryDy=0;" parent="b25NzEHvAgJfCk7m8K_a-34" source="b25NzEHvAgJfCk7m8K_a-59" target="b25NzEHvAgJfCk7m8K_a-60" edge="1">
          <mxGeometry relative="1" as="geometry" />
        </mxCell>
        <mxCell id="b25NzEHvAgJfCk7m8K_a-59" value="生成&lt;br&gt;LIR Instruction" style="rounded=0;whiteSpace=wrap;html=1;" parent="b25NzEHvAgJfCk7m8K_a-34" vertex="1">
          <mxGeometry x="55.5" y="330" width="89" height="30" as="geometry" />
        </mxCell>
        <mxCell id="b25NzEHvAgJfCk7m8K_a-105" style="edgeStyle=orthogonalEdgeStyle;rounded=0;orthogonalLoop=1;jettySize=auto;html=1;exitX=0.5;exitY=1;exitDx=0;exitDy=0;entryX=0.5;entryY=0;entryDx=0;entryDy=0;" parent="b25NzEHvAgJfCk7m8K_a-34" source="b25NzEHvAgJfCk7m8K_a-60" target="b25NzEHvAgJfCk7m8K_a-61" edge="1">
          <mxGeometry relative="1" as="geometry" />
        </mxCell>
        <mxCell id="b25NzEHvAgJfCk7m8K_a-60" value="寄存器分配" style="rounded=0;whiteSpace=wrap;html=1;" parent="b25NzEHvAgJfCk7m8K_a-34" vertex="1">
          <mxGeometry x="55.5" y="430" width="89" height="30" as="geometry" />
        </mxCell>
        <mxCell id="b25NzEHvAgJfCk7m8K_a-106" style="edgeStyle=orthogonalEdgeStyle;rounded=0;orthogonalLoop=1;jettySize=auto;html=1;exitX=0.5;exitY=1;exitDx=0;exitDy=0;entryX=0.5;entryY=0;entryDx=0;entryDy=0;" parent="b25NzEHvAgJfCk7m8K_a-34" source="b25NzEHvAgJfCk7m8K_a-61" target="b25NzEHvAgJfCk7m8K_a-63" edge="1">
          <mxGeometry relative="1" as="geometry" />
        </mxCell>
        <mxCell id="b25NzEHvAgJfCk7m8K_a-61" value="前置固定代码生成" style="rounded=0;whiteSpace=wrap;html=1;" parent="b25NzEHvAgJfCk7m8K_a-34" vertex="1">
          <mxGeometry x="55.5" y="480" width="89" height="30" as="geometry" />
        </mxCell>
        <mxCell id="b25NzEHvAgJfCk7m8K_a-110" style="edgeStyle=orthogonalEdgeStyle;rounded=0;orthogonalLoop=1;jettySize=auto;html=1;exitX=0.5;exitY=1;exitDx=0;exitDy=0;entryX=0.5;entryY=0;entryDx=0;entryDy=0;" parent="b25NzEHvAgJfCk7m8K_a-34" source="b25NzEHvAgJfCk7m8K_a-63" target="b25NzEHvAgJfCk7m8K_a-64" edge="1">
          <mxGeometry relative="1" as="geometry" />
        </mxCell>
        <mxCell id="b25NzEHvAgJfCk7m8K_a-63" value="LIR Instruction&lt;br&gt;代码生成" style="rounded=0;whiteSpace=wrap;html=1;" parent="b25NzEHvAgJfCk7m8K_a-34" vertex="1">
          <mxGeometry x="55.5" y="529.5" width="89" height="30" as="geometry" />
        </mxCell>
        <mxCell id="b25NzEHvAgJfCk7m8K_a-111" style="edgeStyle=orthogonalEdgeStyle;rounded=0;orthogonalLoop=1;jettySize=auto;html=1;exitX=0.5;exitY=1;exitDx=0;exitDy=0;entryX=0.5;entryY=0;entryDx=0;entryDy=0;" parent="b25NzEHvAgJfCk7m8K_a-34" source="b25NzEHvAgJfCk7m8K_a-64" target="b25NzEHvAgJfCk7m8K_a-94" edge="1">
          <mxGeometry relative="1" as="geometry" />
        </mxCell>
        <mxCell id="b25NzEHvAgJfCk7m8K_a-64" value="后置固定代码生成" style="rounded=0;whiteSpace=wrap;html=1;" parent="b25NzEHvAgJfCk7m8K_a-34" vertex="1">
          <mxGeometry x="55.5" y="580" width="89" height="30" as="geometry" />
        </mxCell>
        <mxCell id="b25NzEHvAgJfCk7m8K_a-75" value="&lt;font&gt;指令选择&lt;/font&gt;" style="text;html=1;align=center;verticalAlign=middle;resizable=0;points=[];autosize=1;strokeColor=none;fillColor=none;" parent="b25NzEHvAgJfCk7m8K_a-34" vertex="1">
          <mxGeometry x="156" y="350" width="70" height="30" as="geometry" />
        </mxCell>
        <mxCell id="b25NzEHvAgJfCk7m8K_a-94" value="返回编译结果" style="rounded=0;whiteSpace=wrap;html=1;" parent="b25NzEHvAgJfCk7m8K_a-34" vertex="1">
          <mxGeometry x="55.5" y="640" width="89" height="30" as="geometry" />
        </mxCell>
        <mxCell id="b25NzEHvAgJfCk7m8K_a-100" value="&lt;font&gt;生成 Lowerable节点&lt;/font&gt;" style="text;html=1;align=center;verticalAlign=middle;resizable=0;points=[];autosize=1;strokeColor=none;fillColor=none;" parent="b25NzEHvAgJfCk7m8K_a-34" vertex="1">
          <mxGeometry x="101" y="230" width="130" height="30" as="geometry" />
        </mxCell>
        <mxCell id="b25NzEHvAgJfCk7m8K_a-103" value="&lt;font&gt;获取自定义&lt;br&gt;规则&lt;/font&gt;" style="text;html=1;align=center;verticalAlign=middle;resizable=0;points=[];autosize=1;strokeColor=none;fillColor=none;" parent="b25NzEHvAgJfCk7m8K_a-34" vertex="1">
          <mxGeometry x="156" y="285" width="80" height="40" as="geometry" />
        </mxCell>
        <mxCell id="b25NzEHvAgJfCk7m8K_a-134" value="获取Plungins信息" style="text;html=1;align=center;verticalAlign=middle;resizable=0;points=[];autosize=1;strokeColor=none;fillColor=none;" parent="b25NzEHvAgJfCk7m8K_a-34" vertex="1">
          <mxGeometry x="142" y="60" width="120" height="30" as="geometry" />
        </mxCell>
        <mxCell id="ZIrlAmSXeeNBOR1hbLx5-2" value="调用" style="text;html=1;align=center;verticalAlign=middle;resizable=0;points=[];autosize=1;strokeColor=none;fillColor=none;" parent="b25NzEHvAgJfCk7m8K_a-34" vertex="1">
          <mxGeometry x="156" y="470" width="50" height="30" as="geometry" />
        </mxCell>
        <mxCell id="ZIrlAmSXeeNBOR1hbLx5-3" value="调用" style="text;html=1;align=center;verticalAlign=middle;resizable=0;points=[];autosize=1;strokeColor=none;fillColor=none;" parent="b25NzEHvAgJfCk7m8K_a-34" vertex="1">
          <mxGeometry x="156" y="510" width="50" height="30" as="geometry" />
        </mxCell>
        <mxCell id="ZIrlAmSXeeNBOR1hbLx5-4" value="调用" style="text;html=1;align=center;verticalAlign=middle;resizable=0;points=[];autosize=1;strokeColor=none;fillColor=none;" parent="b25NzEHvAgJfCk7m8K_a-34" vertex="1">
          <mxGeometry x="156" y="565" width="50" height="30" as="geometry" />
        </mxCell>
        <mxCell id="ZIrlAmSXeeNBOR1hbLx5-1" value="调用" style="text;html=1;align=center;verticalAlign=middle;resizable=0;points=[];autosize=1;strokeColor=none;fillColor=none;" parent="b25NzEHvAgJfCk7m8K_a-34" vertex="1">
          <mxGeometry x="156" y="168" width="50" height="30" as="geometry" />
        </mxCell>
        <mxCell id="b25NzEHvAgJfCk7m8K_a-41" value="编译后端框架" style="swimlane;startSize=20;" parent="b25NzEHvAgJfCk7m8K_a-33" vertex="1">
          <mxGeometry x="251" width="149" height="710" as="geometry" />
        </mxCell>
        <mxCell id="b25NzEHvAgJfCk7m8K_a-66" value="&lt;div style=&quot;background-color: rgb(255, 255, 255); line-height: 24px; white-space: pre;&quot;&gt;&lt;font face=&quot;Helvetica&quot;&gt;根据特性注册Graph-&lt;br/&gt;BuilderPlugins&lt;/font&gt;&lt;/div&gt;" style="rounded=0;whiteSpace=wrap;html=1;" parent="b25NzEHvAgJfCk7m8K_a-41" vertex="1">
          <mxGeometry x="13.5" y="70" width="122" height="50" as="geometry" />
        </mxCell>
        <mxCell id="b25NzEHvAgJfCk7m8K_a-68" style="edgeStyle=orthogonalEdgeStyle;rounded=0;orthogonalLoop=1;jettySize=auto;html=1;exitX=0.5;exitY=1;exitDx=0;exitDy=0;entryX=0.5;entryY=0;entryDx=0;entryDy=0;" parent="b25NzEHvAgJfCk7m8K_a-41" source="b25NzEHvAgJfCk7m8K_a-67" target="b25NzEHvAgJfCk7m8K_a-66" edge="1">
          <mxGeometry relative="1" as="geometry" />
        </mxCell>
        <mxCell id="b25NzEHvAgJfCk7m8K_a-67" value="获取CPU特性" style="rounded=0;whiteSpace=wrap;html=1;" parent="b25NzEHvAgJfCk7m8K_a-41" vertex="1">
          <mxGeometry x="32.5" y="26" width="84" height="30" as="geometry" />
        </mxCell>
        <mxCell id="b25NzEHvAgJfCk7m8K_a-70" value="&lt;div style=&quot;background-color: rgb(255, 255, 255); line-height: 24px; white-space: pre;&quot;&gt;继承AddreLower类&lt;br/&gt;并实现lower接口&lt;/div&gt;" style="rounded=0;whiteSpace=wrap;html=1;" parent="b25NzEHvAgJfCk7m8K_a-41" vertex="1">
          <mxGeometry x="13.5" y="170" width="122" height="50" as="geometry" />
        </mxCell>
        <mxCell id="b25NzEHvAgJfCk7m8K_a-72" value="&lt;div style=&quot;background-color: rgb(255, 255, 255); line-height: 24px; white-space: pre;&quot;&gt;定义LoongArch64-&lt;br/&gt;NodeMatchRule&lt;/div&gt;" style="rounded=0;whiteSpace=wrap;html=1;" parent="b25NzEHvAgJfCk7m8K_a-41" vertex="1">
          <mxGeometry x="13.5" y="260" width="122" height="50" as="geometry" />
        </mxCell>
        <mxCell id="b25NzEHvAgJfCk7m8K_a-73" value="&lt;div style=&quot;background-color: rgb(255, 255, 255); line-height: 24px; white-space: pre;&quot;&gt;NodeLIRBuilder&lt;/div&gt;" style="rounded=0;whiteSpace=wrap;html=1;" parent="b25NzEHvAgJfCk7m8K_a-41" vertex="1">
          <mxGeometry x="13.5" y="320" width="122" height="50" as="geometry" />
        </mxCell>
        <mxCell id="b25NzEHvAgJfCk7m8K_a-85" value="emitCodePrefix" style="rounded=0;whiteSpace=wrap;html=1;" parent="b25NzEHvAgJfCk7m8K_a-41" vertex="1">
          <mxGeometry x="32.5" y="460" width="89" height="30" as="geometry" />
        </mxCell>
        <mxCell id="b25NzEHvAgJfCk7m8K_a-109" style="edgeStyle=orthogonalEdgeStyle;rounded=0;orthogonalLoop=1;jettySize=auto;html=1;exitX=0.5;exitY=1;exitDx=0;exitDy=0;entryX=0.5;entryY=0;entryDx=0;entryDy=0;" parent="b25NzEHvAgJfCk7m8K_a-41" source="b25NzEHvAgJfCk7m8K_a-87" target="b25NzEHvAgJfCk7m8K_a-91" edge="1">
          <mxGeometry relative="1" as="geometry" />
        </mxCell>
        <mxCell id="b25NzEHvAgJfCk7m8K_a-87" value="emitCodeBody" style="rounded=0;whiteSpace=wrap;html=1;" parent="b25NzEHvAgJfCk7m8K_a-41" vertex="1">
          <mxGeometry x="32.5" y="510" width="89" height="30" as="geometry" />
        </mxCell>
        <mxCell id="b25NzEHvAgJfCk7m8K_a-88" value="emitCodeSuffix" style="rounded=0;whiteSpace=wrap;html=1;" parent="b25NzEHvAgJfCk7m8K_a-41" vertex="1">
          <mxGeometry x="32.5" y="650" width="89" height="30" as="geometry" />
        </mxCell>
        <mxCell id="b25NzEHvAgJfCk7m8K_a-91" value="是否&lt;br&gt;释放成功" style="rhombus;whiteSpace=wrap;html=1;" parent="b25NzEHvAgJfCk7m8K_a-41" vertex="1">
          <mxGeometry x="32.5" y="560" width="80" height="55" as="geometry" />
        </mxCell>
        <mxCell id="b25NzEHvAgJfCk7m8K_a-116" value="通过反射获取寄存器分配属性" style="text;html=1;align=center;verticalAlign=middle;resizable=0;points=[];autosize=1;strokeColor=none;fillColor=none;" parent="b25NzEHvAgJfCk7m8K_a-41" vertex="1">
          <mxGeometry x="-63.5" y="418" width="180" height="30" as="geometry" />
        </mxCell>
        <mxCell id="b25NzEHvAgJfCk7m8K_a-121" value="否" style="text;html=1;align=center;verticalAlign=middle;resizable=0;points=[];autosize=1;strokeColor=none;fillColor=none;" parent="b25NzEHvAgJfCk7m8K_a-41" vertex="1">
          <mxGeometry x="109" y="560" width="40" height="30" as="geometry" />
        </mxCell>
        <mxCell id="b25NzEHvAgJfCk7m8K_a-118" value="是" style="text;html=1;align=center;verticalAlign=middle;resizable=0;points=[];autosize=1;strokeColor=none;fillColor=none;" parent="b25NzEHvAgJfCk7m8K_a-41" vertex="1">
          <mxGeometry x="-7.5" y="560" width="40" height="30" as="geometry" />
        </mxCell>
        <mxCell id="b25NzEHvAgJfCk7m8K_a-36" value="具体LIR实现" style="swimlane;startSize=20;" parent="b25NzEHvAgJfCk7m8K_a-33" vertex="1">
          <mxGeometry x="400" width="130" height="710" as="geometry" />
        </mxCell>
        <mxCell id="b25NzEHvAgJfCk7m8K_a-76" value="定义值寄存&lt;div&gt;分配属性&lt;/div&gt;" style="rounded=0;whiteSpace=wrap;html=1;" parent="b25NzEHvAgJfCk7m8K_a-36" vertex="1">
          <mxGeometry x="20.5" y="430" width="89" height="30" as="geometry" />
        </mxCell>
        <mxCell id="b25NzEHvAgJfCk7m8K_a-77" value="emitCode" style="rounded=0;whiteSpace=wrap;html=1;" parent="b25NzEHvAgJfCk7m8K_a-36" vertex="1">
          <mxGeometry x="20.5" y="490" width="89" height="30" as="geometry" />
        </mxCell>
        <mxCell id="b25NzEHvAgJfCk7m8K_a-78" value="定义类并继承LIRInstruction" style="rounded=0;whiteSpace=wrap;html=1;" parent="b25NzEHvAgJfCk7m8K_a-36" vertex="1">
          <mxGeometry x="20.5" y="330" width="89" height="30" as="geometry" />
        </mxCell>
        <mxCell id="b25NzEHvAgJfCk7m8K_a-84" value="建立Node与&lt;br&gt;LIRInstruction映射关系" style="text;html=1;align=center;verticalAlign=middle;resizable=0;points=[];autosize=1;strokeColor=none;fillColor=none;" parent="b25NzEHvAgJfCk7m8K_a-36" vertex="1">
          <mxGeometry x="-50" y="360" width="150" height="40" as="geometry" />
        </mxCell>
        <mxCell id="b25NzEHvAgJfCk7m8K_a-122" value="重新编译" style="text;html=1;align=center;verticalAlign=middle;resizable=0;points=[];autosize=1;strokeColor=none;fillColor=none;" parent="b25NzEHvAgJfCk7m8K_a-36" vertex="1">
          <mxGeometry y="535" width="70" height="30" as="geometry" />
        </mxCell>
        <mxCell id="b25NzEHvAgJfCk7m8K_a-132" value="调用" style="text;html=1;align=center;verticalAlign=middle;resizable=0;points=[];autosize=1;strokeColor=none;fillColor=none;" parent="b25NzEHvAgJfCk7m8K_a-36" vertex="1">
          <mxGeometry x="80" y="630" width="50" height="30" as="geometry" />
        </mxCell>
        <mxCell id="b25NzEHvAgJfCk7m8K_a-55" value="汇编模块" style="swimlane;startSize=20;" parent="b25NzEHvAgJfCk7m8K_a-33" vertex="1">
          <mxGeometry x="530" width="120" height="710" as="geometry" />
        </mxCell>
        <mxCell id="b25NzEHvAgJfCk7m8K_a-80" value="宏汇编器" style="rounded=0;whiteSpace=wrap;html=1;" parent="b25NzEHvAgJfCk7m8K_a-55" vertex="1">
          <mxGeometry x="15.5" y="610" width="89" height="30" as="geometry" />
        </mxCell>
        <mxCell id="b25NzEHvAgJfCk7m8K_a-82" style="edgeStyle=orthogonalEdgeStyle;rounded=0;orthogonalLoop=1;jettySize=auto;html=1;exitX=0.5;exitY=0;exitDx=0;exitDy=0;entryX=0.5;entryY=1;entryDx=0;entryDy=0;" parent="b25NzEHvAgJfCk7m8K_a-55" source="b25NzEHvAgJfCk7m8K_a-81" target="b25NzEHvAgJfCk7m8K_a-80" edge="1">
          <mxGeometry relative="1" as="geometry" />
        </mxCell>
        <mxCell id="b25NzEHvAgJfCk7m8K_a-81" value="汇编器" style="rounded=0;whiteSpace=wrap;html=1;" parent="b25NzEHvAgJfCk7m8K_a-55" vertex="1">
          <mxGeometry x="15.5" y="670" width="89" height="30" as="geometry" />
        </mxCell>
        <mxCell id="b25NzEHvAgJfCk7m8K_a-135" value="封装" style="text;html=1;align=center;verticalAlign=middle;resizable=0;points=[];autosize=1;strokeColor=none;fillColor=none;" parent="b25NzEHvAgJfCk7m8K_a-55" vertex="1">
          <mxGeometry x="54.5" y="640" width="50" height="30" as="geometry" />
        </mxCell>
        <mxCell id="b25NzEHvAgJfCk7m8K_a-131" value="调用" style="text;html=1;align=center;verticalAlign=middle;resizable=0;points=[];autosize=1;strokeColor=none;fillColor=none;" parent="b25NzEHvAgJfCk7m8K_a-55" vertex="1">
          <mxGeometry x="15.5" y="580" width="50" height="30" as="geometry" />
        </mxCell>
        <mxCell id="b25NzEHvAgJfCk7m8K_a-89" value="编译数据模块" style="swimlane;startSize=20;" parent="b25NzEHvAgJfCk7m8K_a-33" vertex="1">
          <mxGeometry x="650" width="120" height="710" as="geometry" />
        </mxCell>
        <mxCell id="b25NzEHvAgJfCk7m8K_a-92" value="Record重定位&lt;br&gt;信息" style="rounded=0;whiteSpace=wrap;html=1;" parent="b25NzEHvAgJfCk7m8K_a-89" vertex="1">
          <mxGeometry x="15.5" y="470" width="89" height="30" as="geometry" />
        </mxCell>
        <mxCell id="b25NzEHvAgJfCk7m8K_a-93" value="清空当前&lt;br&gt;编译数据" style="rounded=0;whiteSpace=wrap;html=1;" parent="b25NzEHvAgJfCk7m8K_a-89" vertex="1">
          <mxGeometry x="15.5" y="572.5" width="89" height="30" as="geometry" />
        </mxCell>
        <mxCell id="b25NzEHvAgJfCk7m8K_a-136" value="codeBuffer" style="rounded=0;whiteSpace=wrap;html=1;" parent="b25NzEHvAgJfCk7m8K_a-89" vertex="1">
          <mxGeometry x="15.5" y="670" width="89" height="30" as="geometry" />
        </mxCell>
        <mxCell id="b25NzEHvAgJfCk7m8K_a-138" value="注入代码" style="text;html=1;align=center;verticalAlign=middle;resizable=0;points=[];autosize=1;strokeColor=none;fillColor=none;" parent="b25NzEHvAgJfCk7m8K_a-89" vertex="1">
          <mxGeometry x="-8" y="628" width="70" height="30" as="geometry" />
        </mxCell>
        <mxCell id="b25NzEHvAgJfCk7m8K_a-69" style="edgeStyle=orthogonalEdgeStyle;rounded=0;orthogonalLoop=1;jettySize=auto;html=1;exitX=0;exitY=0.5;exitDx=0;exitDy=0;entryX=1;entryY=0.5;entryDx=0;entryDy=0;" parent="b25NzEHvAgJfCk7m8K_a-33" source="b25NzEHvAgJfCk7m8K_a-66" target="b25NzEHvAgJfCk7m8K_a-42" edge="1">
          <mxGeometry relative="1" as="geometry" />
        </mxCell>
        <mxCell id="b25NzEHvAgJfCk7m8K_a-71" style="edgeStyle=orthogonalEdgeStyle;rounded=0;orthogonalLoop=1;jettySize=auto;html=1;exitX=1;exitY=0.5;exitDx=0;exitDy=0;entryX=0;entryY=0.5;entryDx=0;entryDy=0;" parent="b25NzEHvAgJfCk7m8K_a-33" source="b25NzEHvAgJfCk7m8K_a-52" target="b25NzEHvAgJfCk7m8K_a-70" edge="1">
          <mxGeometry relative="1" as="geometry" />
        </mxCell>
        <mxCell id="b25NzEHvAgJfCk7m8K_a-74" style="edgeStyle=orthogonalEdgeStyle;rounded=0;orthogonalLoop=1;jettySize=auto;html=1;exitX=1;exitY=0.5;exitDx=0;exitDy=0;entryX=0;entryY=0.5;entryDx=0;entryDy=0;" parent="b25NzEHvAgJfCk7m8K_a-33" source="b25NzEHvAgJfCk7m8K_a-59" target="b25NzEHvAgJfCk7m8K_a-73" edge="1">
          <mxGeometry relative="1" as="geometry" />
        </mxCell>
        <mxCell id="b25NzEHvAgJfCk7m8K_a-83" style="edgeStyle=orthogonalEdgeStyle;rounded=0;orthogonalLoop=1;jettySize=auto;html=1;exitX=1;exitY=0.5;exitDx=0;exitDy=0;entryX=0;entryY=0.5;entryDx=0;entryDy=0;" parent="b25NzEHvAgJfCk7m8K_a-33" source="b25NzEHvAgJfCk7m8K_a-73" target="b25NzEHvAgJfCk7m8K_a-78" edge="1">
          <mxGeometry relative="1" as="geometry" />
        </mxCell>
        <mxCell id="b25NzEHvAgJfCk7m8K_a-102" style="edgeStyle=orthogonalEdgeStyle;rounded=0;orthogonalLoop=1;jettySize=auto;html=1;exitX=0;exitY=0.5;exitDx=0;exitDy=0;entryX=1;entryY=0.5;entryDx=0;entryDy=0;" parent="b25NzEHvAgJfCk7m8K_a-33" source="b25NzEHvAgJfCk7m8K_a-72" target="b25NzEHvAgJfCk7m8K_a-58" edge="1">
          <mxGeometry relative="1" as="geometry" />
        </mxCell>
        <mxCell id="b25NzEHvAgJfCk7m8K_a-107" style="edgeStyle=orthogonalEdgeStyle;rounded=0;orthogonalLoop=1;jettySize=auto;html=1;exitX=1;exitY=0.5;exitDx=0;exitDy=0;entryX=0;entryY=0.5;entryDx=0;entryDy=0;" parent="b25NzEHvAgJfCk7m8K_a-33" source="b25NzEHvAgJfCk7m8K_a-61" target="b25NzEHvAgJfCk7m8K_a-85" edge="1">
          <mxGeometry relative="1" as="geometry" />
        </mxCell>
        <mxCell id="b25NzEHvAgJfCk7m8K_a-108" style="edgeStyle=orthogonalEdgeStyle;rounded=0;orthogonalLoop=1;jettySize=auto;html=1;exitX=1;exitY=0.5;exitDx=0;exitDy=0;" parent="b25NzEHvAgJfCk7m8K_a-33" source="b25NzEHvAgJfCk7m8K_a-63" target="b25NzEHvAgJfCk7m8K_a-87" edge="1">
          <mxGeometry relative="1" as="geometry" />
        </mxCell>
        <mxCell id="b25NzEHvAgJfCk7m8K_a-112" style="edgeStyle=orthogonalEdgeStyle;rounded=0;orthogonalLoop=1;jettySize=auto;html=1;exitX=1;exitY=0.5;exitDx=0;exitDy=0;entryX=0;entryY=0.5;entryDx=0;entryDy=0;" parent="b25NzEHvAgJfCk7m8K_a-33" source="b25NzEHvAgJfCk7m8K_a-87" target="b25NzEHvAgJfCk7m8K_a-77" edge="1">
          <mxGeometry relative="1" as="geometry" />
        </mxCell>
        <mxCell id="b25NzEHvAgJfCk7m8K_a-113" style="edgeStyle=orthogonalEdgeStyle;rounded=0;orthogonalLoop=1;jettySize=auto;html=1;exitX=1;exitY=0.5;exitDx=0;exitDy=0;entryX=0;entryY=0.5;entryDx=0;entryDy=0;" parent="b25NzEHvAgJfCk7m8K_a-33" source="b25NzEHvAgJfCk7m8K_a-64" target="b25NzEHvAgJfCk7m8K_a-88" edge="1">
          <mxGeometry relative="1" as="geometry" />
        </mxCell>
        <mxCell id="b25NzEHvAgJfCk7m8K_a-115" style="edgeStyle=orthogonalEdgeStyle;rounded=0;orthogonalLoop=1;jettySize=auto;html=1;exitX=0;exitY=0.5;exitDx=0;exitDy=0;entryX=1;entryY=0.5;entryDx=0;entryDy=0;" parent="b25NzEHvAgJfCk7m8K_a-33" source="b25NzEHvAgJfCk7m8K_a-76" target="b25NzEHvAgJfCk7m8K_a-60" edge="1">
          <mxGeometry relative="1" as="geometry" />
        </mxCell>
        <mxCell id="b25NzEHvAgJfCk7m8K_a-117" style="edgeStyle=orthogonalEdgeStyle;rounded=0;orthogonalLoop=1;jettySize=auto;html=1;exitX=0;exitY=0.5;exitDx=0;exitDy=0;entryX=1;entryY=0.75;entryDx=0;entryDy=0;" parent="b25NzEHvAgJfCk7m8K_a-33" source="b25NzEHvAgJfCk7m8K_a-91" target="b25NzEHvAgJfCk7m8K_a-63" edge="1">
          <mxGeometry relative="1" as="geometry" />
        </mxCell>
        <mxCell id="b25NzEHvAgJfCk7m8K_a-119" style="edgeStyle=orthogonalEdgeStyle;rounded=0;orthogonalLoop=1;jettySize=auto;html=1;exitX=1;exitY=0.5;exitDx=0;exitDy=0;entryX=0;entryY=0.5;entryDx=0;entryDy=0;" parent="b25NzEHvAgJfCk7m8K_a-33" source="b25NzEHvAgJfCk7m8K_a-91" target="b25NzEHvAgJfCk7m8K_a-93" edge="1">
          <mxGeometry relative="1" as="geometry" />
        </mxCell>
        <mxCell id="b25NzEHvAgJfCk7m8K_a-120" style="edgeStyle=orthogonalEdgeStyle;rounded=0;orthogonalLoop=1;jettySize=auto;html=1;exitX=0.5;exitY=0;exitDx=0;exitDy=0;entryX=1;entryY=0.75;entryDx=0;entryDy=0;" parent="b25NzEHvAgJfCk7m8K_a-33" source="b25NzEHvAgJfCk7m8K_a-93" target="b25NzEHvAgJfCk7m8K_a-87" edge="1">
          <mxGeometry relative="1" as="geometry" />
        </mxCell>
        <mxCell id="b25NzEHvAgJfCk7m8K_a-129" style="edgeStyle=orthogonalEdgeStyle;rounded=0;orthogonalLoop=1;jettySize=auto;html=1;exitX=1;exitY=0.5;exitDx=0;exitDy=0;entryX=0;entryY=0.5;entryDx=0;entryDy=0;" parent="b25NzEHvAgJfCk7m8K_a-33" source="b25NzEHvAgJfCk7m8K_a-88" target="b25NzEHvAgJfCk7m8K_a-80" edge="1">
          <mxGeometry relative="1" as="geometry" />
        </mxCell>
        <mxCell id="b25NzEHvAgJfCk7m8K_a-137" style="edgeStyle=orthogonalEdgeStyle;rounded=0;orthogonalLoop=1;jettySize=auto;html=1;exitX=1;exitY=0.5;exitDx=0;exitDy=0;entryX=0.5;entryY=0;entryDx=0;entryDy=0;" parent="b25NzEHvAgJfCk7m8K_a-33" source="b25NzEHvAgJfCk7m8K_a-80" target="b25NzEHvAgJfCk7m8K_a-136" edge="1">
          <mxGeometry relative="1" as="geometry" />
        </mxCell>
        <mxCell id="b25NzEHvAgJfCk7m8K_a-139" style="edgeStyle=orthogonalEdgeStyle;rounded=0;orthogonalLoop=1;jettySize=auto;html=1;exitX=1;exitY=0.5;exitDx=0;exitDy=0;entryX=0.5;entryY=0;entryDx=0;entryDy=0;" parent="b25NzEHvAgJfCk7m8K_a-33" source="b25NzEHvAgJfCk7m8K_a-77" target="b25NzEHvAgJfCk7m8K_a-80" edge="1">
          <mxGeometry relative="1" as="geometry" />
        </mxCell>
        <mxCell id="b25NzEHvAgJfCk7m8K_a-140" style="edgeStyle=orthogonalEdgeStyle;rounded=0;orthogonalLoop=1;jettySize=auto;html=1;exitX=1;exitY=0.5;exitDx=0;exitDy=0;entryX=0.5;entryY=0;entryDx=0;entryDy=0;" parent="b25NzEHvAgJfCk7m8K_a-33" source="b25NzEHvAgJfCk7m8K_a-85" target="b25NzEHvAgJfCk7m8K_a-80" edge="1">
          <mxGeometry relative="1" as="geometry" />
        </mxCell>
        <mxCell id="GOm38GStyMNKn4AWp28O-5" value="" style="shape=flexArrow;endArrow=classic;html=1;rounded=0;" parent="1" edge="1">
          <mxGeometry width="50" height="50" relative="1" as="geometry">
            <mxPoint x="285.75" y="984.83" as="sourcePoint" />
            <mxPoint x="345.75" y="984.83" as="targetPoint" />
          </mxGeometry>
        </mxCell>
        <mxCell id="GOm38GStyMNKn4AWp28O-7" value="&lt;font style=&quot;font-size: 16px;&quot;&gt;result&amp;nbsp;&lt;/font&gt;" style="text;html=1;align=center;verticalAlign=middle;whiteSpace=wrap;rounded=0;" parent="1" vertex="1">
          <mxGeometry x="355.38" y="940" width="65" height="30" as="geometry" />
        </mxCell>
        <mxCell id="R-gMwyTmyChJ_m9MSwHn-10" style="edgeStyle=orthogonalEdgeStyle;rounded=0;orthogonalLoop=1;jettySize=auto;html=1;" edge="1" parent="1" source="GOm38GStyMNKn4AWp28O-8" target="R-gMwyTmyChJ_m9MSwHn-7">
          <mxGeometry relative="1" as="geometry" />
        </mxCell>
        <mxCell id="GOm38GStyMNKn4AWp28O-8" value="&lt;font style=&quot;font-size: 16px;&quot;&gt;value1&amp;nbsp;&lt;/font&gt;" style="text;html=1;align=center;verticalAlign=middle;whiteSpace=wrap;rounded=0;" parent="1" vertex="1">
          <mxGeometry x="357.88" y="970" width="62.5" height="30" as="geometry" />
        </mxCell>
        <mxCell id="GOm38GStyMNKn4AWp28O-9" value="&lt;font style=&quot;font-size: 16px;&quot;&gt;value2&amp;nbsp;&lt;/font&gt;" style="text;html=1;align=center;verticalAlign=middle;whiteSpace=wrap;rounded=0;" parent="1" vertex="1">
          <mxGeometry x="357.88" y="1000" width="62.5" height="30" as="geometry" />
        </mxCell>
        <mxCell id="GOm38GStyMNKn4AWp28O-11" value="&lt;font style=&quot;font-size: 14px;&quot;&gt;emitCode&lt;/font&gt;" style="text;html=1;align=center;verticalAlign=middle;resizable=0;points=[];autosize=1;strokeColor=none;fillColor=none;" parent="1" vertex="1">
          <mxGeometry x="476.25" y="940" width="80" height="30" as="geometry" />
        </mxCell>
        <mxCell id="VwOEmo3AU2konp4xYrkq-1" value="&lt;font style=&quot;font-size: 16px;&quot;&gt;_mark: markWord&lt;/font&gt;" style="rounded=0;whiteSpace=wrap;html=1;fillColor=#dae8fc;strokeColor=default;fontSize=14;" parent="1" vertex="1">
          <mxGeometry x="270" y="1260" width="165" height="40" as="geometry" />
        </mxCell>
        <mxCell id="VwOEmo3AU2konp4xYrkq-2" value="_klass:&amp;nbsp;klassOop" style="rounded=0;whiteSpace=wrap;html=1;fillColor=#d5e8d4;strokeColor=default;fontSize=16;" parent="1" vertex="1">
          <mxGeometry x="270" y="1300" width="165" height="40" as="geometry" />
        </mxCell>
        <mxCell id="VwOEmo3AU2konp4xYrkq-3" value="_length: int" style="rounded=0;whiteSpace=wrap;html=1;fillColor=#ffe6cc;strokeColor=default;glass=0;shadow=0;fontSize=16;" parent="1" vertex="1">
          <mxGeometry x="270" y="1340" width="165" height="40" as="geometry" />
        </mxCell>
        <mxCell id="VwOEmo3AU2konp4xYrkq-4" value="data" style="rounded=0;whiteSpace=wrap;html=1;fillColor=#fff2cc;strokeColor=default;fontSize=16;" parent="1" vertex="1">
          <mxGeometry x="270" y="1380" width="165" height="60" as="geometry" />
        </mxCell>
        <mxCell id="VwOEmo3AU2konp4xYrkq-5" value="padding" style="rounded=0;whiteSpace=wrap;html=1;fillColor=#f5f5f5;fontColor=#333333;strokeColor=default;fontSize=16;" parent="1" vertex="1">
          <mxGeometry x="270" y="1440" width="165" height="30" as="geometry" />
        </mxCell>
        <mxCell id="VwOEmo3AU2konp4xYrkq-6" value="" style="shape=curlyBracket;whiteSpace=wrap;html=1;rounded=1;flipH=1;labelPosition=right;verticalLabelPosition=middle;align=left;verticalAlign=middle;" parent="1" vertex="1">
          <mxGeometry x="459" y="1260" width="20" height="120" as="geometry" />
        </mxCell>
        <mxCell id="VwOEmo3AU2konp4xYrkq-7" value="对象头（_length&amp;nbsp;只有数组对象有）" style="text;html=1;align=left;verticalAlign=middle;resizable=0;points=[];autosize=1;strokeColor=none;fillColor=none;fontSize=14;" parent="1" vertex="1">
          <mxGeometry x="494" y="1305" width="240" height="30" as="geometry" />
        </mxCell>
        <mxCell id="VwOEmo3AU2konp4xYrkq-8" value="" style="shape=curlyBracket;whiteSpace=wrap;html=1;rounded=1;flipH=1;labelPosition=right;verticalLabelPosition=middle;align=left;verticalAlign=middle;" parent="1" vertex="1">
          <mxGeometry x="459" y="1380" width="20" height="60" as="geometry" />
        </mxCell>
        <mxCell id="VwOEmo3AU2konp4xYrkq-9" value="对象实际数据" style="text;html=1;align=center;verticalAlign=middle;resizable=0;points=[];autosize=1;strokeColor=none;fillColor=none;fontSize=14;" parent="1" vertex="1">
          <mxGeometry x="480" y="1395" width="110" height="30" as="geometry" />
        </mxCell>
        <mxCell id="VwOEmo3AU2konp4xYrkq-10" value="" style="shape=curlyBracket;whiteSpace=wrap;html=1;rounded=1;flipH=1;labelPosition=right;verticalLabelPosition=middle;align=left;verticalAlign=middle;" parent="1" vertex="1">
          <mxGeometry x="459" y="1440" width="20" height="30" as="geometry" />
        </mxCell>
        <mxCell id="VwOEmo3AU2konp4xYrkq-11" value="对齐填充" style="text;html=1;align=left;verticalAlign=middle;resizable=0;points=[];autosize=1;strokeColor=none;fillColor=none;fontSize=14;" parent="1" vertex="1">
          <mxGeometry x="494" y="1440" width="80" height="30" as="geometry" />
        </mxCell>
        <mxCell id="jAJiWPziwqsTxdR27PoP-1" value="&lt;span style=&quot;font-size: 16px;&quot;&gt;前一帧栈地址（fp）&lt;/span&gt;" style="rounded=0;whiteSpace=wrap;html=1;fillColor=#dae8fc;strokeColor=default;" parent="1" vertex="1">
          <mxGeometry x="309" y="1750" width="190" height="40" as="geometry" />
        </mxCell>
        <mxCell id="jAJiWPziwqsTxdR27PoP-2" value="&lt;span style=&quot;font-size: 16px;&quot;&gt;返回地址（ra）&lt;/span&gt;" style="rounded=0;whiteSpace=wrap;html=1;fillColor=#d5e8d4;strokeColor=default;" parent="1" vertex="1">
          <mxGeometry x="309" y="1790" width="190" height="40" as="geometry" />
        </mxCell>
        <mxCell id="jAJiWPziwqsTxdR27PoP-3" value="&lt;span style=&quot;font-size: 16px;&quot;&gt;溢出槽（&lt;/span&gt;&lt;span style=&quot;font-size: 16px;&quot;&gt;spill slot&lt;/span&gt;&lt;span style=&quot;font-size: 16px;&quot;&gt;） 0&lt;/span&gt;" style="rounded=0;whiteSpace=wrap;html=1;fillColor=#ffe6cc;strokeColor=default;" parent="1" vertex="1">
          <mxGeometry x="309" y="1830" width="190" height="40" as="geometry" />
        </mxCell>
        <mxCell id="jAJiWPziwqsTxdR27PoP-4" value="&lt;font style=&quot;font-size: 22px;&quot;&gt;...&lt;/font&gt;" style="rounded=0;whiteSpace=wrap;html=1;fillColor=#ffe6cc;strokeColor=default;" parent="1" vertex="1">
          <mxGeometry x="309" y="1870" width="190" height="40" as="geometry" />
        </mxCell>
        <mxCell id="jAJiWPziwqsTxdR27PoP-5" value="&lt;span style=&quot;font-size: 16px;&quot;&gt;溢出槽（&lt;/span&gt;&lt;span style=&quot;font-size: 16px;&quot;&gt;spill slot&lt;/span&gt;&lt;span style=&quot;font-size: 16px;&quot;&gt;） n&lt;/span&gt;" style="rounded=0;whiteSpace=wrap;html=1;fillColor=#ffe6cc;strokeColor=default;" parent="1" vertex="1">
          <mxGeometry x="309" y="1910" width="190" height="40" as="geometry" />
        </mxCell>
        <mxCell id="jAJiWPziwqsTxdR27PoP-6" value="&lt;span style=&quot;font-size: 16px;&quot;&gt;对齐填充&lt;/span&gt;" style="rounded=0;whiteSpace=wrap;html=1;fillColor=#f5f5f5;fontColor=#333333;strokeColor=default;" parent="1" vertex="1">
          <mxGeometry x="309" y="1950" width="190" height="40" as="geometry" />
        </mxCell>
        <mxCell id="jAJiWPziwqsTxdR27PoP-7" value="&lt;span style=&quot;font-size: 16px;&quot;&gt;被调用者传出溢出参数 n&lt;/span&gt;" style="rounded=0;whiteSpace=wrap;html=1;fillColor=#e1d5e7;strokeColor=default;" parent="1" vertex="1">
          <mxGeometry x="309" y="1990" width="190" height="40" as="geometry" />
        </mxCell>
        <mxCell id="jAJiWPziwqsTxdR27PoP-8" value="&lt;font style=&quot;font-size: 22px;&quot;&gt;...&lt;/font&gt;" style="rounded=0;whiteSpace=wrap;html=1;fillColor=#e1d5e7;strokeColor=default;" parent="1" vertex="1">
          <mxGeometry x="309" y="2030" width="190" height="40" as="geometry" />
        </mxCell>
        <mxCell id="jAJiWPziwqsTxdR27PoP-9" value="&lt;span style=&quot;font-size: 16px;&quot;&gt;被调用者传出溢出参数 0&lt;/span&gt;" style="rounded=0;whiteSpace=wrap;html=1;fillColor=#e1d5e7;strokeColor=default;" parent="1" vertex="1">
          <mxGeometry x="309" y="2070" width="190" height="40" as="geometry" />
        </mxCell>
        <mxCell id="jAJiWPziwqsTxdR27PoP-10" value="&lt;span style=&quot;font-size: 16px;&quot;&gt;调用者传入溢出参数 n&lt;/span&gt;" style="rounded=0;whiteSpace=wrap;html=1;fillColor=#e1d5e7;strokeColor=default;" parent="1" vertex="1">
          <mxGeometry x="309" y="1630" width="190" height="40" as="geometry" />
        </mxCell>
        <mxCell id="jAJiWPziwqsTxdR27PoP-11" value="&lt;font style=&quot;font-size: 22px;&quot;&gt;...&lt;/font&gt;" style="rounded=0;whiteSpace=wrap;html=1;fillColor=#e1d5e7;strokeColor=default;" parent="1" vertex="1">
          <mxGeometry x="309" y="1670" width="190" height="40" as="geometry" />
        </mxCell>
        <mxCell id="jAJiWPziwqsTxdR27PoP-12" value="&lt;span style=&quot;font-size: 16px;&quot;&gt;调用者传入溢出参数 0&lt;/span&gt;" style="rounded=0;whiteSpace=wrap;html=1;fillColor=#e1d5e7;strokeColor=default;" parent="1" vertex="1">
          <mxGeometry x="309" y="1710" width="190" height="40" as="geometry" />
        </mxCell>
        <mxCell id="jAJiWPziwqsTxdR27PoP-13" value="" style="endArrow=none;dashed=1;html=1;rounded=0;strokeWidth=2;" parent="1" edge="1">
          <mxGeometry width="50" height="50" relative="1" as="geometry">
            <mxPoint x="140" y="1750" as="sourcePoint" />
            <mxPoint x="730" y="1750" as="targetPoint" />
          </mxGeometry>
        </mxCell>
        <mxCell id="jAJiWPziwqsTxdR27PoP-14" value="&lt;font style=&quot;font-size: 16px;&quot;&gt;调用者栈帧&lt;/font&gt;" style="text;html=1;align=center;verticalAlign=middle;resizable=0;points=[];autosize=1;strokeColor=none;fillColor=none;" parent="1" vertex="1">
          <mxGeometry x="160" y="1675" width="100" height="30" as="geometry" />
        </mxCell>
        <mxCell id="jAJiWPziwqsTxdR27PoP-15" value="&lt;font style=&quot;font-size: 16px;&quot;&gt;被调用者栈帧&lt;/font&gt;" style="text;html=1;align=center;verticalAlign=middle;resizable=0;points=[];autosize=1;strokeColor=none;fillColor=none;" parent="1" vertex="1">
          <mxGeometry x="150" y="1900" width="120" height="30" as="geometry" />
        </mxCell>
        <mxCell id="jAJiWPziwqsTxdR27PoP-17" style="edgeStyle=orthogonalEdgeStyle;rounded=0;orthogonalLoop=1;jettySize=auto;html=1;" parent="1" source="jAJiWPziwqsTxdR27PoP-16" edge="1">
          <mxGeometry relative="1" as="geometry">
            <mxPoint x="300" y="2105" as="targetPoint" />
          </mxGeometry>
        </mxCell>
        <mxCell id="jAJiWPziwqsTxdR27PoP-16" value="&lt;font style=&quot;font-size: 16px;&quot;&gt;sp&lt;/font&gt;" style="text;html=1;align=center;verticalAlign=middle;resizable=0;points=[];autosize=1;strokeColor=none;fillColor=none;" parent="1" vertex="1">
          <mxGeometry x="170" y="2090" width="40" height="30" as="geometry" />
        </mxCell>
        <mxCell id="jAJiWPziwqsTxdR27PoP-18" value="" style="endArrow=none;dashed=1;html=1;rounded=0;strokeWidth=2;" parent="1" edge="1">
          <mxGeometry width="50" height="50" relative="1" as="geometry">
            <mxPoint x="309" y="2110" as="sourcePoint" />
            <mxPoint x="720" y="2110" as="targetPoint" />
          </mxGeometry>
        </mxCell>
        <mxCell id="jAJiWPziwqsTxdR27PoP-19" value="" style="endArrow=classic;startArrow=classic;html=1;rounded=0;dashed=1;dashPattern=8 8;" parent="1" edge="1">
          <mxGeometry width="50" height="50" relative="1" as="geometry">
            <mxPoint x="650" y="2100" as="sourcePoint" />
            <mxPoint x="650" y="1760" as="targetPoint" />
          </mxGeometry>
        </mxCell>
        <mxCell id="jAJiWPziwqsTxdR27PoP-20" value="&lt;font style=&quot;font-size: 16px;&quot;&gt;栈总大小&lt;/font&gt;" style="edgeLabel;html=1;align=center;verticalAlign=middle;resizable=0;points=[];" parent="jAJiWPziwqsTxdR27PoP-19" vertex="1" connectable="0">
          <mxGeometry x="0.0752" relative="1" as="geometry">
            <mxPoint as="offset" />
          </mxGeometry>
        </mxCell>
        <mxCell id="jAJiWPziwqsTxdR27PoP-21" value="" style="endArrow=classic;startArrow=classic;html=1;rounded=0;dashed=1;dashPattern=8 8;" parent="1" edge="1">
          <mxGeometry width="50" height="50" relative="1" as="geometry">
            <mxPoint x="710" y="2100" as="sourcePoint" />
            <mxPoint x="710" y="1830" as="targetPoint" />
          </mxGeometry>
        </mxCell>
        <mxCell id="jAJiWPziwqsTxdR27PoP-22" value="&lt;font style=&quot;font-size: 16px;&quot;&gt;栈大小&lt;/font&gt;" style="edgeLabel;html=1;align=center;verticalAlign=middle;resizable=0;points=[];" parent="jAJiWPziwqsTxdR27PoP-21" vertex="1" connectable="0">
          <mxGeometry x="0.0752" relative="1" as="geometry">
            <mxPoint as="offset" />
          </mxGeometry>
        </mxCell>
        <mxCell id="jAJiWPziwqsTxdR27PoP-25" value="" style="endArrow=none;dashed=1;html=1;rounded=0;strokeWidth=2;" parent="1" edge="1">
          <mxGeometry width="50" height="50" relative="1" as="geometry">
            <mxPoint x="510" y="1950" as="sourcePoint" />
            <mxPoint x="550" y="1950" as="targetPoint" />
          </mxGeometry>
        </mxCell>
        <mxCell id="jAJiWPziwqsTxdR27PoP-26" value="" style="endArrow=none;dashed=1;html=1;rounded=0;strokeWidth=2;" parent="1" edge="1">
          <mxGeometry width="50" height="50" relative="1" as="geometry">
            <mxPoint x="511" y="1990" as="sourcePoint" />
            <mxPoint x="551" y="1990" as="targetPoint" />
          </mxGeometry>
        </mxCell>
        <mxCell id="jAJiWPziwqsTxdR27PoP-27" value="" style="endArrow=none;dashed=1;html=1;rounded=0;strokeWidth=2;" parent="1" edge="1">
          <mxGeometry width="50" height="50" relative="1" as="geometry">
            <mxPoint x="511" y="1630" as="sourcePoint" />
            <mxPoint x="551" y="1630" as="targetPoint" />
          </mxGeometry>
        </mxCell>
        <mxCell id="jAJiWPziwqsTxdR27PoP-29" value="" style="endArrow=classic;startArrow=classic;html=1;rounded=0;dashed=1;dashPattern=8 8;" parent="1" edge="1">
          <mxGeometry width="50" height="50" relative="1" as="geometry">
            <mxPoint x="530" y="1940" as="sourcePoint" />
            <mxPoint x="530" y="1640" as="targetPoint" />
          </mxGeometry>
        </mxCell>
        <mxCell id="jAJiWPziwqsTxdR27PoP-31" value="&lt;font style=&quot;font-size: 16px;&quot;&gt;正偏移寻址&lt;/font&gt;" style="text;html=1;align=center;verticalAlign=middle;resizable=0;points=[];autosize=1;strokeColor=none;fillColor=none;" parent="1" vertex="1">
          <mxGeometry x="530" y="1705" width="100" height="30" as="geometry" />
        </mxCell>
        <mxCell id="jAJiWPziwqsTxdR27PoP-32" value="&lt;font style=&quot;font-size: 16px;&quot;&gt;负偏移寻址&lt;/font&gt;" style="text;html=1;align=center;verticalAlign=middle;resizable=0;points=[];autosize=1;strokeColor=none;fillColor=none;" parent="1" vertex="1">
          <mxGeometry x="530" y="1870" width="100" height="30" as="geometry" />
        </mxCell>
        <mxCell id="jAJiWPziwqsTxdR27PoP-33" value="" style="endArrow=classic;html=1;rounded=0;dashed=1;dashPattern=8 8;" parent="1" edge="1">
          <mxGeometry width="50" height="50" relative="1" as="geometry">
            <mxPoint x="530" y="2100" as="sourcePoint" />
            <mxPoint x="530" y="2010" as="targetPoint" />
          </mxGeometry>
        </mxCell>
        <mxCell id="jAJiWPziwqsTxdR27PoP-34" value="&lt;font style=&quot;font-size: 16px;&quot;&gt;正偏移寻址&lt;/font&gt;" style="text;html=1;align=center;verticalAlign=middle;resizable=0;points=[];autosize=1;strokeColor=none;fillColor=none;" parent="1" vertex="1">
          <mxGeometry x="530" y="2060" width="100" height="30" as="geometry" />
        </mxCell>
        <mxCell id="jAJiWPziwqsTxdR27PoP-35" value="&lt;span style=&quot;font-size: 16px;&quot;&gt;Red Page&lt;/span&gt;" style="rounded=0;whiteSpace=wrap;html=1;fillColor=#f8cecc;strokeColor=#b85450;" parent="1" vertex="1">
          <mxGeometry x="335" y="2370" width="190" height="40" as="geometry" />
        </mxCell>
        <mxCell id="jAJiWPziwqsTxdR27PoP-36" value="&lt;span style=&quot;font-size: 16px;&quot;&gt;Yellow Page&lt;/span&gt;" style="rounded=0;whiteSpace=wrap;html=1;fillColor=#ffe6cc;strokeColor=#d79b00;" parent="1" vertex="1">
          <mxGeometry x="335" y="2410" width="190" height="40" as="geometry" />
        </mxCell>
        <mxCell id="jAJiWPziwqsTxdR27PoP-37" value="&lt;span style=&quot;font-size: 16px;&quot;&gt;Reserved Page&lt;/span&gt;" style="rounded=0;whiteSpace=wrap;html=1;fillColor=#e1d5e7;strokeColor=#9673a6;" parent="1" vertex="1">
          <mxGeometry x="335" y="2450" width="190" height="40" as="geometry" />
        </mxCell>
        <mxCell id="jAJiWPziwqsTxdR27PoP-38" value="&lt;span style=&quot;font-size: 16px;&quot;&gt;Shadow Page&lt;/span&gt;" style="rounded=0;whiteSpace=wrap;html=1;fillColor=#f5f5f5;strokeColor=#666666;fontColor=#333333;" parent="1" vertex="1">
          <mxGeometry x="335" y="2490" width="190" height="80" as="geometry" />
        </mxCell>
        <mxCell id="jAJiWPziwqsTxdR27PoP-39" value="&lt;font style=&quot;font-size: 30px;&quot;&gt;...&lt;/font&gt;" style="rounded=0;whiteSpace=wrap;html=1;" parent="1" vertex="1">
          <mxGeometry x="335" y="2570" width="190" height="80" as="geometry" />
        </mxCell>
        <mxCell id="jAJiWPziwqsTxdR27PoP-41" value="&lt;span style=&quot;font-size: 16px;&quot;&gt;Java Frame&lt;/span&gt;" style="rounded=0;whiteSpace=wrap;html=1;fillColor=#dae8fc;strokeColor=#6c8ebf;" parent="1" vertex="1">
          <mxGeometry x="335" y="2650" width="190" height="80" as="geometry" />
        </mxCell>
        <mxCell id="jAJiWPziwqsTxdR27PoP-43" style="edgeStyle=orthogonalEdgeStyle;rounded=0;orthogonalLoop=1;jettySize=auto;html=1;" parent="1" source="jAJiWPziwqsTxdR27PoP-42" edge="1">
          <mxGeometry relative="1" as="geometry">
            <mxPoint x="540" y="2655" as="targetPoint" />
          </mxGeometry>
        </mxCell>
        <mxCell id="jAJiWPziwqsTxdR27PoP-42" value="&lt;font style=&quot;font-size: 16px;&quot;&gt;SP&lt;/font&gt;" style="text;html=1;align=center;verticalAlign=middle;whiteSpace=wrap;rounded=0;" parent="1" vertex="1">
          <mxGeometry x="570" y="2640" width="60" height="30" as="geometry" />
        </mxCell>
        <mxCell id="bwzxpeLL0tZI7nzM4r0u-2" style="edgeStyle=orthogonalEdgeStyle;rounded=0;orthogonalLoop=1;jettySize=auto;html=1;exitX=0.5;exitY=1;exitDx=0;exitDy=0;" parent="1" source="bwzxpeLL0tZI7nzM4r0u-1" edge="1">
          <mxGeometry relative="1" as="geometry">
            <mxPoint x="306" y="3037" as="targetPoint" />
          </mxGeometry>
        </mxCell>
        <mxCell id="bwzxpeLL0tZI7nzM4r0u-1" value="进入Nmethod Entry Barrier" style="rounded=1;whiteSpace=wrap;html=1;" parent="1" vertex="1">
          <mxGeometry x="221" y="2930" width="170" height="60" as="geometry" />
        </mxCell>
        <mxCell id="bwzxpeLL0tZI7nzM4r0u-5" style="edgeStyle=orthogonalEdgeStyle;rounded=0;orthogonalLoop=1;jettySize=auto;html=1;exitX=0.5;exitY=1;exitDx=0;exitDy=0;entryX=0.5;entryY=0;entryDx=0;entryDy=0;" parent="1" source="bwzxpeLL0tZI7nzM4r0u-3" target="bwzxpeLL0tZI7nzM4r0u-4" edge="1">
          <mxGeometry relative="1" as="geometry" />
        </mxCell>
        <mxCell id="bwzxpeLL0tZI7nzM4r0u-3" value="获取该 Nmethod 保存的 disarm值" style="rounded=0;whiteSpace=wrap;html=1;" parent="1" vertex="1">
          <mxGeometry x="222" y="3037" width="170" height="60" as="geometry" />
        </mxCell>
        <mxCell id="bwzxpeLL0tZI7nzM4r0u-8" style="edgeStyle=orthogonalEdgeStyle;rounded=0;orthogonalLoop=1;jettySize=auto;html=1;exitX=0.5;exitY=1;exitDx=0;exitDy=0;entryX=0.5;entryY=0;entryDx=0;entryDy=0;" parent="1" source="bwzxpeLL0tZI7nzM4r0u-4" target="bwzxpeLL0tZI7nzM4r0u-7" edge="1">
          <mxGeometry relative="1" as="geometry" />
        </mxCell>
        <mxCell id="bwzxpeLL0tZI7nzM4r0u-4" value="读取当前线程中的 disarm 值" style="rounded=0;whiteSpace=wrap;html=1;" parent="1" vertex="1">
          <mxGeometry x="222" y="3137" width="170" height="60" as="geometry" />
        </mxCell>
        <mxCell id="bwzxpeLL0tZI7nzM4r0u-10" style="edgeStyle=orthogonalEdgeStyle;rounded=0;orthogonalLoop=1;jettySize=auto;html=1;exitX=0.5;exitY=1;exitDx=0;exitDy=0;entryX=0.5;entryY=0;entryDx=0;entryDy=0;" parent="1" source="bwzxpeLL0tZI7nzM4r0u-7" target="bwzxpeLL0tZI7nzM4r0u-9" edge="1">
          <mxGeometry relative="1" as="geometry" />
        </mxCell>
        <mxCell id="bwzxpeLL0tZI7nzM4r0u-23" style="edgeStyle=orthogonalEdgeStyle;rounded=0;orthogonalLoop=1;jettySize=auto;html=1;exitX=1;exitY=0.5;exitDx=0;exitDy=0;entryX=0;entryY=0.5;entryDx=0;entryDy=0;" parent="1" source="bwzxpeLL0tZI7nzM4r0u-7" target="bwzxpeLL0tZI7nzM4r0u-13" edge="1">
          <mxGeometry relative="1" as="geometry" />
        </mxCell>
        <mxCell id="bwzxpeLL0tZI7nzM4r0u-7" value="比较两值是否相等？" style="rhombus;whiteSpace=wrap;html=1;" parent="1" vertex="1">
          <mxGeometry x="232" y="3227" width="150" height="80" as="geometry" />
        </mxCell>
        <mxCell id="bwzxpeLL0tZI7nzM4r0u-9" value="继续执行Nmethod的代码" style="rounded=1;whiteSpace=wrap;html=1;" parent="1" vertex="1">
          <mxGeometry x="222" y="3357" width="170" height="60" as="geometry" />
        </mxCell>
        <mxCell id="bwzxpeLL0tZI7nzM4r0u-11" value="是" style="text;html=1;align=center;verticalAlign=middle;resizable=0;points=[];autosize=1;strokeColor=none;fillColor=none;" parent="1" vertex="1">
          <mxGeometry x="312" y="3297" width="40" height="30" as="geometry" />
        </mxCell>
        <mxCell id="bwzxpeLL0tZI7nzM4r0u-26" style="edgeStyle=orthogonalEdgeStyle;rounded=0;orthogonalLoop=1;jettySize=auto;html=1;exitX=0.5;exitY=1;exitDx=0;exitDy=0;entryX=0.5;entryY=0;entryDx=0;entryDy=0;" parent="1" source="bwzxpeLL0tZI7nzM4r0u-13" target="bwzxpeLL0tZI7nzM4r0u-14" edge="1">
          <mxGeometry relative="1" as="geometry" />
        </mxCell>
        <mxCell id="bwzxpeLL0tZI7nzM4r0u-13" value="调用Nmethod Entry Barrier桩代码" style="rounded=0;whiteSpace=wrap;html=1;" parent="1" vertex="1">
          <mxGeometry x="437" y="3137" width="170" height="60" as="geometry" />
        </mxCell>
        <mxCell id="bwzxpeLL0tZI7nzM4r0u-16" style="edgeStyle=orthogonalEdgeStyle;rounded=0;orthogonalLoop=1;jettySize=auto;html=1;exitX=0.5;exitY=1;exitDx=0;exitDy=0;entryX=0.5;entryY=0;entryDx=0;entryDy=0;" parent="1" source="bwzxpeLL0tZI7nzM4r0u-14" target="bwzxpeLL0tZI7nzM4r0u-15" edge="1">
          <mxGeometry relative="1" as="geometry" />
        </mxCell>
        <mxCell id="bwzxpeLL0tZI7nzM4r0u-21" style="edgeStyle=orthogonalEdgeStyle;rounded=0;orthogonalLoop=1;jettySize=auto;html=1;exitX=0;exitY=0.5;exitDx=0;exitDy=0;entryX=0.5;entryY=0;entryDx=0;entryDy=0;" parent="1" source="bwzxpeLL0tZI7nzM4r0u-14" target="bwzxpeLL0tZI7nzM4r0u-9" edge="1">
          <mxGeometry relative="1" as="geometry">
            <mxPoint x="412" y="3337" as="targetPoint" />
            <Array as="points">
              <mxPoint x="432" y="3267" />
              <mxPoint x="432" y="3327" />
              <mxPoint x="307" y="3327" />
            </Array>
          </mxGeometry>
        </mxCell>
        <mxCell id="bwzxpeLL0tZI7nzM4r0u-14" value="当前Nmethod是否&lt;div&gt;需要退优化？&lt;/div&gt;" style="rhombus;whiteSpace=wrap;html=1;" parent="1" vertex="1">
          <mxGeometry x="447" y="3227" width="150" height="80" as="geometry" />
        </mxCell>
        <mxCell id="bwzxpeLL0tZI7nzM4r0u-15" value="退优化当前Nmethod" style="rounded=1;whiteSpace=wrap;html=1;" parent="1" vertex="1">
          <mxGeometry x="437" y="3357" width="170" height="60" as="geometry" />
        </mxCell>
        <mxCell id="bwzxpeLL0tZI7nzM4r0u-17" value="是" style="text;html=1;align=center;verticalAlign=middle;resizable=0;points=[];autosize=1;strokeColor=none;fillColor=none;" parent="1" vertex="1">
          <mxGeometry x="542" y="3297" width="40" height="30" as="geometry" />
        </mxCell>
        <mxCell id="bwzxpeLL0tZI7nzM4r0u-22" value="否" style="text;html=1;align=center;verticalAlign=middle;resizable=0;points=[];autosize=1;strokeColor=none;fillColor=none;" parent="1" vertex="1">
          <mxGeometry x="427" y="3287" width="40" height="30" as="geometry" />
        </mxCell>
        <mxCell id="bwzxpeLL0tZI7nzM4r0u-25" value="否" style="text;html=1;align=center;verticalAlign=middle;resizable=0;points=[];autosize=1;strokeColor=none;fillColor=none;" parent="1" vertex="1">
          <mxGeometry x="361" y="3237" width="40" height="30" as="geometry" />
        </mxCell>
        <mxCell id="bwzxpeLL0tZI7nzM4r0u-41" style="edgeStyle=orthogonalEdgeStyle;rounded=0;orthogonalLoop=1;jettySize=auto;html=1;exitX=0.5;exitY=0;exitDx=0;exitDy=0;entryX=0.5;entryY=1;entryDx=0;entryDy=0;endArrow=block;endFill=0;curved=1;" parent="1" source="bwzxpeLL0tZI7nzM4r0u-27" target="bwzxpeLL0tZI7nzM4r0u-33" edge="1">
          <mxGeometry relative="1" as="geometry" />
        </mxCell>
        <mxCell id="PJVBHD5AMoMqWCpHGdgi-15" style="edgeStyle=orthogonalEdgeStyle;rounded=0;orthogonalLoop=1;jettySize=auto;html=1;exitX=0.5;exitY=0;exitDx=0;exitDy=0;entryX=0.5;entryY=1;entryDx=0;entryDy=0;curved=1;endArrow=block;endFill=0;" parent="1" source="bwzxpeLL0tZI7nzM4r0u-27" target="bwzxpeLL0tZI7nzM4r0u-36" edge="1">
          <mxGeometry relative="1" as="geometry" />
        </mxCell>
        <mxCell id="PJVBHD5AMoMqWCpHGdgi-16" style="edgeStyle=orthogonalEdgeStyle;rounded=0;orthogonalLoop=1;jettySize=auto;html=1;exitX=0.5;exitY=0;exitDx=0;exitDy=0;entryX=0.5;entryY=1;entryDx=0;entryDy=0;curved=1;endArrow=block;endFill=0;" parent="1" source="bwzxpeLL0tZI7nzM4r0u-27" target="bwzxpeLL0tZI7nzM4r0u-29" edge="1">
          <mxGeometry relative="1" as="geometry" />
        </mxCell>
        <mxCell id="PJVBHD5AMoMqWCpHGdgi-17" style="edgeStyle=orthogonalEdgeStyle;rounded=0;orthogonalLoop=1;jettySize=auto;html=1;exitX=0.5;exitY=0;exitDx=0;exitDy=0;entryX=0.5;entryY=1;entryDx=0;entryDy=0;curved=1;endArrow=block;endFill=0;" parent="1" source="bwzxpeLL0tZI7nzM4r0u-27" target="bwzxpeLL0tZI7nzM4r0u-28" edge="1">
          <mxGeometry relative="1" as="geometry">
            <Array as="points">
              <mxPoint x="411.25" y="3665" />
              <mxPoint x="195.25" y="3665" />
            </Array>
          </mxGeometry>
        </mxCell>
        <mxCell id="PJVBHD5AMoMqWCpHGdgi-19" style="edgeStyle=orthogonalEdgeStyle;rounded=0;orthogonalLoop=1;jettySize=auto;html=1;exitX=0.5;exitY=1;exitDx=0;exitDy=0;entryX=0.5;entryY=0;entryDx=0;entryDy=0;curved=1;endArrow=block;endFill=1;strokeColor=#FF0000;strokeWidth=1;endSize=6;" parent="1" source="bwzxpeLL0tZI7nzM4r0u-27" target="bwzxpeLL0tZI7nzM4r0u-35" edge="1">
          <mxGeometry relative="1" as="geometry" />
        </mxCell>
        <mxCell id="bwzxpeLL0tZI7nzM4r0u-27" value="&lt;font style=&quot;font-size: 16px;&quot;&gt;If Node&lt;/font&gt;" style="rounded=0;whiteSpace=wrap;html=1;" parent="1" vertex="1">
          <mxGeometry x="351.25" y="3695" width="120" height="40" as="geometry" />
        </mxCell>
        <mxCell id="bwzxpeLL0tZI7nzM4r0u-28" value="&lt;font style=&quot;font-size: 16px;&quot;&gt;Logic Node&lt;/font&gt;" style="rounded=0;whiteSpace=wrap;html=1;" parent="1" vertex="1">
          <mxGeometry x="150" y="3560" width="90" height="50" as="geometry" />
        </mxCell>
        <mxCell id="bwzxpeLL0tZI7nzM4r0u-29" value="&lt;font style=&quot;font-size: 16px;&quot;&gt;Left Value&lt;/font&gt;" style="rounded=0;whiteSpace=wrap;html=1;" parent="1" vertex="1">
          <mxGeometry x="256.25" y="3560" width="90" height="50" as="geometry" />
        </mxCell>
        <mxCell id="bwzxpeLL0tZI7nzM4r0u-33" value="&lt;span style=&quot;font-size: 16px;&quot;&gt;Right Value&lt;/span&gt;" style="rounded=0;whiteSpace=wrap;html=1;" parent="1" vertex="1">
          <mxGeometry x="361.75" y="3560" width="99" height="50" as="geometry" />
        </mxCell>
        <mxCell id="bwzxpeLL0tZI7nzM4r0u-34" value="&lt;span style=&quot;font-size: 16px;&quot;&gt;True Successor&lt;/span&gt;" style="rounded=0;whiteSpace=wrap;html=1;" parent="1" vertex="1">
          <mxGeometry x="247" y="3800" width="120" height="50" as="geometry" />
        </mxCell>
        <mxCell id="bwzxpeLL0tZI7nzM4r0u-35" value="&lt;span style=&quot;font-size: 16px;&quot;&gt;False Successor&lt;/span&gt;" style="rounded=0;whiteSpace=wrap;html=1;" parent="1" vertex="1">
          <mxGeometry x="464" y="3800" width="126" height="50" as="geometry" />
        </mxCell>
        <mxCell id="bwzxpeLL0tZI7nzM4r0u-36" value="&lt;span style=&quot;font-size: 16px;&quot;&gt;True Successor Probability&lt;/span&gt;" style="rounded=0;whiteSpace=wrap;html=1;" parent="1" vertex="1">
          <mxGeometry x="478.5" y="3560" width="165" height="50" as="geometry" />
        </mxCell>
        <mxCell id="bwzxpeLL0tZI7nzM4r0u-47" style="edgeStyle=orthogonalEdgeStyle;rounded=0;orthogonalLoop=1;jettySize=auto;html=1;exitX=0.5;exitY=1;exitDx=0;exitDy=0;" parent="1" source="bwzxpeLL0tZI7nzM4r0u-46" edge="1">
          <mxGeometry relative="1" as="geometry">
            <mxPoint x="404.2631578947369" y="3980" as="targetPoint" />
          </mxGeometry>
        </mxCell>
        <mxCell id="bwzxpeLL0tZI7nzM4r0u-46" value="&lt;font style=&quot;font-size: 16px;&quot;&gt;调用 emitCompareBranch&lt;/font&gt;" style="rounded=1;whiteSpace=wrap;html=1;" parent="1" vertex="1">
          <mxGeometry x="306" y="3880" width="196" height="60" as="geometry" />
        </mxCell>
        <mxCell id="bwzxpeLL0tZI7nzM4r0u-50" style="edgeStyle=orthogonalEdgeStyle;rounded=0;orthogonalLoop=1;jettySize=auto;html=1;exitX=1;exitY=0.5;exitDx=0;exitDy=0;entryX=0.5;entryY=0;entryDx=0;entryDy=0;" parent="1" source="bwzxpeLL0tZI7nzM4r0u-48" target="bwzxpeLL0tZI7nzM4r0u-49" edge="1">
          <mxGeometry relative="1" as="geometry" />
        </mxCell>
        <mxCell id="bwzxpeLL0tZI7nzM4r0u-53" style="edgeStyle=orthogonalEdgeStyle;rounded=0;orthogonalLoop=1;jettySize=auto;html=1;exitX=0.5;exitY=1;exitDx=0;exitDy=0;entryX=0.5;entryY=0;entryDx=0;entryDy=0;" parent="1" source="bwzxpeLL0tZI7nzM4r0u-48" target="bwzxpeLL0tZI7nzM4r0u-52" edge="1">
          <mxGeometry relative="1" as="geometry" />
        </mxCell>
        <mxCell id="bwzxpeLL0tZI7nzM4r0u-48" value="&lt;font style=&quot;font-size: 15px;&quot;&gt;Value 为浮点类型&lt;/font&gt;" style="rhombus;whiteSpace=wrap;html=1;" parent="1" vertex="1">
          <mxGeometry x="310" y="3980" width="190" height="80" as="geometry" />
        </mxCell>
        <mxCell id="bwzxpeLL0tZI7nzM4r0u-49" value="&lt;font style=&quot;font-size: 16px;&quot;&gt;生成&lt;br&gt;FloatCompareOp、&lt;br&gt;FloatBranchOp&lt;/font&gt;" style="rounded=1;whiteSpace=wrap;html=1;" parent="1" vertex="1">
          <mxGeometry x="511" y="4220" width="178" height="80" as="geometry" />
        </mxCell>
        <mxCell id="bwzxpeLL0tZI7nzM4r0u-56" style="edgeStyle=orthogonalEdgeStyle;rounded=0;orthogonalLoop=1;jettySize=auto;html=1;exitX=0.5;exitY=1;exitDx=0;exitDy=0;entryX=0.5;entryY=0;entryDx=0;entryDy=0;" parent="1" source="bwzxpeLL0tZI7nzM4r0u-52" target="bwzxpeLL0tZI7nzM4r0u-54" edge="1">
          <mxGeometry relative="1" as="geometry" />
        </mxCell>
        <mxCell id="bwzxpeLL0tZI7nzM4r0u-58" style="edgeStyle=orthogonalEdgeStyle;rounded=0;orthogonalLoop=1;jettySize=auto;html=1;exitX=0;exitY=0.5;exitDx=0;exitDy=0;entryX=0.5;entryY=0;entryDx=0;entryDy=0;" parent="1" source="bwzxpeLL0tZI7nzM4r0u-52" target="bwzxpeLL0tZI7nzM4r0u-57" edge="1">
          <mxGeometry relative="1" as="geometry" />
        </mxCell>
        <mxCell id="bwzxpeLL0tZI7nzM4r0u-52" value="&lt;font style=&quot;font-size: 15px;&quot;&gt;存在常量且为0&lt;/font&gt;" style="rhombus;whiteSpace=wrap;html=1;" parent="1" vertex="1">
          <mxGeometry x="310" y="4091" width="190" height="80" as="geometry" />
        </mxCell>
        <mxCell id="bwzxpeLL0tZI7nzM4r0u-54" value="&lt;font style=&quot;font-size: 16px;&quot;&gt;生成&lt;br&gt;CompareBranchOp&lt;/font&gt;" style="rounded=1;whiteSpace=wrap;html=1;" parent="1" vertex="1">
          <mxGeometry x="315" y="4220" width="178" height="80" as="geometry" />
        </mxCell>
        <mxCell id="bwzxpeLL0tZI7nzM4r0u-57" value="&lt;font style=&quot;font-size: 16px;&quot;&gt;生成&lt;br&gt;CompareBranchZeroOp&lt;/font&gt;" style="rounded=1;whiteSpace=wrap;html=1;" parent="1" vertex="1">
          <mxGeometry x="121" y="4220" width="178" height="80" as="geometry" />
        </mxCell>
        <mxCell id="bwzxpeLL0tZI7nzM4r0u-59" value="是" style="text;html=1;align=center;verticalAlign=middle;resizable=0;points=[];autosize=1;strokeColor=none;fillColor=none;fontSize=14;" parent="1" vertex="1">
          <mxGeometry x="490" y="3990" width="40" height="30" as="geometry" />
        </mxCell>
        <mxCell id="bwzxpeLL0tZI7nzM4r0u-60" value="是" style="text;html=1;align=center;verticalAlign=middle;resizable=0;points=[];autosize=1;strokeColor=none;fillColor=none;fontSize=14;" parent="1" vertex="1">
          <mxGeometry x="275" y="4100" width="40" height="30" as="geometry" />
        </mxCell>
        <mxCell id="bwzxpeLL0tZI7nzM4r0u-61" value="否" style="text;html=1;align=center;verticalAlign=middle;resizable=0;points=[];autosize=1;strokeColor=none;fillColor=none;fontSize=14;" parent="1" vertex="1">
          <mxGeometry x="407" y="4170" width="40" height="30" as="geometry" />
        </mxCell>
        <mxCell id="bwzxpeLL0tZI7nzM4r0u-62" value="否" style="text;html=1;align=center;verticalAlign=middle;resizable=0;points=[];autosize=1;strokeColor=none;fillColor=none;fontSize=14;" parent="1" vertex="1">
          <mxGeometry x="410" y="4061" width="40" height="30" as="geometry" />
        </mxCell>
        <mxCell id="bwzxpeLL0tZI7nzM4r0u-100" style="edgeStyle=orthogonalEdgeStyle;rounded=0;orthogonalLoop=1;jettySize=auto;html=1;exitX=0;exitY=0.5;exitDx=0;exitDy=0;entryX=0;entryY=0.5;entryDx=0;entryDy=0;curved=1;" parent="1" source="bwzxpeLL0tZI7nzM4r0u-63" target="bwzxpeLL0tZI7nzM4r0u-66" edge="1">
          <mxGeometry relative="1" as="geometry">
            <Array as="points">
              <mxPoint x="110" y="4770" />
              <mxPoint x="110" y="4970" />
            </Array>
          </mxGeometry>
        </mxCell>
        <mxCell id="bwzxpeLL0tZI7nzM4r0u-63" value="&lt;font style=&quot;font-size: 16px;&quot;&gt;CompareBranch&lt;/font&gt;" style="rounded=0;whiteSpace=wrap;html=1;fillColor=#dae8fc;strokeColor=default;" parent="1" vertex="1">
          <mxGeometry x="161.75" y="4750" width="132" height="40" as="geometry" />
        </mxCell>
        <mxCell id="bwzxpeLL0tZI7nzM4r0u-64" value="&lt;font style=&quot;font-size: 16px;&quot;&gt;TrueTarget&lt;/font&gt;" style="rounded=0;whiteSpace=wrap;html=1;fillColor=#ffe6cc;strokeColor=default;" parent="1" vertex="1">
          <mxGeometry x="161.75" y="4790" width="132" height="40" as="geometry" />
        </mxCell>
        <mxCell id="bwzxpeLL0tZI7nzM4r0u-65" value="&lt;font style=&quot;font-size: 21px;&quot;&gt;&lt;b style=&quot;&quot;&gt;...&lt;/b&gt;&lt;/font&gt;" style="rounded=0;whiteSpace=wrap;html=1;fillColor=#f5f5f5;fontColor=#333333;strokeColor=default;" parent="1" vertex="1">
          <mxGeometry x="161.75" y="4830" width="132" height="120" as="geometry" />
        </mxCell>
        <mxCell id="bwzxpeLL0tZI7nzM4r0u-66" value="&lt;font style=&quot;font-size: 16px;&quot;&gt;FalseTarget&lt;/font&gt;" style="rounded=0;whiteSpace=wrap;html=1;fillColor=#fff2cc;strokeColor=default;" parent="1" vertex="1">
          <mxGeometry x="161.75" y="4950" width="132" height="40" as="geometry" />
        </mxCell>
        <mxCell id="bwzxpeLL0tZI7nzM4r0u-67" value="&lt;font style=&quot;font-size: 21px;&quot;&gt;&lt;b style=&quot;&quot;&gt;...&lt;/b&gt;&lt;/font&gt;" style="rounded=0;whiteSpace=wrap;html=1;fillColor=#f5f5f5;fontColor=#333333;strokeColor=default;" parent="1" vertex="1">
          <mxGeometry x="161.75" y="4990" width="132" height="40" as="geometry" />
        </mxCell>
        <mxCell id="bwzxpeLL0tZI7nzM4r0u-70" value="&lt;font style=&quot;font-size: 16px;&quot;&gt;Low Address&lt;/font&gt;" style="text;html=1;align=center;verticalAlign=middle;resizable=0;points=[];autosize=1;strokeColor=none;fillColor=none;" parent="1" vertex="1">
          <mxGeometry x="155.75" y="4720" width="120" height="30" as="geometry" />
        </mxCell>
        <mxCell id="bwzxpeLL0tZI7nzM4r0u-71" value="&lt;font style=&quot;font-size: 16px;&quot;&gt;High Address&lt;/font&gt;" style="text;html=1;align=center;verticalAlign=middle;resizable=0;points=[];autosize=1;strokeColor=none;fillColor=none;" parent="1" vertex="1">
          <mxGeometry x="155" y="5036" width="120" height="30" as="geometry" />
        </mxCell>
        <mxCell id="bwzxpeLL0tZI7nzM4r0u-72" value="" style="shape=curlyBracket;whiteSpace=wrap;html=1;rounded=1;flipH=1;labelPosition=right;verticalLabelPosition=middle;align=left;verticalAlign=middle;" parent="1" vertex="1">
          <mxGeometry x="305.75" y="4790" width="20" height="80" as="geometry" />
        </mxCell>
        <mxCell id="bwzxpeLL0tZI7nzM4r0u-73" value="&lt;font style=&quot;font-size: 16px;&quot;&gt;Block a&lt;/font&gt;" style="text;html=1;align=center;verticalAlign=middle;resizable=0;points=[];autosize=1;strokeColor=none;fillColor=none;" parent="1" vertex="1">
          <mxGeometry x="322.75" y="4815" width="80" height="30" as="geometry" />
        </mxCell>
        <mxCell id="bwzxpeLL0tZI7nzM4r0u-75" value="" style="shape=curlyBracket;whiteSpace=wrap;html=1;rounded=1;flipH=1;labelPosition=right;verticalLabelPosition=middle;align=left;verticalAlign=middle;" parent="1" vertex="1">
          <mxGeometry x="300" y="4952" width="20" height="80" as="geometry" />
        </mxCell>
        <mxCell id="bwzxpeLL0tZI7nzM4r0u-76" value="&lt;font style=&quot;font-size: 16px;&quot;&gt;Block b&lt;/font&gt;" style="text;html=1;align=center;verticalAlign=middle;resizable=0;points=[];autosize=1;strokeColor=none;fillColor=none;" parent="1" vertex="1">
          <mxGeometry x="317" y="4977" width="80" height="30" as="geometry" />
        </mxCell>
        <mxCell id="bwzxpeLL0tZI7nzM4r0u-78" style="edgeStyle=orthogonalEdgeStyle;rounded=0;orthogonalLoop=1;jettySize=auto;html=1;" parent="1" source="bwzxpeLL0tZI7nzM4r0u-77" edge="1">
          <mxGeometry relative="1" as="geometry">
            <mxPoint x="146.74999999999977" y="4765" as="targetPoint" />
          </mxGeometry>
        </mxCell>
        <mxCell id="bwzxpeLL0tZI7nzM4r0u-77" value="&lt;font style=&quot;font-size: 16px;&quot;&gt;&lt;b style=&quot;&quot;&gt;PC&lt;/b&gt;&lt;/font&gt;" style="text;html=1;align=center;verticalAlign=middle;resizable=0;points=[];autosize=1;strokeColor=none;fillColor=none;" parent="1" vertex="1">
          <mxGeometry x="51.75" y="4750" width="50" height="30" as="geometry" />
        </mxCell>
        <mxCell id="bwzxpeLL0tZI7nzM4r0u-97" style="edgeStyle=orthogonalEdgeStyle;rounded=0;orthogonalLoop=1;jettySize=auto;html=1;exitX=0;exitY=0.5;exitDx=0;exitDy=0;entryX=0;entryY=0.5;entryDx=0;entryDy=0;curved=1;" parent="1" source="bwzxpeLL0tZI7nzM4r0u-80" target="bwzxpeLL0tZI7nzM4r0u-81" edge="1">
          <mxGeometry relative="1" as="geometry">
            <Array as="points">
              <mxPoint x="490" y="4770" />
              <mxPoint x="490" y="4890" />
            </Array>
          </mxGeometry>
        </mxCell>
        <mxCell id="bwzxpeLL0tZI7nzM4r0u-80" value="&lt;font style=&quot;font-size: 16px;&quot;&gt;CompareBranch&lt;/font&gt;" style="rounded=0;whiteSpace=wrap;html=1;fillColor=#dae8fc;strokeColor=default;" parent="1" vertex="1">
          <mxGeometry x="531.75" y="4750" width="132" height="40" as="geometry" />
        </mxCell>
        <mxCell id="bwzxpeLL0tZI7nzM4r0u-81" value="&lt;font style=&quot;font-size: 16px;&quot;&gt;TrueTarget&lt;/font&gt;" style="rounded=0;whiteSpace=wrap;html=1;fillColor=#ffe6cc;strokeColor=default;" parent="1" vertex="1">
          <mxGeometry x="531.75" y="4870" width="132" height="40" as="geometry" />
        </mxCell>
        <mxCell id="bwzxpeLL0tZI7nzM4r0u-82" value="&lt;font style=&quot;font-size: 21px;&quot;&gt;&lt;b style=&quot;&quot;&gt;...&lt;/b&gt;&lt;/font&gt;" style="rounded=0;whiteSpace=wrap;html=1;fillColor=#f5f5f5;fontColor=#333333;strokeColor=default;" parent="1" vertex="1">
          <mxGeometry x="531.75" y="4910" width="132" height="40" as="geometry" />
        </mxCell>
        <mxCell id="bwzxpeLL0tZI7nzM4r0u-83" value="&lt;font style=&quot;font-size: 16px;&quot;&gt;FalseTarget&lt;/font&gt;" style="rounded=0;whiteSpace=wrap;html=1;fillColor=#fff2cc;strokeColor=default;" parent="1" vertex="1">
          <mxGeometry x="531.75" y="4950" width="132" height="40" as="geometry" />
        </mxCell>
        <mxCell id="bwzxpeLL0tZI7nzM4r0u-84" value="&lt;font style=&quot;font-size: 21px;&quot;&gt;&lt;b style=&quot;&quot;&gt;...&lt;/b&gt;&lt;/font&gt;" style="rounded=0;whiteSpace=wrap;html=1;fillColor=#f5f5f5;fontColor=#333333;strokeColor=default;" parent="1" vertex="1">
          <mxGeometry x="531.75" y="4990" width="132" height="40" as="geometry" />
        </mxCell>
        <mxCell id="bwzxpeLL0tZI7nzM4r0u-85" value="&lt;font style=&quot;font-size: 16px;&quot;&gt;Low Address&lt;/font&gt;" style="text;html=1;align=center;verticalAlign=middle;resizable=0;points=[];autosize=1;strokeColor=none;fillColor=none;" parent="1" vertex="1">
          <mxGeometry x="525.25" y="4720" width="120" height="30" as="geometry" />
        </mxCell>
        <mxCell id="bwzxpeLL0tZI7nzM4r0u-86" value="&lt;font style=&quot;font-size: 16px;&quot;&gt;High Address&lt;/font&gt;" style="text;html=1;align=center;verticalAlign=middle;resizable=0;points=[];autosize=1;strokeColor=none;fillColor=none;" parent="1" vertex="1">
          <mxGeometry x="531.75" y="5036" width="120" height="30" as="geometry" />
        </mxCell>
        <mxCell id="bwzxpeLL0tZI7nzM4r0u-87" value="" style="shape=curlyBracket;whiteSpace=wrap;html=1;rounded=1;flipH=1;labelPosition=right;verticalLabelPosition=middle;align=left;verticalAlign=middle;" parent="1" vertex="1">
          <mxGeometry x="671.75" y="4870" width="20" height="80" as="geometry" />
        </mxCell>
        <mxCell id="bwzxpeLL0tZI7nzM4r0u-88" value="&lt;font style=&quot;font-size: 16px;&quot;&gt;Block a&lt;/font&gt;" style="text;html=1;align=center;verticalAlign=middle;resizable=0;points=[];autosize=1;strokeColor=none;fillColor=none;" parent="1" vertex="1">
          <mxGeometry x="688.75" y="4895" width="80" height="30" as="geometry" />
        </mxCell>
        <mxCell id="bwzxpeLL0tZI7nzM4r0u-89" value="" style="shape=curlyBracket;whiteSpace=wrap;html=1;rounded=1;flipH=1;labelPosition=right;verticalLabelPosition=middle;align=left;verticalAlign=middle;" parent="1" vertex="1">
          <mxGeometry x="671.75" y="4950" width="20" height="80" as="geometry" />
        </mxCell>
        <mxCell id="bwzxpeLL0tZI7nzM4r0u-90" value="&lt;font style=&quot;font-size: 16px;&quot;&gt;Block b&lt;/font&gt;" style="text;html=1;align=center;verticalAlign=middle;resizable=0;points=[];autosize=1;strokeColor=none;fillColor=none;" parent="1" vertex="1">
          <mxGeometry x="688.75" y="4975" width="80" height="30" as="geometry" />
        </mxCell>
        <mxCell id="bwzxpeLL0tZI7nzM4r0u-91" style="edgeStyle=orthogonalEdgeStyle;rounded=0;orthogonalLoop=1;jettySize=auto;html=1;" parent="1" source="bwzxpeLL0tZI7nzM4r0u-92" edge="1">
          <mxGeometry relative="1" as="geometry">
            <mxPoint x="516.2499999999998" y="4765" as="targetPoint" />
          </mxGeometry>
        </mxCell>
        <mxCell id="bwzxpeLL0tZI7nzM4r0u-92" value="&lt;font style=&quot;font-size: 16px;&quot;&gt;&lt;b style=&quot;&quot;&gt;PC&lt;/b&gt;&lt;/font&gt;" style="text;html=1;align=center;verticalAlign=middle;resizable=0;points=[];autosize=1;strokeColor=none;fillColor=none;" parent="1" vertex="1">
          <mxGeometry x="421.25" y="4750" width="50" height="30" as="geometry" />
        </mxCell>
        <mxCell id="bwzxpeLL0tZI7nzM4r0u-93" value="&lt;font style=&quot;font-size: 21px;&quot;&gt;&lt;b style=&quot;&quot;&gt;...&lt;/b&gt;&lt;/font&gt;" style="rounded=0;whiteSpace=wrap;html=1;fillColor=#f5f5f5;fontColor=#333333;strokeColor=default;" parent="1" vertex="1">
          <mxGeometry x="531.75" y="4830" width="132" height="40" as="geometry" />
        </mxCell>
        <mxCell id="bwzxpeLL0tZI7nzM4r0u-99" style="edgeStyle=orthogonalEdgeStyle;rounded=0;orthogonalLoop=1;jettySize=auto;html=1;exitX=0;exitY=0.5;exitDx=0;exitDy=0;entryX=0;entryY=0.5;entryDx=0;entryDy=0;curved=1;" parent="1" source="bwzxpeLL0tZI7nzM4r0u-94" target="bwzxpeLL0tZI7nzM4r0u-83" edge="1">
          <mxGeometry relative="1" as="geometry">
            <Array as="points">
              <mxPoint x="490" y="4810" />
              <mxPoint x="490" y="4970" />
            </Array>
          </mxGeometry>
        </mxCell>
        <mxCell id="bwzxpeLL0tZI7nzM4r0u-94" value="&lt;font style=&quot;font-size: 16px;&quot;&gt;Jmp&lt;/font&gt;" style="rounded=0;whiteSpace=wrap;html=1;fillColor=#d5e8d4;strokeColor=default;" parent="1" vertex="1">
          <mxGeometry x="531.75" y="4790" width="132" height="40" as="geometry" />
        </mxCell>
        <mxCell id="bwzxpeLL0tZI7nzM4r0u-122" style="edgeStyle=orthogonalEdgeStyle;rounded=0;orthogonalLoop=1;jettySize=auto;html=1;exitX=0.5;exitY=1;exitDx=0;exitDy=0;entryX=0.5;entryY=0;entryDx=0;entryDy=0;" parent="1" source="bwzxpeLL0tZI7nzM4r0u-101" target="bwzxpeLL0tZI7nzM4r0u-106" edge="1">
          <mxGeometry relative="1" as="geometry" />
        </mxCell>
        <mxCell id="bwzxpeLL0tZI7nzM4r0u-101" value="&lt;font style=&quot;font-size: 14px;&quot;&gt;Graal IR转换为 LIR Instruction序列&lt;/font&gt;" style="rounded=1;whiteSpace=wrap;html=1;" parent="1" vertex="1">
          <mxGeometry x="344" y="5100" width="120" height="60" as="geometry" />
        </mxCell>
        <mxCell id="bwzxpeLL0tZI7nzM4r0u-120" style="edgeStyle=orthogonalEdgeStyle;rounded=0;orthogonalLoop=1;jettySize=auto;html=1;exitX=0.5;exitY=1;exitDx=0;exitDy=0;entryX=0.5;entryY=0;entryDx=0;entryDy=0;" parent="1" source="bwzxpeLL0tZI7nzM4r0u-104" target="bwzxpeLL0tZI7nzM4r0u-105" edge="1">
          <mxGeometry relative="1" as="geometry" />
        </mxCell>
        <mxCell id="bwzxpeLL0tZI7nzM4r0u-104" value="&lt;font style=&quot;font-size: 14px;&quot;&gt;LIR Instruction&lt;br&gt;释放目标架构机器码&lt;/font&gt;" style="rounded=0;whiteSpace=wrap;html=1;" parent="1" vertex="1">
          <mxGeometry x="336" y="5280" width="133" height="60" as="geometry" />
        </mxCell>
        <mxCell id="bwzxpeLL0tZI7nzM4r0u-119" style="edgeStyle=orthogonalEdgeStyle;rounded=0;orthogonalLoop=1;jettySize=auto;html=1;exitX=0.5;exitY=1;exitDx=0;exitDy=0;entryX=0.5;entryY=0;entryDx=0;entryDy=0;" parent="1" source="bwzxpeLL0tZI7nzM4r0u-105" target="bwzxpeLL0tZI7nzM4r0u-110" edge="1">
          <mxGeometry relative="1" as="geometry" />
        </mxCell>
        <mxCell id="bwzxpeLL0tZI7nzM4r0u-105" value="&lt;span style=&quot;font-size: 14px;&quot;&gt;比较跳转目标为&lt;br&gt;未绑定Label&lt;/span&gt;" style="rounded=0;whiteSpace=wrap;html=1;" parent="1" vertex="1">
          <mxGeometry x="336" y="5370" width="133" height="60" as="geometry" />
        </mxCell>
        <mxCell id="bwzxpeLL0tZI7nzM4r0u-121" style="edgeStyle=orthogonalEdgeStyle;rounded=0;orthogonalLoop=1;jettySize=auto;html=1;exitX=0.5;exitY=1;exitDx=0;exitDy=0;entryX=0.5;entryY=0;entryDx=0;entryDy=0;" parent="1" source="bwzxpeLL0tZI7nzM4r0u-106" target="bwzxpeLL0tZI7nzM4r0u-104" edge="1">
          <mxGeometry relative="1" as="geometry" />
        </mxCell>
        <mxCell id="bwzxpeLL0tZI7nzM4r0u-106" value="&lt;span style=&quot;font-size: 14px;&quot;&gt;开启预测&lt;/span&gt;" style="rounded=0;whiteSpace=wrap;html=1;" parent="1" vertex="1">
          <mxGeometry x="335" y="5190" width="135" height="60" as="geometry" />
        </mxCell>
        <mxCell id="bwzxpeLL0tZI7nzM4r0u-116" style="edgeStyle=orthogonalEdgeStyle;rounded=0;orthogonalLoop=1;jettySize=auto;html=1;exitX=0.5;exitY=1;exitDx=0;exitDy=0;entryX=0.5;entryY=0;entryDx=0;entryDy=0;" parent="1" source="bwzxpeLL0tZI7nzM4r0u-107" target="bwzxpeLL0tZI7nzM4r0u-112" edge="1">
          <mxGeometry relative="1" as="geometry" />
        </mxCell>
        <mxCell id="bwzxpeLL0tZI7nzM4r0u-124" style="edgeStyle=orthogonalEdgeStyle;rounded=0;orthogonalLoop=1;jettySize=auto;html=1;exitX=1;exitY=0.5;exitDx=0;exitDy=0;entryX=0.5;entryY=1;entryDx=0;entryDy=0;" parent="1" source="bwzxpeLL0tZI7nzM4r0u-107" target="bwzxpeLL0tZI7nzM4r0u-108" edge="1">
          <mxGeometry relative="1" as="geometry" />
        </mxCell>
        <mxCell id="bwzxpeLL0tZI7nzM4r0u-107" value="&lt;font style=&quot;font-size: 14px;&quot;&gt;预测全部成功？&lt;/font&gt;" style="rhombus;whiteSpace=wrap;html=1;" parent="1" vertex="1">
          <mxGeometry x="340" y="5640" width="130" height="80" as="geometry" />
        </mxCell>
        <mxCell id="bwzxpeLL0tZI7nzM4r0u-125" style="edgeStyle=orthogonalEdgeStyle;rounded=0;orthogonalLoop=1;jettySize=auto;html=1;exitX=0.5;exitY=0;exitDx=0;exitDy=0;entryX=0.5;entryY=1;entryDx=0;entryDy=0;" parent="1" source="bwzxpeLL0tZI7nzM4r0u-108" target="bwzxpeLL0tZI7nzM4r0u-109" edge="1">
          <mxGeometry relative="1" as="geometry" />
        </mxCell>
        <mxCell id="bwzxpeLL0tZI7nzM4r0u-108" value="&lt;span style=&quot;font-size: 14px;&quot;&gt;清空当前已生成的代码和编译信息&lt;/span&gt;" style="rounded=0;whiteSpace=wrap;html=1;" parent="1" vertex="1">
          <mxGeometry x="513.75" y="5370" width="133" height="60" as="geometry" />
        </mxCell>
        <mxCell id="bwzxpeLL0tZI7nzM4r0u-126" style="edgeStyle=orthogonalEdgeStyle;rounded=0;orthogonalLoop=1;jettySize=auto;html=1;exitX=0.5;exitY=0;exitDx=0;exitDy=0;entryX=0.5;entryY=0;entryDx=0;entryDy=0;" parent="1" source="bwzxpeLL0tZI7nzM4r0u-109" target="bwzxpeLL0tZI7nzM4r0u-104" edge="1">
          <mxGeometry relative="1" as="geometry" />
        </mxCell>
        <mxCell id="bwzxpeLL0tZI7nzM4r0u-109" value="&lt;span style=&quot;font-size: 14px;&quot;&gt;关闭预测&lt;/span&gt;" style="rounded=0;whiteSpace=wrap;html=1;" parent="1" vertex="1">
          <mxGeometry x="513" y="5280" width="133" height="60" as="geometry" />
        </mxCell>
        <mxCell id="bwzxpeLL0tZI7nzM4r0u-114" style="edgeStyle=orthogonalEdgeStyle;rounded=0;orthogonalLoop=1;jettySize=auto;html=1;exitX=0;exitY=0.5;exitDx=0;exitDy=0;entryX=0.5;entryY=0;entryDx=0;entryDy=0;" parent="1" source="bwzxpeLL0tZI7nzM4r0u-110" target="bwzxpeLL0tZI7nzM4r0u-113" edge="1">
          <mxGeometry relative="1" as="geometry" />
        </mxCell>
        <mxCell id="bwzxpeLL0tZI7nzM4r0u-118" style="edgeStyle=orthogonalEdgeStyle;rounded=0;orthogonalLoop=1;jettySize=auto;html=1;exitX=0.5;exitY=1;exitDx=0;exitDy=0;entryX=0.5;entryY=0;entryDx=0;entryDy=0;" parent="1" source="bwzxpeLL0tZI7nzM4r0u-110" target="bwzxpeLL0tZI7nzM4r0u-111" edge="1">
          <mxGeometry relative="1" as="geometry" />
        </mxCell>
        <mxCell id="bwzxpeLL0tZI7nzM4r0u-110" value="&lt;font style=&quot;font-size: 14px;&quot;&gt;是否开启预测？&lt;/font&gt;" style="rhombus;whiteSpace=wrap;html=1;" parent="1" vertex="1">
          <mxGeometry x="340" y="5460" width="130" height="80" as="geometry" />
        </mxCell>
        <mxCell id="bwzxpeLL0tZI7nzM4r0u-117" style="edgeStyle=orthogonalEdgeStyle;rounded=0;orthogonalLoop=1;jettySize=auto;html=1;exitX=0.5;exitY=1;exitDx=0;exitDy=0;entryX=0.5;entryY=0;entryDx=0;entryDy=0;" parent="1" source="bwzxpeLL0tZI7nzM4r0u-111" target="bwzxpeLL0tZI7nzM4r0u-107" edge="1">
          <mxGeometry relative="1" as="geometry" />
        </mxCell>
        <mxCell id="bwzxpeLL0tZI7nzM4r0u-111" value="&lt;span style=&quot;font-size: 14px;&quot;&gt;根据预测结果&lt;br&gt;生成长短跳转&lt;/span&gt;" style="rounded=0;whiteSpace=wrap;html=1;" parent="1" vertex="1">
          <mxGeometry x="337.5" y="5560" width="133" height="60" as="geometry" />
        </mxCell>
        <mxCell id="bwzxpeLL0tZI7nzM4r0u-112" value="&lt;span style=&quot;font-size: 14px;&quot;&gt;返回编译结果&lt;/span&gt;" style="rounded=1;whiteSpace=wrap;html=1;" parent="1" vertex="1">
          <mxGeometry x="345" y="5750" width="120" height="60" as="geometry" />
        </mxCell>
        <mxCell id="bwzxpeLL0tZI7nzM4r0u-115" style="edgeStyle=orthogonalEdgeStyle;rounded=0;orthogonalLoop=1;jettySize=auto;html=1;exitX=0.5;exitY=1;exitDx=0;exitDy=0;entryX=0;entryY=0.5;entryDx=0;entryDy=0;" parent="1" source="bwzxpeLL0tZI7nzM4r0u-113" target="bwzxpeLL0tZI7nzM4r0u-112" edge="1">
          <mxGeometry relative="1" as="geometry" />
        </mxCell>
        <mxCell id="bwzxpeLL0tZI7nzM4r0u-113" value="&lt;span style=&quot;font-size: 14px;&quot;&gt;生成长跳转&lt;/span&gt;" style="rounded=0;whiteSpace=wrap;html=1;" parent="1" vertex="1">
          <mxGeometry x="155.75" y="5560" width="133" height="60" as="geometry" />
        </mxCell>
        <mxCell id="PJVBHD5AMoMqWCpHGdgi-24" style="edgeStyle=orthogonalEdgeStyle;rounded=0;orthogonalLoop=1;jettySize=auto;html=1;exitX=0.5;exitY=0;exitDx=0;exitDy=0;entryX=0.5;entryY=1;entryDx=0;entryDy=0;curved=1;endArrow=block;endFill=0;" parent="1" source="PJVBHD5AMoMqWCpHGdgi-7" target="PJVBHD5AMoMqWCpHGdgi-8" edge="1">
          <mxGeometry relative="1" as="geometry" />
        </mxCell>
        <mxCell id="PJVBHD5AMoMqWCpHGdgi-25" style="edgeStyle=orthogonalEdgeStyle;rounded=0;orthogonalLoop=1;jettySize=auto;html=1;exitX=0.5;exitY=0;exitDx=0;exitDy=0;entryX=0.5;entryY=1;entryDx=0;entryDy=0;curved=1;endArrow=block;endFill=0;" parent="1" source="PJVBHD5AMoMqWCpHGdgi-7" target="PJVBHD5AMoMqWCpHGdgi-9" edge="1">
          <mxGeometry relative="1" as="geometry" />
        </mxCell>
        <mxCell id="PJVBHD5AMoMqWCpHGdgi-26" style="edgeStyle=orthogonalEdgeStyle;rounded=0;orthogonalLoop=1;jettySize=auto;html=1;exitX=0.49;exitY=0;exitDx=0;exitDy=0;entryX=0.5;entryY=1;entryDx=0;entryDy=0;curved=1;endArrow=block;endFill=0;exitPerimeter=0;" parent="1" source="PJVBHD5AMoMqWCpHGdgi-7" target="PJVBHD5AMoMqWCpHGdgi-13" edge="1">
          <mxGeometry relative="1" as="geometry" />
        </mxCell>
        <mxCell id="PJVBHD5AMoMqWCpHGdgi-32" style="edgeStyle=orthogonalEdgeStyle;rounded=0;orthogonalLoop=1;jettySize=auto;html=1;exitX=0.5;exitY=1;exitDx=0;exitDy=0;entryX=0.5;entryY=0;entryDx=0;entryDy=0;curved=1;strokeColor=#FF0000;" parent="1" source="PJVBHD5AMoMqWCpHGdgi-7" target="PJVBHD5AMoMqWCpHGdgi-21" edge="1">
          <mxGeometry relative="1" as="geometry" />
        </mxCell>
        <mxCell id="PJVBHD5AMoMqWCpHGdgi-33" style="edgeStyle=orthogonalEdgeStyle;rounded=0;orthogonalLoop=1;jettySize=auto;html=1;exitX=0.5;exitY=1;exitDx=0;exitDy=0;entryX=0.5;entryY=0;entryDx=0;entryDy=0;curved=1;strokeColor=#FF0000;" parent="1" source="PJVBHD5AMoMqWCpHGdgi-7" target="PJVBHD5AMoMqWCpHGdgi-20" edge="1">
          <mxGeometry relative="1" as="geometry">
            <Array as="points">
              <mxPoint x="411" y="6220" />
              <mxPoint x="282" y="6220" />
            </Array>
          </mxGeometry>
        </mxCell>
        <mxCell id="PJVBHD5AMoMqWCpHGdgi-34" style="edgeStyle=orthogonalEdgeStyle;rounded=0;orthogonalLoop=1;jettySize=auto;html=1;exitX=0.5;exitY=1;exitDx=0;exitDy=0;entryX=0.5;entryY=0;entryDx=0;entryDy=0;curved=1;strokeColor=#FF0000;" parent="1" source="PJVBHD5AMoMqWCpHGdgi-7" target="PJVBHD5AMoMqWCpHGdgi-14" edge="1">
          <mxGeometry relative="1" as="geometry" />
        </mxCell>
        <mxCell id="PJVBHD5AMoMqWCpHGdgi-36" style="edgeStyle=orthogonalEdgeStyle;rounded=0;orthogonalLoop=1;jettySize=auto;html=1;exitX=0.5;exitY=1;exitDx=0;exitDy=0;curved=1;strokeColor=#FF0000;" parent="1" source="PJVBHD5AMoMqWCpHGdgi-7" edge="1">
          <mxGeometry relative="1" as="geometry">
            <mxPoint x="630" y="6250" as="targetPoint" />
          </mxGeometry>
        </mxCell>
        <mxCell id="PJVBHD5AMoMqWCpHGdgi-37" style="edgeStyle=orthogonalEdgeStyle;rounded=0;orthogonalLoop=1;jettySize=auto;html=1;exitX=0.5;exitY=1;exitDx=0;exitDy=0;entryX=0.5;entryY=0;entryDx=0;entryDy=0;curved=1;strokeColor=#FF0000;" parent="1" source="PJVBHD5AMoMqWCpHGdgi-7" target="PJVBHD5AMoMqWCpHGdgi-31" edge="1">
          <mxGeometry relative="1" as="geometry">
            <Array as="points">
              <mxPoint x="411" y="6220" />
              <mxPoint x="532" y="6220" />
            </Array>
          </mxGeometry>
        </mxCell>
        <mxCell id="3uFvsSg2rkh7UaSVAgNL-7" style="edgeStyle=orthogonalEdgeStyle;rounded=0;orthogonalLoop=1;jettySize=auto;html=1;exitX=0.423;exitY=-0.058;exitDx=0;exitDy=0;curved=1;strokeColor=#FF3333;endArrow=none;endFill=1;startArrow=block;startFill=1;exitPerimeter=0;" parent="1" source="PJVBHD5AMoMqWCpHGdgi-7" edge="1">
          <mxGeometry relative="1" as="geometry">
            <mxPoint x="150" y="6090" as="targetPoint" />
            <Array as="points">
              <mxPoint x="402" y="6120" />
              <mxPoint x="150" y="6120" />
            </Array>
          </mxGeometry>
        </mxCell>
        <mxCell id="PJVBHD5AMoMqWCpHGdgi-7" value="&lt;font style=&quot;font-size: 16px;&quot;&gt;Switch Node&lt;/font&gt;" style="rounded=0;whiteSpace=wrap;html=1;" parent="1" vertex="1">
          <mxGeometry x="351.25" y="6140" width="120" height="40" as="geometry" />
        </mxCell>
        <mxCell id="PJVBHD5AMoMqWCpHGdgi-8" value="&lt;span style=&quot;font-size: 16px;&quot;&gt;Keys&lt;/span&gt;" style="rounded=0;whiteSpace=wrap;html=1;" parent="1" vertex="1">
          <mxGeometry x="232.75" y="6040" width="90" height="50" as="geometry" />
        </mxCell>
        <mxCell id="PJVBHD5AMoMqWCpHGdgi-9" value="&lt;span style=&quot;font-size: 16px;&quot;&gt;Indices&lt;/span&gt;" style="rounded=0;whiteSpace=wrap;html=1;" parent="1" vertex="1">
          <mxGeometry x="366.25" y="6040" width="90" height="50" as="geometry" />
        </mxCell>
        <mxCell id="PJVBHD5AMoMqWCpHGdgi-13" value="&lt;span style=&quot;font-size: 16px;&quot;&gt;&amp;nbsp;Probabilities&lt;/span&gt;" style="rounded=0;whiteSpace=wrap;html=1;" parent="1" vertex="1">
          <mxGeometry x="497" y="6040" width="103" height="50" as="geometry" />
        </mxCell>
        <mxCell id="PJVBHD5AMoMqWCpHGdgi-14" value="&lt;span style=&quot;font-size: 16px;&quot;&gt;Successor 1&lt;/span&gt;" style="rounded=0;whiteSpace=wrap;html=1;" parent="1" vertex="1">
          <mxGeometry x="101.75" y="6250" width="100" height="50" as="geometry" />
        </mxCell>
        <mxCell id="PJVBHD5AMoMqWCpHGdgi-18" style="edgeStyle=orthogonalEdgeStyle;rounded=0;orthogonalLoop=1;jettySize=auto;html=1;exitX=0.5;exitY=1;exitDx=0;exitDy=0;entryX=0.423;entryY=-0.03;entryDx=0;entryDy=0;entryPerimeter=0;curved=1;endArrow=block;endFill=1;strokeColor=#FF0000;strokeWidth=1;endSize=6;" parent="1" source="bwzxpeLL0tZI7nzM4r0u-27" target="bwzxpeLL0tZI7nzM4r0u-34" edge="1">
          <mxGeometry relative="1" as="geometry" />
        </mxCell>
        <mxCell id="PJVBHD5AMoMqWCpHGdgi-20" value="&lt;span style=&quot;font-size: 16px;&quot;&gt;Successor 2&lt;/span&gt;" style="rounded=0;whiteSpace=wrap;html=1;" parent="1" vertex="1">
          <mxGeometry x="232" y="6250" width="100" height="50" as="geometry" />
        </mxCell>
        <mxCell id="PJVBHD5AMoMqWCpHGdgi-21" value="&lt;span style=&quot;font-size: 16px;&quot;&gt;Successor 3&lt;/span&gt;" style="rounded=0;whiteSpace=wrap;html=1;" parent="1" vertex="1">
          <mxGeometry x="361.25" y="6250" width="100" height="50" as="geometry" />
        </mxCell>
        <mxCell id="PJVBHD5AMoMqWCpHGdgi-22" value="&lt;font style=&quot;font-size: 22px;&quot;&gt;&lt;b style=&quot;&quot;&gt;...&lt;/b&gt;&lt;/font&gt;" style="text;html=1;align=center;verticalAlign=middle;resizable=0;points=[];autosize=1;strokeColor=none;fillColor=none;" parent="1" vertex="1">
          <mxGeometry x="611.75" y="6255" width="40" height="40" as="geometry" />
        </mxCell>
        <mxCell id="PJVBHD5AMoMqWCpHGdgi-31" value="&lt;span style=&quot;font-size: 16px;&quot;&gt;Successor 4&lt;/span&gt;" style="rounded=0;whiteSpace=wrap;html=1;" parent="1" vertex="1">
          <mxGeometry x="482" y="6250" width="100" height="50" as="geometry" />
        </mxCell>
        <mxCell id="3uFvsSg2rkh7UaSVAgNL-1" value="&lt;font style=&quot;font-size: 14px;&quot;&gt;否&lt;/font&gt;" style="text;html=1;align=center;verticalAlign=middle;resizable=0;points=[];autosize=1;strokeColor=none;fillColor=none;" parent="1" vertex="1">
          <mxGeometry x="306" y="5470" width="40" height="30" as="geometry" />
        </mxCell>
        <mxCell id="3uFvsSg2rkh7UaSVAgNL-2" value="&lt;font style=&quot;font-size: 14px;&quot;&gt;否&lt;/font&gt;" style="text;html=1;align=center;verticalAlign=middle;resizable=0;points=[];autosize=1;strokeColor=none;fillColor=none;" parent="1" vertex="1">
          <mxGeometry x="459" y="5650" width="40" height="30" as="geometry" />
        </mxCell>
        <mxCell id="3uFvsSg2rkh7UaSVAgNL-3" value="&lt;font style=&quot;font-size: 14px;&quot;&gt;是&lt;/font&gt;" style="text;html=1;align=center;verticalAlign=middle;resizable=0;points=[];autosize=1;strokeColor=none;fillColor=none;" parent="1" vertex="1">
          <mxGeometry x="407" y="5720" width="40" height="30" as="geometry" />
        </mxCell>
        <mxCell id="3uFvsSg2rkh7UaSVAgNL-4" value="&lt;font style=&quot;font-size: 14px;&quot;&gt;是&lt;/font&gt;" style="text;html=1;align=center;verticalAlign=middle;resizable=0;points=[];autosize=1;strokeColor=none;fillColor=none;" parent="1" vertex="1">
          <mxGeometry x="407" y="5530" width="40" height="30" as="geometry" />
        </mxCell>
        <mxCell id="3uFvsSg2rkh7UaSVAgNL-6" value="&lt;font style=&quot;font-size: 22px;&quot;&gt;&lt;b style=&quot;&quot;&gt;...&lt;/b&gt;&lt;/font&gt;" style="text;html=1;align=center;verticalAlign=middle;resizable=0;points=[];autosize=1;strokeColor=none;fillColor=none;" parent="1" vertex="1">
          <mxGeometry x="131.75" y="6040" width="40" height="40" as="geometry" />
        </mxCell>
        <mxCell id="3uFvsSg2rkh7UaSVAgNL-8" value="&lt;font style=&quot;font-size: 22px;&quot;&gt;&lt;b style=&quot;&quot;&gt;...&lt;/b&gt;&lt;/font&gt;" style="text;html=1;align=center;verticalAlign=middle;resizable=0;points=[];autosize=1;strokeColor=none;fillColor=none;" parent="1" vertex="1">
          <mxGeometry x="671.75" y="3560" width="40" height="40" as="geometry" />
        </mxCell>
        <mxCell id="3uFvsSg2rkh7UaSVAgNL-11" value="&lt;div style=&quot;color: #000000;background-color: #ffffff;font-family: Consolas, &#39;Courier New&#39;, monospace;font-weight: normal;font-size: 18px;line-height: 24px;white-space: pre;&quot;&gt;&lt;div&gt;&lt;span style=&quot;color: #0000ff;&quot;&gt;switch&lt;/span&gt;&lt;span style=&quot;color: #000000;&quot;&gt; (key) {&lt;/span&gt;&lt;/div&gt;&lt;div&gt;&lt;span style=&quot;color: #000000;&quot;&gt;&amp;nbsp; &amp;nbsp; &lt;/span&gt;&lt;span style=&quot;color: #0000ff;&quot;&gt;case&lt;/span&gt;&lt;span style=&quot;color: #000000;&quot;&gt; &lt;/span&gt;&lt;span style=&quot;color: #098658;&quot;&gt;1&lt;/span&gt;&lt;span style=&quot;color: #0000ff;&quot;&gt;:&lt;/span&gt;&lt;/div&gt;&lt;div&gt;&lt;span style=&quot;color: #000000;&quot;&gt;&amp;nbsp; &amp;nbsp; &amp;nbsp; &amp;nbsp; ...&lt;/span&gt;&lt;/div&gt;&lt;div&gt;&lt;span style=&quot;color: #000000;&quot;&gt;&amp;nbsp; &amp;nbsp; &amp;nbsp; &amp;nbsp; &lt;/span&gt;&lt;span style=&quot;color: #0000ff;&quot;&gt;break&lt;/span&gt;&lt;span style=&quot;color: #000000;&quot;&gt;;&lt;/span&gt;&lt;/div&gt;&lt;div&gt;&lt;span style=&quot;color: #000000;&quot;&gt;&amp;nbsp; &amp;nbsp; &lt;/span&gt;&lt;span style=&quot;color: #0000ff;&quot;&gt;case&lt;/span&gt;&lt;span style=&quot;color: #000000;&quot;&gt; &lt;/span&gt;&lt;span style=&quot;color: #098658;&quot;&gt;3&lt;/span&gt;&lt;span style=&quot;color: #0000ff;&quot;&gt;:&lt;/span&gt;&lt;/div&gt;&lt;div&gt;&lt;span style=&quot;color: #000000;&quot;&gt;&amp;nbsp; &amp;nbsp; &amp;nbsp; &amp;nbsp; ...&lt;/span&gt;&lt;/div&gt;&lt;div&gt;&lt;span style=&quot;color: #000000;&quot;&gt;&amp;nbsp; &amp;nbsp; &amp;nbsp; &amp;nbsp; &lt;/span&gt;&lt;span style=&quot;color: #0000ff;&quot;&gt;break&lt;/span&gt;&lt;span style=&quot;color: #000000;&quot;&gt;;&lt;/span&gt;&lt;/div&gt;&lt;div&gt;&lt;span style=&quot;color: #000000;&quot;&gt;&amp;nbsp; &amp;nbsp; &lt;/span&gt;&lt;span style=&quot;color: #0000ff;&quot;&gt;case&lt;/span&gt;&lt;span style=&quot;color: #000000;&quot;&gt; &lt;/span&gt;&lt;span style=&quot;color: #098658;&quot;&gt;5&lt;/span&gt;&lt;span style=&quot;color: #0000ff;&quot;&gt;:&lt;/span&gt;&lt;/div&gt;&lt;div&gt;&lt;span style=&quot;color: #000000;&quot;&gt;&amp;nbsp; &amp;nbsp; &amp;nbsp; &amp;nbsp; ...&lt;/span&gt;&lt;/div&gt;&lt;div&gt;&lt;span style=&quot;color: #000000;&quot;&gt;&amp;nbsp; &amp;nbsp; &amp;nbsp; &amp;nbsp; &lt;/span&gt;&lt;span style=&quot;color: #0000ff;&quot;&gt;break&lt;/span&gt;&lt;span style=&quot;color: #000000;&quot;&gt;;&lt;/span&gt;&lt;/div&gt;&lt;div&gt;&lt;span style=&quot;color: #000000;&quot;&gt;&amp;nbsp; &amp;nbsp; &lt;/span&gt;&lt;span style=&quot;color: #0000ff;&quot;&gt;default:&lt;/span&gt;&lt;/div&gt;&lt;div&gt;&lt;span style=&quot;color: #000000;&quot;&gt;&amp;nbsp; &amp;nbsp; &amp;nbsp; &amp;nbsp; ...&lt;/span&gt;&lt;/div&gt;&lt;div&gt;&lt;span style=&quot;color: #000000;&quot;&gt;&amp;nbsp; &amp;nbsp; &amp;nbsp; &amp;nbsp; &lt;/span&gt;&lt;span style=&quot;color: #0000ff;&quot;&gt;break&lt;/span&gt;&lt;span style=&quot;color: #000000;&quot;&gt;;&lt;/span&gt;&lt;/div&gt;&lt;div&gt;&lt;span style=&quot;color: #000000;&quot;&gt;}&lt;/span&gt;&lt;/div&gt;&lt;/div&gt;" style="text;whiteSpace=wrap;html=1;" parent="1" vertex="1">
          <mxGeometry x="27.629999999999995" y="6420" width="150.25" height="352.5" as="geometry" />
        </mxCell>
        <mxCell id="3uFvsSg2rkh7UaSVAgNL-13" value="&lt;font style=&quot;font-size: 16px;&quot;&gt;Successor 1 Address&lt;/font&gt;" style="rounded=0;whiteSpace=wrap;html=1;fillColor=#d5e8d4;strokeColor=default;" parent="1" vertex="1">
          <mxGeometry x="589.38" y="6542.5" width="203" height="40" as="geometry" />
        </mxCell>
        <mxCell id="3uFvsSg2rkh7UaSVAgNL-14" value="&lt;font style=&quot;font-size: 16px;&quot;&gt;Default Succesor&amp;nbsp;&lt;/font&gt;&lt;span style=&quot;color: rgb(0, 0, 0); font-size: 16px;&quot;&gt;Address&lt;/span&gt;" style="rounded=0;whiteSpace=wrap;html=1;fillColor=#f5f5f5;fontColor=#333333;strokeColor=default;" parent="1" vertex="1">
          <mxGeometry x="589.38" y="6582.5" width="203" height="40" as="geometry" />
        </mxCell>
        <mxCell id="3uFvsSg2rkh7UaSVAgNL-15" value="&lt;font style=&quot;font-size: 16px;&quot;&gt;Successor 2&amp;nbsp;&lt;/font&gt;&lt;span style=&quot;font-size: 16px;&quot;&gt;Address&lt;/span&gt;" style="rounded=0;whiteSpace=wrap;html=1;fillColor=#ffe6cc;strokeColor=default;" parent="1" vertex="1">
          <mxGeometry x="589.38" y="6622.5" width="203" height="40" as="geometry" />
        </mxCell>
        <mxCell id="3uFvsSg2rkh7UaSVAgNL-16" value="&lt;span style=&quot;font-size: 16px;&quot;&gt;Default Succesor&amp;nbsp;&lt;/span&gt;&lt;span style=&quot;color: rgb(0, 0, 0); font-size: 16px;&quot;&gt;Address&lt;/span&gt;" style="rounded=0;whiteSpace=wrap;html=1;fillColor=#f5f5f5;fontColor=#333333;strokeColor=default;" parent="1" vertex="1">
          <mxGeometry x="589.38" y="6662.5" width="203" height="40" as="geometry" />
        </mxCell>
        <mxCell id="3uFvsSg2rkh7UaSVAgNL-17" value="&lt;font style=&quot;font-size: 16px;&quot;&gt;Successor 3&amp;nbsp;&lt;/font&gt;&lt;span style=&quot;font-size: 16px;&quot;&gt;Address&lt;/span&gt;" style="rounded=0;whiteSpace=wrap;html=1;fillColor=#fff2cc;strokeColor=default;" parent="1" vertex="1">
          <mxGeometry x="589.38" y="6702.5" width="203" height="40" as="geometry" />
        </mxCell>
        <mxCell id="3uFvsSg2rkh7UaSVAgNL-18" value="&lt;font style=&quot;font-size: 17px;&quot;&gt;1&lt;/font&gt;" style="text;html=1;align=center;verticalAlign=middle;resizable=0;points=[];autosize=1;strokeColor=none;fillColor=none;" parent="1" vertex="1">
          <mxGeometry x="557.13" y="6547.5" width="30" height="30" as="geometry" />
        </mxCell>
        <mxCell id="3uFvsSg2rkh7UaSVAgNL-19" value="&lt;span style=&quot;font-size: 17px;&quot;&gt;3&lt;/span&gt;" style="text;html=1;align=center;verticalAlign=middle;resizable=0;points=[];autosize=1;strokeColor=none;fillColor=none;" parent="1" vertex="1">
          <mxGeometry x="556.13" y="6627.5" width="30" height="30" as="geometry" />
        </mxCell>
        <mxCell id="3uFvsSg2rkh7UaSVAgNL-20" value="&lt;span style=&quot;font-size: 17px;&quot;&gt;5&lt;/span&gt;" style="text;html=1;align=center;verticalAlign=middle;resizable=0;points=[];autosize=1;strokeColor=none;fillColor=none;" parent="1" vertex="1">
          <mxGeometry x="557.13" y="6707.5" width="30" height="30" as="geometry" />
        </mxCell>
        <mxCell id="3uFvsSg2rkh7UaSVAgNL-21" value="&lt;span style=&quot;font-size: 17px;&quot;&gt;2&lt;/span&gt;" style="text;html=1;align=center;verticalAlign=middle;resizable=0;points=[];autosize=1;strokeColor=none;fillColor=none;" parent="1" vertex="1">
          <mxGeometry x="557.13" y="6587.5" width="30" height="30" as="geometry" />
        </mxCell>
        <mxCell id="3uFvsSg2rkh7UaSVAgNL-22" value="&lt;span style=&quot;font-size: 17px;&quot;&gt;4&lt;/span&gt;" style="text;html=1;align=center;verticalAlign=middle;resizable=0;points=[];autosize=1;strokeColor=none;fillColor=none;" parent="1" vertex="1">
          <mxGeometry x="557.13" y="6672.5" width="30" height="30" as="geometry" />
        </mxCell>
        <mxCell id="3uFvsSg2rkh7UaSVAgNL-24" value="&lt;font style=&quot;font-size: 16px;&quot;&gt;&lt;b&gt;Range Table&lt;/b&gt;&lt;/font&gt;" style="text;html=1;align=center;verticalAlign=middle;resizable=0;points=[];autosize=1;strokeColor=none;fillColor=none;" parent="1" vertex="1">
          <mxGeometry x="557.13" y="6490" width="120" height="30" as="geometry" />
        </mxCell>
        <mxCell id="3uFvsSg2rkh7UaSVAgNL-25" value="" style="shape=flexArrow;endArrow=classic;html=1;rounded=0;" parent="1" edge="1">
          <mxGeometry width="50" height="50" relative="1" as="geometry">
            <mxPoint x="222" y="6586.91" as="sourcePoint" />
            <mxPoint x="260" y="6587" as="targetPoint" />
          </mxGeometry>
        </mxCell>
        <mxCell id="3uFvsSg2rkh7UaSVAgNL-27" value="&lt;font style=&quot;font-size: 16px;&quot;&gt;&lt;b&gt;Java Code&lt;/b&gt;&lt;/font&gt;" style="text;html=1;align=center;verticalAlign=middle;resizable=0;points=[];autosize=1;strokeColor=none;fillColor=none;" parent="1" vertex="1">
          <mxGeometry x="17.879999999999995" y="6390" width="100" height="30" as="geometry" />
        </mxCell>
        <mxCell id="3uFvsSg2rkh7UaSVAgNL-28" value="" style="rounded=0;whiteSpace=wrap;html=1;" parent="1" vertex="1">
          <mxGeometry x="21" y="7113.75" width="190" height="360" as="geometry" />
        </mxCell>
        <mxCell id="3uFvsSg2rkh7UaSVAgNL-29" value="" style="rounded=0;whiteSpace=wrap;html=1;fillColor=#f8cecc;strokeColor=#b85450;" parent="1" vertex="1">
          <mxGeometry x="530" y="7080" width="296" height="420" as="geometry" />
        </mxCell>
        <mxCell id="3uFvsSg2rkh7UaSVAgNL-30" value="&lt;div style=&quot;color: #000000;background-color: #ffffff;font-family: Consolas, &#39;Courier New&#39;, monospace;font-weight: normal;font-size: 18px;line-height: 24px;white-space: pre;&quot;&gt;&lt;div&gt;&lt;span style=&quot;color: #0000ff;&quot;&gt;switch&lt;/span&gt;&lt;span style=&quot;color: #000000;&quot;&gt; (key) {&lt;/span&gt;&lt;/div&gt;&lt;div&gt;&lt;span style=&quot;color: #000000;&quot;&gt;&amp;nbsp; &amp;nbsp; &lt;/span&gt;&lt;span style=&quot;color: #0000ff;&quot;&gt;case&lt;/span&gt;&lt;span style=&quot;color: #000000;&quot;&gt; &lt;/span&gt;&lt;span style=&quot;color: #098658;&quot;&gt;1&lt;/span&gt;&lt;span style=&quot;color: #0000ff;&quot;&gt;:&lt;/span&gt;&lt;/div&gt;&lt;div&gt;&lt;span style=&quot;color: #000000;&quot;&gt;&amp;nbsp; &amp;nbsp; &amp;nbsp; &amp;nbsp; ...&lt;/span&gt;&lt;/div&gt;&lt;div&gt;&lt;span style=&quot;color: #000000;&quot;&gt;&amp;nbsp; &amp;nbsp; &amp;nbsp; &amp;nbsp; &lt;/span&gt;&lt;span style=&quot;color: #0000ff;&quot;&gt;break&lt;/span&gt;&lt;span style=&quot;color: #000000;&quot;&gt;;&lt;/span&gt;&lt;/div&gt;&lt;div&gt;&lt;span style=&quot;color: #000000;&quot;&gt;&amp;nbsp; &amp;nbsp; &lt;/span&gt;&lt;span style=&quot;color: #0000ff;&quot;&gt;case&lt;/span&gt;&lt;span style=&quot;color: #000000;&quot;&gt; &lt;/span&gt;&lt;span style=&quot;color: #098658;&quot;&gt;3&lt;/span&gt;&lt;span style=&quot;color: #0000ff;&quot;&gt;:&lt;/span&gt;&lt;/div&gt;&lt;div&gt;&lt;span style=&quot;color: #000000;&quot;&gt;&amp;nbsp; &amp;nbsp; &amp;nbsp; &amp;nbsp; ...&lt;/span&gt;&lt;/div&gt;&lt;div&gt;&lt;span style=&quot;color: #000000;&quot;&gt;&amp;nbsp; &amp;nbsp; &amp;nbsp; &amp;nbsp; &lt;/span&gt;&lt;span style=&quot;color: #0000ff;&quot;&gt;break&lt;/span&gt;&lt;span style=&quot;color: #000000;&quot;&gt;;&lt;/span&gt;&lt;/div&gt;&lt;div&gt;&lt;span style=&quot;color: #000000;&quot;&gt;&amp;nbsp; &amp;nbsp; &lt;/span&gt;&lt;span style=&quot;color: #0000ff;&quot;&gt;case&lt;/span&gt;&lt;span style=&quot;color: #000000;&quot;&gt; &lt;/span&gt;&lt;span style=&quot;color: #098658;&quot;&gt;5&lt;/span&gt;&lt;span style=&quot;color: #0000ff;&quot;&gt;:&lt;/span&gt;&lt;/div&gt;&lt;div&gt;&lt;span style=&quot;color: #000000;&quot;&gt;&amp;nbsp; &amp;nbsp; &amp;nbsp; &amp;nbsp; ...&lt;/span&gt;&lt;/div&gt;&lt;div&gt;&lt;span style=&quot;color: #000000;&quot;&gt;&amp;nbsp; &amp;nbsp; &amp;nbsp; &amp;nbsp; &lt;/span&gt;&lt;span style=&quot;color: #0000ff;&quot;&gt;break&lt;/span&gt;&lt;span style=&quot;color: #000000;&quot;&gt;;&lt;/span&gt;&lt;/div&gt;&lt;div&gt;&lt;span style=&quot;color: #000000;&quot;&gt;&amp;nbsp; &amp;nbsp; &lt;/span&gt;&lt;span style=&quot;color: #0000ff;&quot;&gt;default:&lt;/span&gt;&lt;/div&gt;&lt;div&gt;&lt;span style=&quot;color: #000000;&quot;&gt;&amp;nbsp; &amp;nbsp; &amp;nbsp; &amp;nbsp; ...&lt;/span&gt;&lt;/div&gt;&lt;div&gt;&lt;span style=&quot;color: #000000;&quot;&gt;&amp;nbsp; &amp;nbsp; &amp;nbsp; &amp;nbsp; &lt;/span&gt;&lt;span style=&quot;color: #0000ff;&quot;&gt;break&lt;/span&gt;&lt;span style=&quot;color: #000000;&quot;&gt;;&lt;/span&gt;&lt;/div&gt;&lt;div&gt;&lt;span style=&quot;color: #000000;&quot;&gt;}&lt;/span&gt;&lt;/div&gt;&lt;/div&gt;" style="text;whiteSpace=wrap;html=1;" parent="1" vertex="1">
          <mxGeometry x="35" y="7116.25" width="170" height="360" as="geometry" />
        </mxCell>
        <mxCell id="3uFvsSg2rkh7UaSVAgNL-31" value="&lt;font style=&quot;font-size: 16px;&quot;&gt;Successor 1 Address&lt;/font&gt;" style="rounded=0;whiteSpace=wrap;html=1;fillColor=#d5e8d4;strokeColor=default;" parent="1" vertex="1">
          <mxGeometry x="606.75" y="7130" width="203" height="40" as="geometry" />
        </mxCell>
        <mxCell id="3uFvsSg2rkh7UaSVAgNL-32" value="&lt;span style=&quot;font-size: 16px;&quot;&gt;3&lt;/span&gt;" style="rounded=0;whiteSpace=wrap;html=1;fillColor=#ffe6cc;strokeColor=default;" parent="1" vertex="1">
          <mxGeometry x="606.75" y="7210" width="203" height="40" as="geometry" />
        </mxCell>
        <mxCell id="3uFvsSg2rkh7UaSVAgNL-33" value="&lt;font style=&quot;font-size: 16px;&quot;&gt;Successor 2&amp;nbsp;&lt;/font&gt;&lt;span style=&quot;font-size: 16px;&quot;&gt;Address&lt;/span&gt;" style="rounded=0;whiteSpace=wrap;html=1;fillColor=#ffe6cc;strokeColor=default;" parent="1" vertex="1">
          <mxGeometry x="606.75" y="7250" width="203" height="40" as="geometry" />
        </mxCell>
        <mxCell id="3uFvsSg2rkh7UaSVAgNL-34" value="&lt;span style=&quot;font-size: 16px;&quot;&gt;5&lt;/span&gt;" style="rounded=0;whiteSpace=wrap;html=1;fillColor=#fff2cc;strokeColor=default;" parent="1" vertex="1">
          <mxGeometry x="606.25" y="7370" width="203" height="40" as="geometry" />
        </mxCell>
        <mxCell id="3uFvsSg2rkh7UaSVAgNL-35" value="&lt;font style=&quot;font-size: 16px;&quot;&gt;Successor 3&amp;nbsp;&lt;/font&gt;&lt;span style=&quot;font-size: 16px;&quot;&gt;Address&lt;/span&gt;" style="rounded=0;whiteSpace=wrap;html=1;fillColor=#fff2cc;strokeColor=default;" parent="1" vertex="1">
          <mxGeometry x="606.25" y="7410" width="203" height="40" as="geometry" />
        </mxCell>
        <mxCell id="3uFvsSg2rkh7UaSVAgNL-41" value="&lt;font style=&quot;font-size: 16px;&quot;&gt;&lt;b&gt;Hash Table&lt;/b&gt;&lt;/font&gt;" style="text;html=1;align=center;verticalAlign=middle;resizable=0;points=[];autosize=1;strokeColor=none;fillColor=none;" parent="1" vertex="1">
          <mxGeometry x="521.25" y="7050" width="110" height="30" as="geometry" />
        </mxCell>
        <mxCell id="3uFvsSg2rkh7UaSVAgNL-43" value="&lt;font style=&quot;font-size: 16px;&quot;&gt;&lt;b&gt;Java Code&lt;/b&gt;&lt;/font&gt;" style="text;html=1;align=center;verticalAlign=middle;resizable=0;points=[];autosize=1;strokeColor=none;fillColor=none;" parent="1" vertex="1">
          <mxGeometry x="22.75" y="7083.75" width="100" height="30" as="geometry" />
        </mxCell>
        <mxCell id="3uFvsSg2rkh7UaSVAgNL-44" value="&lt;font style=&quot;font-size: 16px;&quot;&gt;1&lt;/font&gt;" style="rounded=0;whiteSpace=wrap;html=1;fillColor=#d5e8d4;strokeColor=default;" parent="1" vertex="1">
          <mxGeometry x="606.75" y="7090" width="203" height="40" as="geometry" />
        </mxCell>
        <mxCell id="3uFvsSg2rkh7UaSVAgNL-45" value="&lt;span style=&quot;font-size: 16px;&quot;&gt;Default Succesor&amp;nbsp;&lt;/span&gt;&lt;span style=&quot;color: rgb(0, 0, 0); font-size: 16px;&quot;&gt;Address&lt;/span&gt;" style="rounded=0;whiteSpace=wrap;html=1;fillColor=#f5f5f5;fontColor=#333333;strokeColor=default;" parent="1" vertex="1">
          <mxGeometry x="606.25" y="7330" width="203" height="40" as="geometry" />
        </mxCell>
        <mxCell id="3uFvsSg2rkh7UaSVAgNL-46" value="&lt;font style=&quot;font-size: 20px;&quot;&gt;&lt;b&gt;...&lt;/b&gt;&lt;/font&gt;" style="rounded=0;whiteSpace=wrap;html=1;fillColor=#f5f5f5;fontColor=#333333;strokeColor=default;" parent="1" vertex="1">
          <mxGeometry x="606.75" y="7170" width="203" height="40" as="geometry" />
        </mxCell>
        <mxCell id="3uFvsSg2rkh7UaSVAgNL-47" value="&lt;span style=&quot;font-size: 16px;&quot;&gt;0&lt;/span&gt;" style="rounded=0;whiteSpace=wrap;html=1;fillColor=#f5f5f5;fontColor=#333333;strokeColor=default;" parent="1" vertex="1">
          <mxGeometry x="606.75" y="7290" width="203" height="40" as="geometry" />
        </mxCell>
        <mxCell id="3uFvsSg2rkh7UaSVAgNL-48" value="&lt;font style=&quot;font-size: 16px;&quot;&gt;hash（1）&lt;/font&gt;" style="text;html=1;align=center;verticalAlign=middle;resizable=0;points=[];autosize=1;strokeColor=none;fillColor=none;" parent="1" vertex="1">
          <mxGeometry x="524" y="7148" width="100" height="30" as="geometry" />
        </mxCell>
        <mxCell id="3uFvsSg2rkh7UaSVAgNL-49" value="&lt;font style=&quot;font-size: 16px;&quot;&gt;hash（3）&lt;/font&gt;" style="text;html=1;align=center;verticalAlign=middle;resizable=0;points=[];autosize=1;strokeColor=none;fillColor=none;" parent="1" vertex="1">
          <mxGeometry x="522" y="7270" width="100" height="30" as="geometry" />
        </mxCell>
        <mxCell id="3uFvsSg2rkh7UaSVAgNL-50" value="&lt;font style=&quot;font-size: 16px;&quot;&gt;hash（5）&lt;/font&gt;" style="text;html=1;align=center;verticalAlign=middle;resizable=0;points=[];autosize=1;strokeColor=none;fillColor=none;" parent="1" vertex="1">
          <mxGeometry x="524" y="7432.5" width="100" height="30" as="geometry" />
        </mxCell>
        <mxCell id="3uFvsSg2rkh7UaSVAgNL-51" value="&lt;font style=&quot;font-size: 20px;&quot;&gt;&lt;b&gt;...&lt;/b&gt;&lt;/font&gt;" style="rounded=0;whiteSpace=wrap;html=1;fillColor=#f5f5f5;fontColor=#333333;strokeColor=default;" parent="1" vertex="1">
          <mxGeometry x="606.25" y="7450" width="203" height="40" as="geometry" />
        </mxCell>
        <mxCell id="3uFvsSg2rkh7UaSVAgNL-73" style="edgeStyle=orthogonalEdgeStyle;rounded=0;orthogonalLoop=1;jettySize=auto;html=1;entryX=0.674;entryY=-0.038;entryDx=0;entryDy=0;entryPerimeter=0;curved=1;strokeColor=#FF3333;endArrow=block;endFill=1;" parent="1" source="3uFvsSg2rkh7UaSVAgNL-8" target="bwzxpeLL0tZI7nzM4r0u-27" edge="1">
          <mxGeometry relative="1" as="geometry">
            <Array as="points">
              <mxPoint x="692" y="3660" />
              <mxPoint x="432" y="3660" />
            </Array>
          </mxGeometry>
        </mxCell>
        <mxCell id="3uFvsSg2rkh7UaSVAgNL-94" style="edgeStyle=orthogonalEdgeStyle;rounded=0;orthogonalLoop=1;jettySize=auto;html=1;exitX=0.5;exitY=0;exitDx=0;exitDy=0;entryX=0.5;entryY=1;entryDx=0;entryDy=0;curved=1;endArrow=block;endFill=0;" parent="1" source="3uFvsSg2rkh7UaSVAgNL-79" target="3uFvsSg2rkh7UaSVAgNL-80" edge="1">
          <mxGeometry relative="1" as="geometry" />
        </mxCell>
        <mxCell id="3uFvsSg2rkh7UaSVAgNL-95" style="edgeStyle=orthogonalEdgeStyle;rounded=0;orthogonalLoop=1;jettySize=auto;html=1;exitX=0.5;exitY=0;exitDx=0;exitDy=0;entryX=0.5;entryY=1;entryDx=0;entryDy=0;curved=1;endArrow=block;endFill=0;" parent="1" source="3uFvsSg2rkh7UaSVAgNL-79" target="3uFvsSg2rkh7UaSVAgNL-85" edge="1">
          <mxGeometry relative="1" as="geometry" />
        </mxCell>
        <mxCell id="3uFvsSg2rkh7UaSVAgNL-96" style="edgeStyle=orthogonalEdgeStyle;rounded=0;orthogonalLoop=1;jettySize=auto;html=1;exitX=0.5;exitY=0;exitDx=0;exitDy=0;entryX=0.5;entryY=1;entryDx=0;entryDy=0;curved=1;endArrow=block;endFill=0;" parent="1" source="3uFvsSg2rkh7UaSVAgNL-79" target="3uFvsSg2rkh7UaSVAgNL-90" edge="1">
          <mxGeometry relative="1" as="geometry" />
        </mxCell>
        <mxCell id="3uFvsSg2rkh7UaSVAgNL-99" style="edgeStyle=orthogonalEdgeStyle;rounded=0;orthogonalLoop=1;jettySize=auto;html=1;exitX=0.5;exitY=0;exitDx=0;exitDy=0;entryX=0.5;entryY=1;entryDx=0;entryDy=0;curved=1;endArrow=block;endFill=0;" parent="1" source="3uFvsSg2rkh7UaSVAgNL-79" target="3uFvsSg2rkh7UaSVAgNL-98" edge="1">
          <mxGeometry relative="1" as="geometry">
            <Array as="points">
              <mxPoint x="417" y="7860" />
              <mxPoint x="696" y="7860" />
            </Array>
          </mxGeometry>
        </mxCell>
        <mxCell id="3uFvsSg2rkh7UaSVAgNL-79" value="&lt;font style=&quot;font-size: 16px;&quot;&gt;Conditional Node&lt;/font&gt;" style="rounded=0;whiteSpace=wrap;html=1;" parent="1" vertex="1">
          <mxGeometry x="341.75" y="7880" width="150" height="40" as="geometry" />
        </mxCell>
        <mxCell id="3uFvsSg2rkh7UaSVAgNL-91" style="edgeStyle=orthogonalEdgeStyle;rounded=0;orthogonalLoop=1;jettySize=auto;html=1;exitX=0.5;exitY=0;exitDx=0;exitDy=0;entryX=0.5;entryY=1;entryDx=0;entryDy=0;curved=1;endArrow=block;endFill=0;" parent="1" source="3uFvsSg2rkh7UaSVAgNL-80" target="3uFvsSg2rkh7UaSVAgNL-89" edge="1">
          <mxGeometry relative="1" as="geometry" />
        </mxCell>
        <mxCell id="3uFvsSg2rkh7UaSVAgNL-92" style="edgeStyle=orthogonalEdgeStyle;rounded=0;orthogonalLoop=1;jettySize=auto;html=1;exitX=0.5;exitY=0;exitDx=0;exitDy=0;entryX=0.5;entryY=1;entryDx=0;entryDy=0;curved=1;endArrow=block;endFill=0;" parent="1" source="3uFvsSg2rkh7UaSVAgNL-80" target="3uFvsSg2rkh7UaSVAgNL-81" edge="1">
          <mxGeometry relative="1" as="geometry" />
        </mxCell>
        <mxCell id="3uFvsSg2rkh7UaSVAgNL-93" style="edgeStyle=orthogonalEdgeStyle;rounded=0;orthogonalLoop=1;jettySize=auto;html=1;exitX=0.5;exitY=0;exitDx=0;exitDy=0;entryX=0.5;entryY=1;entryDx=0;entryDy=0;curved=1;endArrow=block;endFill=0;" parent="1" source="3uFvsSg2rkh7UaSVAgNL-80" target="3uFvsSg2rkh7UaSVAgNL-82" edge="1">
          <mxGeometry relative="1" as="geometry" />
        </mxCell>
        <mxCell id="3uFvsSg2rkh7UaSVAgNL-80" value="&lt;font style=&quot;font-size: 16px;&quot;&gt;Logic Node&lt;/font&gt;" style="rounded=0;whiteSpace=wrap;html=1;" parent="1" vertex="1">
          <mxGeometry x="220.75" y="7780" width="90" height="50" as="geometry" />
        </mxCell>
        <mxCell id="3uFvsSg2rkh7UaSVAgNL-81" value="&lt;font style=&quot;font-size: 16px;&quot;&gt;Left Value&lt;/font&gt;" style="rounded=0;whiteSpace=wrap;html=1;" parent="1" vertex="1">
          <mxGeometry x="220.75" y="7690" width="90" height="50" as="geometry" />
        </mxCell>
        <mxCell id="3uFvsSg2rkh7UaSVAgNL-82" value="&lt;span style=&quot;font-size: 16px;&quot;&gt;Right Value&lt;/span&gt;" style="rounded=0;whiteSpace=wrap;html=1;" parent="1" vertex="1">
          <mxGeometry x="340" y="7690" width="99" height="50" as="geometry" />
        </mxCell>
        <mxCell id="3uFvsSg2rkh7UaSVAgNL-85" value="&lt;span style=&quot;font-size: 16px;&quot;&gt;True Value&lt;/span&gt;" style="rounded=0;whiteSpace=wrap;html=1;" parent="1" vertex="1">
          <mxGeometry x="365.75" y="7780" width="101.25" height="50" as="geometry" />
        </mxCell>
        <mxCell id="3uFvsSg2rkh7UaSVAgNL-89" value="&lt;font style=&quot;font-size: 16px;&quot;&gt;Condition&lt;/font&gt;" style="rounded=0;whiteSpace=wrap;html=1;" parent="1" vertex="1">
          <mxGeometry x="101.75" y="7690" width="90" height="50" as="geometry" />
        </mxCell>
        <mxCell id="3uFvsSg2rkh7UaSVAgNL-90" value="&lt;span style=&quot;font-size: 16px;&quot;&gt;False Value&lt;/span&gt;" style="rounded=0;whiteSpace=wrap;html=1;" parent="1" vertex="1">
          <mxGeometry x="510.5" y="7780" width="101.25" height="50" as="geometry" />
        </mxCell>
        <mxCell id="3uFvsSg2rkh7UaSVAgNL-98" value="&lt;span style=&quot;font-size: 16px;&quot;&gt;Result Value&lt;/span&gt;" style="rounded=0;whiteSpace=wrap;html=1;" parent="1" vertex="1">
          <mxGeometry x="645.25" y="7780" width="101.25" height="50" as="geometry" />
        </mxCell>
        <mxCell id="3uFvsSg2rkh7UaSVAgNL-115" style="edgeStyle=orthogonalEdgeStyle;rounded=0;orthogonalLoop=1;jettySize=auto;html=1;exitX=0.5;exitY=1;exitDx=0;exitDy=0;" parent="1" source="3uFvsSg2rkh7UaSVAgNL-116" edge="1">
          <mxGeometry relative="1" as="geometry">
            <mxPoint x="413.2631578947369" y="8340" as="targetPoint" />
          </mxGeometry>
        </mxCell>
        <mxCell id="3uFvsSg2rkh7UaSVAgNL-116" value="&lt;font style=&quot;font-size: 16px;&quot;&gt;调用 Conditional Node&lt;br&gt;的Generate方法&lt;/font&gt;" style="rounded=1;whiteSpace=wrap;html=1;" parent="1" vertex="1">
          <mxGeometry x="315" y="8240" width="196" height="60" as="geometry" />
        </mxCell>
        <mxCell id="3uFvsSg2rkh7UaSVAgNL-134" style="edgeStyle=orthogonalEdgeStyle;rounded=0;orthogonalLoop=1;jettySize=auto;html=1;exitX=0;exitY=0.5;exitDx=0;exitDy=0;entryX=0.5;entryY=0;entryDx=0;entryDy=0;" parent="1" source="3uFvsSg2rkh7UaSVAgNL-119" target="3uFvsSg2rkh7UaSVAgNL-131" edge="1">
          <mxGeometry relative="1" as="geometry" />
        </mxCell>
        <mxCell id="3uFvsSg2rkh7UaSVAgNL-135" style="edgeStyle=orthogonalEdgeStyle;rounded=0;orthogonalLoop=1;jettySize=auto;html=1;exitX=1;exitY=0.5;exitDx=0;exitDy=0;entryX=0.5;entryY=0;entryDx=0;entryDy=0;" parent="1" source="3uFvsSg2rkh7UaSVAgNL-119" target="3uFvsSg2rkh7UaSVAgNL-130" edge="1">
          <mxGeometry relative="1" as="geometry" />
        </mxCell>
        <mxCell id="3uFvsSg2rkh7UaSVAgNL-119" value="&lt;font style=&quot;font-size: 15px;&quot;&gt;&amp;nbsp;比较值为浮点类型&lt;/font&gt;" style="rhombus;whiteSpace=wrap;html=1;" parent="1" vertex="1">
          <mxGeometry x="319" y="8340" width="190" height="80" as="geometry" />
        </mxCell>
        <mxCell id="3uFvsSg2rkh7UaSVAgNL-120" value="&lt;font style=&quot;font-size: 16px;&quot;&gt;生成&lt;br&gt;FloatCondIntMoveOp&lt;br&gt;&lt;/font&gt;" style="rounded=1;whiteSpace=wrap;html=1;" parent="1" vertex="1">
          <mxGeometry x="646.75" y="8570" width="178" height="80" as="geometry" />
        </mxCell>
        <mxCell id="3uFvsSg2rkh7UaSVAgNL-126" value="是" style="text;html=1;align=center;verticalAlign=middle;resizable=0;points=[];autosize=1;strokeColor=none;fillColor=none;fontSize=14;" parent="1" vertex="1">
          <mxGeometry x="500.75" y="8341" width="40" height="30" as="geometry" />
        </mxCell>
        <mxCell id="3uFvsSg2rkh7UaSVAgNL-129" value="否" style="text;html=1;align=center;verticalAlign=middle;resizable=0;points=[];autosize=1;strokeColor=none;fillColor=none;fontSize=14;" parent="1" vertex="1">
          <mxGeometry x="282.75" y="8341" width="40" height="30" as="geometry" />
        </mxCell>
        <mxCell id="3uFvsSg2rkh7UaSVAgNL-142" style="edgeStyle=orthogonalEdgeStyle;rounded=0;orthogonalLoop=1;jettySize=auto;html=1;exitX=1;exitY=0.5;exitDx=0;exitDy=0;entryX=0.5;entryY=0;entryDx=0;entryDy=0;" parent="1" source="3uFvsSg2rkh7UaSVAgNL-130" target="3uFvsSg2rkh7UaSVAgNL-120" edge="1">
          <mxGeometry relative="1" as="geometry" />
        </mxCell>
        <mxCell id="3uFvsSg2rkh7UaSVAgNL-130" value="&lt;font style=&quot;font-size: 15px;&quot;&gt;转移值为整数类型&lt;/font&gt;" style="rhombus;whiteSpace=wrap;html=1;" parent="1" vertex="1">
          <mxGeometry x="519" y="8430" width="190" height="80" as="geometry" />
        </mxCell>
        <mxCell id="3uFvsSg2rkh7UaSVAgNL-137" style="edgeStyle=orthogonalEdgeStyle;rounded=0;orthogonalLoop=1;jettySize=auto;html=1;exitX=0;exitY=0.5;exitDx=0;exitDy=0;entryX=0.5;entryY=0;entryDx=0;entryDy=0;" parent="1" source="3uFvsSg2rkh7UaSVAgNL-131" target="3uFvsSg2rkh7UaSVAgNL-136" edge="1">
          <mxGeometry relative="1" as="geometry" />
        </mxCell>
        <mxCell id="3uFvsSg2rkh7UaSVAgNL-139" style="edgeStyle=orthogonalEdgeStyle;rounded=0;orthogonalLoop=1;jettySize=auto;html=1;exitX=1;exitY=0.5;exitDx=0;exitDy=0;entryX=0.5;entryY=0;entryDx=0;entryDy=0;" parent="1" source="3uFvsSg2rkh7UaSVAgNL-131" target="3uFvsSg2rkh7UaSVAgNL-138" edge="1">
          <mxGeometry relative="1" as="geometry" />
        </mxCell>
        <mxCell id="3uFvsSg2rkh7UaSVAgNL-131" value="&lt;font style=&quot;font-size: 15px;&quot;&gt;转移值为整数类型&lt;/font&gt;" style="rhombus;whiteSpace=wrap;html=1;" parent="1" vertex="1">
          <mxGeometry x="91" y="8430" width="190" height="80" as="geometry" />
        </mxCell>
        <mxCell id="3uFvsSg2rkh7UaSVAgNL-136" value="&lt;font style=&quot;font-size: 16px;&quot;&gt;生成&lt;br&gt;IntCondIntMoveOp&lt;/font&gt;" style="rounded=1;whiteSpace=wrap;html=1;" parent="1" vertex="1">
          <mxGeometry y="8570" width="140" height="80" as="geometry" />
        </mxCell>
        <mxCell id="3uFvsSg2rkh7UaSVAgNL-138" value="&lt;font style=&quot;font-size: 16px;&quot;&gt;生成&lt;br&gt;IntCondFloatMoveOp&lt;/font&gt;" style="rounded=1;whiteSpace=wrap;html=1;" parent="1" vertex="1">
          <mxGeometry x="217.88" y="8570" width="166.75" height="80" as="geometry" />
        </mxCell>
        <mxCell id="3uFvsSg2rkh7UaSVAgNL-140" value="&lt;font style=&quot;font-size: 16px;&quot;&gt;生成&lt;br&gt;FloatCompareOp、&lt;br&gt;FloatMoveOp&lt;/font&gt;" style="rounded=1;whiteSpace=wrap;html=1;" parent="1" vertex="1">
          <mxGeometry x="414" y="8570" width="178" height="80" as="geometry" />
        </mxCell>
        <mxCell id="3uFvsSg2rkh7UaSVAgNL-141" style="edgeStyle=orthogonalEdgeStyle;rounded=0;orthogonalLoop=1;jettySize=auto;html=1;exitX=0;exitY=0.5;exitDx=0;exitDy=0;entryX=0.463;entryY=-0.043;entryDx=0;entryDy=0;entryPerimeter=0;" parent="1" source="3uFvsSg2rkh7UaSVAgNL-130" target="3uFvsSg2rkh7UaSVAgNL-140" edge="1">
          <mxGeometry relative="1" as="geometry" />
        </mxCell>
        <mxCell id="3uFvsSg2rkh7UaSVAgNL-143" value="是" style="text;html=1;align=center;verticalAlign=middle;resizable=0;points=[];autosize=1;strokeColor=none;fillColor=none;fontSize=14;" parent="1" vertex="1">
          <mxGeometry x="694" y="8430" width="40" height="30" as="geometry" />
        </mxCell>
        <mxCell id="3uFvsSg2rkh7UaSVAgNL-144" value="否" style="text;html=1;align=center;verticalAlign=middle;resizable=0;points=[];autosize=1;strokeColor=none;fillColor=none;fontSize=14;" parent="1" vertex="1">
          <mxGeometry x="494" y="8430" width="40" height="30" as="geometry" />
        </mxCell>
        <mxCell id="3uFvsSg2rkh7UaSVAgNL-145" value="否" style="text;html=1;align=center;verticalAlign=middle;resizable=0;points=[];autosize=1;strokeColor=none;fillColor=none;fontSize=14;" parent="1" vertex="1">
          <mxGeometry x="67.25" y="8430" width="40" height="30" as="geometry" />
        </mxCell>
        <mxCell id="3uFvsSg2rkh7UaSVAgNL-146" value="是" style="text;html=1;align=center;verticalAlign=middle;resizable=0;points=[];autosize=1;strokeColor=none;fillColor=none;fontSize=14;" parent="1" vertex="1">
          <mxGeometry x="265.75" y="8430" width="40" height="30" as="geometry" />
        </mxCell>
        <mxCell id="MTfcI7XrnVj86_jUb8bQ-32" style="edgeStyle=orthogonalEdgeStyle;rounded=0;orthogonalLoop=1;jettySize=auto;html=1;exitX=0.5;exitY=1;exitDx=0;exitDy=0;entryX=0.5;entryY=0;entryDx=0;entryDy=0;" parent="1" source="MTfcI7XrnVj86_jUb8bQ-1" target="MTfcI7XrnVj86_jUb8bQ-5" edge="1">
          <mxGeometry relative="1" as="geometry" />
        </mxCell>
        <mxCell id="MTfcI7XrnVj86_jUb8bQ-1" value="开始" style="rounded=1;whiteSpace=wrap;html=1;fontSize=14;" parent="1" vertex="1">
          <mxGeometry x="355.75" y="8910" width="73" height="30" as="geometry" />
        </mxCell>
        <mxCell id="MTfcI7XrnVj86_jUb8bQ-20" style="edgeStyle=orthogonalEdgeStyle;rounded=0;orthogonalLoop=1;jettySize=auto;html=1;exitX=0.5;exitY=1;exitDx=0;exitDy=0;entryX=0.5;entryY=0;entryDx=0;entryDy=0;" parent="1" source="MTfcI7XrnVj86_jUb8bQ-5" target="MTfcI7XrnVj86_jUb8bQ-6" edge="1">
          <mxGeometry relative="1" as="geometry" />
        </mxCell>
        <mxCell id="MTfcI7XrnVj86_jUb8bQ-5" value="选择测试项并运行" style="rounded=0;whiteSpace=wrap;html=1;fontSize=14;" parent="1" vertex="1">
          <mxGeometry x="317" y="8960" width="150" height="40" as="geometry" />
        </mxCell>
        <mxCell id="MTfcI7XrnVj86_jUb8bQ-21" style="edgeStyle=orthogonalEdgeStyle;rounded=0;orthogonalLoop=1;jettySize=auto;html=1;exitX=0.5;exitY=1;exitDx=0;exitDy=0;entryX=0.5;entryY=0;entryDx=0;entryDy=0;" parent="1" source="MTfcI7XrnVj86_jUb8bQ-6" target="MTfcI7XrnVj86_jUb8bQ-8" edge="1">
          <mxGeometry relative="1" as="geometry" />
        </mxCell>
        <mxCell id="MTfcI7XrnVj86_jUb8bQ-30" style="edgeStyle=orthogonalEdgeStyle;rounded=0;orthogonalLoop=1;jettySize=auto;html=1;exitX=0;exitY=0.5;exitDx=0;exitDy=0;entryX=1;entryY=0.5;entryDx=0;entryDy=0;" parent="1" source="MTfcI7XrnVj86_jUb8bQ-6" target="MTfcI7XrnVj86_jUb8bQ-26" edge="1">
          <mxGeometry relative="1" as="geometry" />
        </mxCell>
        <mxCell id="MTfcI7XrnVj86_jUb8bQ-6" value="抛出异常退出？" style="rhombus;whiteSpace=wrap;html=1;fontSize=14;" parent="1" vertex="1">
          <mxGeometry x="327.25" y="9020" width="130" height="60" as="geometry" />
        </mxCell>
        <mxCell id="MTfcI7XrnVj86_jUb8bQ-22" style="edgeStyle=orthogonalEdgeStyle;rounded=0;orthogonalLoop=1;jettySize=auto;html=1;exitX=0.5;exitY=1;exitDx=0;exitDy=0;entryX=0.5;entryY=0;entryDx=0;entryDy=0;" parent="1" source="MTfcI7XrnVj86_jUb8bQ-8" target="MTfcI7XrnVj86_jUb8bQ-9" edge="1">
          <mxGeometry relative="1" as="geometry" />
        </mxCell>
        <mxCell id="MTfcI7XrnVj86_jUb8bQ-28" style="edgeStyle=orthogonalEdgeStyle;rounded=0;orthogonalLoop=1;jettySize=auto;html=1;exitX=1;exitY=0.5;exitDx=0;exitDy=0;entryX=0;entryY=0.5;entryDx=0;entryDy=0;" parent="1" source="MTfcI7XrnVj86_jUb8bQ-8" target="MTfcI7XrnVj86_jUb8bQ-27" edge="1">
          <mxGeometry relative="1" as="geometry" />
        </mxCell>
        <mxCell id="MTfcI7XrnVj86_jUb8bQ-8" value="结果正确？" style="rhombus;whiteSpace=wrap;html=1;fontSize=14;" parent="1" vertex="1">
          <mxGeometry x="327.25" y="9090" width="130" height="60" as="geometry" />
        </mxCell>
        <mxCell id="MTfcI7XrnVj86_jUb8bQ-23" style="edgeStyle=orthogonalEdgeStyle;rounded=0;orthogonalLoop=1;jettySize=auto;html=1;exitX=0.5;exitY=1;exitDx=0;exitDy=0;entryX=0.5;entryY=0;entryDx=0;entryDy=0;" parent="1" source="MTfcI7XrnVj86_jUb8bQ-9" target="MTfcI7XrnVj86_jUb8bQ-15" edge="1">
          <mxGeometry relative="1" as="geometry" />
        </mxCell>
        <mxCell id="MTfcI7XrnVj86_jUb8bQ-29" style="edgeStyle=orthogonalEdgeStyle;rounded=0;orthogonalLoop=1;jettySize=auto;html=1;exitX=1;exitY=0.5;exitDx=0;exitDy=0;entryX=0.5;entryY=1;entryDx=0;entryDy=0;" parent="1" source="MTfcI7XrnVj86_jUb8bQ-9" target="MTfcI7XrnVj86_jUb8bQ-27" edge="1">
          <mxGeometry relative="1" as="geometry" />
        </mxCell>
        <mxCell id="MTfcI7XrnVj86_jUb8bQ-9" value="白名单全部通过？" style="rhombus;whiteSpace=wrap;html=1;fontSize=14;" parent="1" vertex="1">
          <mxGeometry x="327.25" y="9170" width="130" height="60" as="geometry" />
        </mxCell>
        <mxCell id="MTfcI7XrnVj86_jUb8bQ-24" style="edgeStyle=orthogonalEdgeStyle;rounded=0;orthogonalLoop=1;jettySize=auto;html=1;exitX=0.5;exitY=1;exitDx=0;exitDy=0;entryX=0.5;entryY=0;entryDx=0;entryDy=0;" parent="1" source="MTfcI7XrnVj86_jUb8bQ-15" target="MTfcI7XrnVj86_jUb8bQ-16" edge="1">
          <mxGeometry relative="1" as="geometry" />
        </mxCell>
        <mxCell id="MTfcI7XrnVj86_jUb8bQ-15" value="加入白名单" style="rounded=0;whiteSpace=wrap;html=1;fontSize=14;" parent="1" vertex="1">
          <mxGeometry x="317.25" y="9250" width="150" height="40" as="geometry" />
        </mxCell>
        <mxCell id="MTfcI7XrnVj86_jUb8bQ-16" value="结束" style="rounded=1;whiteSpace=wrap;html=1;fontSize=14;" parent="1" vertex="1">
          <mxGeometry x="355.75" y="9310" width="73" height="30" as="geometry" />
        </mxCell>
        <mxCell id="MTfcI7XrnVj86_jUb8bQ-31" style="edgeStyle=orthogonalEdgeStyle;rounded=0;orthogonalLoop=1;jettySize=auto;html=1;exitX=0.5;exitY=0;exitDx=0;exitDy=0;entryX=0;entryY=0.5;entryDx=0;entryDy=0;" parent="1" source="MTfcI7XrnVj86_jUb8bQ-26" target="MTfcI7XrnVj86_jUb8bQ-5" edge="1">
          <mxGeometry relative="1" as="geometry" />
        </mxCell>
        <mxCell id="MTfcI7XrnVj86_jUb8bQ-26" value="删除抛出异常代码，填补正常代码逻辑" style="rounded=0;whiteSpace=wrap;html=1;fontSize=14;" parent="1" vertex="1">
          <mxGeometry x="138.75" y="9030" width="150" height="40" as="geometry" />
        </mxCell>
        <mxCell id="MTfcI7XrnVj86_jUb8bQ-38" style="edgeStyle=orthogonalEdgeStyle;rounded=0;orthogonalLoop=1;jettySize=auto;html=1;exitX=0.5;exitY=0;exitDx=0;exitDy=0;entryX=1;entryY=0.5;entryDx=0;entryDy=0;" parent="1" source="MTfcI7XrnVj86_jUb8bQ-27" target="MTfcI7XrnVj86_jUb8bQ-5" edge="1">
          <mxGeometry relative="1" as="geometry" />
        </mxCell>
        <mxCell id="MTfcI7XrnVj86_jUb8bQ-27" value="检查并修改代码" style="rounded=0;whiteSpace=wrap;html=1;fontSize=14;" parent="1" vertex="1">
          <mxGeometry x="486" y="9100" width="150" height="40" as="geometry" />
        </mxCell>
        <mxCell id="MTfcI7XrnVj86_jUb8bQ-33" value="否" style="text;html=1;align=center;verticalAlign=middle;resizable=0;points=[];autosize=1;strokeColor=none;fillColor=none;fontSize=14;" parent="1" vertex="1">
          <mxGeometry x="410" y="9068" width="40" height="30" as="geometry" />
        </mxCell>
        <mxCell id="MTfcI7XrnVj86_jUb8bQ-34" value="是" style="text;html=1;align=center;verticalAlign=middle;resizable=0;points=[];autosize=1;strokeColor=none;fillColor=none;fontSize=14;" parent="1" vertex="1">
          <mxGeometry x="295" y="9020" width="40" height="30" as="geometry" />
        </mxCell>
        <mxCell id="MTfcI7XrnVj86_jUb8bQ-35" value="是" style="text;html=1;align=center;verticalAlign=middle;resizable=0;points=[];autosize=1;strokeColor=none;fillColor=none;fontSize=14;" parent="1" vertex="1">
          <mxGeometry x="410" y="9140" width="40" height="30" as="geometry" />
        </mxCell>
        <mxCell id="MTfcI7XrnVj86_jUb8bQ-36" value="是" style="text;html=1;align=center;verticalAlign=middle;resizable=0;points=[];autosize=1;strokeColor=none;fillColor=none;fontSize=14;" parent="1" vertex="1">
          <mxGeometry x="411.5" y="9220" width="40" height="30" as="geometry" />
        </mxCell>
        <mxCell id="MTfcI7XrnVj86_jUb8bQ-37" value="否" style="text;html=1;align=center;verticalAlign=middle;resizable=0;points=[];autosize=1;strokeColor=none;fillColor=none;fontSize=14;" parent="1" vertex="1">
          <mxGeometry x="446" y="9170" width="40" height="30" as="geometry" />
        </mxCell>
        <UserObject label="" plantUmlData="{&#xa;  &quot;data&quot;: &quot;@startuml\nclass InvocationPlugins {\n  - registrations: EconomicMap&lt;String, ClassPlugins&gt;\n  - parent: InvocationPlugins\n  - deferredRegistrations: List&lt;Runnable&gt;\n  ...\n  + register(Type, InvocationPlugin, boolean)\n  + lookupInvocation(...): InvocationPlugin\n  + closeRegistration()\n  ...\n}\n\nclass ClassPlugins {\n  - invocationPlugins: EconomicMap&lt;String, InvocationPlugin&gt;\n  ...\n  + register(InvocationPlugin)\n  + get(ResolvedJavaMethod): InvocationPlugin\n  ...\n}\n\nclass Registration {\n  - plugins: InvocationPlugins\n  - declaringType: Type\n  ...\n  + register(InvocationPlugin)\n  + registerConditional(...)\n  ...\n}\n\nclass InvocationPlugin {\n  - name: String\n  - argumentTypes: Type[]\n  - isStatic: boolean\n  - next: InvocationPlugin\n  ...\n  + rewriteReceiverType(Type)\n  + apply(GraphBuilderContext, ...): boolean\n  ...\n}\n\nInvocationPlugins *-- \&quot;*\&quot; ClassPlugins : contains\\nvia registrations\nClassPlugins *-- \&quot;*\&quot; InvocationPlugin : manages\\nvia invocationPlugins\nInvocationPlugin --&gt; InvocationPlugin : next\n\nInvocationPlugins o-- Registration : creates\nRegistration --&gt; InvocationPlugins : registers to\nRegistration ..&gt; InvocationPlugin : creates and\\nregisters\n\nInvocationPlugin --|&gt; GraphBuilderPlugin\n\nnote top of InvocationPlugins\n  Manages plugins through ClassPlugins\n  Handles deferred/late registrations\n  Parent for plugin lookup chaining\nend note\n\nnote bottom of ClassPlugins\n  Stores InvocationPlugins per method name\n  Uses linked list structure via next\nend note\n\nnote right of Registration\n  Entry point for plugin registration\n  Binds to specific declaring class\n  Handles conditional registrations\nend note\n@enduml&quot;,&#xa;  &quot;format&quot;: &quot;svg&quot;&#xa;}" id="tS4n0tbAUUS5ZLLJwk-N-1">
          <mxCell style="shape=image;noLabel=1;verticalAlign=top;aspect=fixed;imageAspect=0;image=data:image/svg+xml,PD94bWwgdmVyc2lvbj0iMS4wIiBlbmNvZGluZz0idXMtYXNjaWkiIHN0YW5kYWxvbmU9Im5vIj8+PHN2ZyB4bWxucz0iaHR0cDovL3d3dy53My5vcmcvMjAwMC9zdmciIHhtbG5zOnhsaW5rPSJodHRwOi8vd3d3LnczLm9yZy8xOTk5L3hsaW5rIiBjb250ZW50U3R5bGVUeXBlPSJ0ZXh0L2NzcyIgaGVpZ2h0PSI5NzNweCIgcHJlc2VydmVBc3BlY3RSYXRpbz0ibm9uZSIgc3R5bGU9IndpZHRoOjkzOHB4O2hlaWdodDo5NzNweDtiYWNrZ3JvdW5kOiNGRkZGRkY7IiB2ZXJzaW9uPSIxLjEiIHZpZXdCb3g9IjAgMCA5MzggOTczIiB3aWR0aD0iOTM4cHgiIHpvb21BbmRQYW49Im1hZ25pZnkiPjxkZWZzLz48Zz48IS0tY2xhc3MgSW52b2NhdGlvblBsdWdpbnMtLT48ZyBpZD0iZWxlbV9JbnZvY2F0aW9uUGx1Z2lucyI+PHJlY3QgY29kZUxpbmU9IjEiIGZpbGw9IiNGMUYxRjEiIGhlaWdodD0iMTY3Ljg3NSIgaWQ9Ikludm9jYXRpb25QbHVnaW5zIiByeD0iMi41IiByeT0iMi41IiBzdHlsZT0ic3Ryb2tlOiMxODE4MTg7c3Ryb2tlLXdpZHRoOjAuNTsiIHdpZHRoPSIzNjMiIHg9IjIyNy41IiB5PSIyMjAiLz48ZWxsaXBzZSBjeD0iMzQ1LjI1IiBjeT0iMjM2IiBmaWxsPSIjQUREMUIyIiByeD0iMTEiIHJ5PSIxMSIgc3R5bGU9InN0cm9rZTojMTgxODE4O3N0cm9rZS13aWR0aDoxLjA7Ii8+PHBhdGggZD0iTTM0Mi44NzUsMjQwLjI1IEwzNDIuODc1LDI0MiBMMzQ3LjgxMjUsMjQyIEwzNDcuODEyNSwyNDAuMjUgTDM0Mi44NzUsMjQwLjI1IFogTTM0My41NjI1LDI0MC45Mzc1IFEzNDMuNTYyNSwyNDAuOTM3NSAzNDMuNTYyNSwyMzEuNzUgTDM0MS44MTI1LDIzMS43NSBRMzQxLjgxMjUsMjMxLjc1IDM0MS44MTI1LDI0MC45Mzc1IEwzNDMuNTYyNSwyNDAuOTM3NSBaIE0zNDcuMTI1LDI0MC45Mzc1IEwzNDguODc1LDI0MC45Mzc1IFEzNDguODc1LDI0MC45Mzc1IDM0OC44NzUsMjM4LjEyNSBMMzQ3LjEyNSwyMzguMTI1IFEzNDcuMTI1LDIzOC4xMjUgMzQ3LjEyNSwyNDAuOTM3NSBaIE0zNDcuMTI1LDIzMS43NSBRMzQ3LjEyNSwyMzEuNzUgMzQ3LjEyNSwyMzQuNTYyNSBMMzQ4Ljg3NSwyMzQuNTYyNSBRMzQ4Ljg3NSwyMzQuNTYyNSAzNDguODc1LDIzMS43NSBMMzQ3LjEyNSwyMzEuNzUgWiBNMzQyLjg3NSwyMzIuNDM3NSBMMzQ3LjgxMjUsMjMyLjQzNzUgTDM0Ny44MTI1LDIzMC42ODc1IEwzNDIuODc1LDIzMC42ODc1IEwzNDIuODc1LDIzMi40Mzc1IFogIiBmaWxsPSIjMDAwMDAwIi8+PHRleHQgZmlsbD0iIzAwMDAwMCIgZm9udC1mYW1pbHk9InNhbnMtc2VyaWYiIGZvbnQtc2l6ZT0iMTQiIGxlbmd0aEFkanVzdD0ic3BhY2luZyIgdGV4dExlbmd0aD0iMTE5IiB4PSIzNjUuNzUiIHk9IjI0MS43NDIyIj5JbnZvY2F0aW9uUGx1Z2luczwvdGV4dD48bGluZSBzdHlsZT0ic3Ryb2tlOiMxODE4MTg7c3Ryb2tlLXdpZHRoOjAuNTsiIHgxPSIyMjguNSIgeDI9IjU4OS41IiB5MT0iMjUyIiB5Mj0iMjUyIi8+PHJlY3QgZmlsbD0ibm9uZSIgaGVpZ2h0PSI2IiBzdHlsZT0ic3Ryb2tlOiNDODI5MzA7c3Ryb2tlLXdpZHRoOjEuMDsiIHdpZHRoPSI2IiB4PSIyMzUuNSIgeT0iMjYxLjk5MjIiLz48dGV4dCBmaWxsPSIjMDAwMDAwIiBmb250LWZhbWlseT0ic2Fucy1zZXJpZiIgZm9udC1zaXplPSIxNCIgbGVuZ3RoQWRqdXN0PSJzcGFjaW5nIiB0ZXh0TGVuZ3RoPSIzMzciIHg9IjI0Ny41IiB5PSIyNjkuMjM0NCI+cmVnaXN0cmF0aW9uczogRWNvbm9taWNNYXAmbHQ7U3RyaW5nLCBDbGFzc1BsdWdpbnMmZ3Q7PC90ZXh0PjxyZWN0IGZpbGw9Im5vbmUiIGhlaWdodD0iNiIgc3R5bGU9InN0cm9rZTojQzgyOTMwO3N0cm9rZS13aWR0aDoxLjA7IiB3aWR0aD0iNiIgeD0iMjM1LjUiIHk9IjI3Ni45NzY2Ii8+PHRleHQgZmlsbD0iIzAwMDAwMCIgZm9udC1mYW1pbHk9InNhbnMtc2VyaWYiIGZvbnQtc2l6ZT0iMTQiIGxlbmd0aEFkanVzdD0ic3BhY2luZyIgdGV4dExlbmd0aD0iMTc1IiB4PSIyNDcuNSIgeT0iMjg0LjIxODgiPnBhcmVudDogSW52b2NhdGlvblBsdWdpbnM8L3RleHQ+PHJlY3QgZmlsbD0ibm9uZSIgaGVpZ2h0PSI2IiBzdHlsZT0ic3Ryb2tlOiNDODI5MzA7c3Ryb2tlLXdpZHRoOjEuMDsiIHdpZHRoPSI2IiB4PSIyMzUuNSIgeT0iMjkxLjk2MDkiLz48dGV4dCBmaWxsPSIjMDAwMDAwIiBmb250LWZhbWlseT0ic2Fucy1zZXJpZiIgZm9udC1zaXplPSIxNCIgbGVuZ3RoQWRqdXN0PSJzcGFjaW5nIiB0ZXh0TGVuZ3RoPSIyNTkiIHg9IjI0Ny41IiB5PSIyOTkuMjAzMSI+ZGVmZXJyZWRSZWdpc3RyYXRpb25zOiBMaXN0Jmx0O1J1bm5hYmxlJmd0OzwvdGV4dD48dGV4dCBmaWxsPSIjMDAwMDAwIiBmb250LWZhbWlseT0ic2Fucy1zZXJpZiIgZm9udC1zaXplPSIxNCIgbGVuZ3RoQWRqdXN0PSJzcGFjaW5nIiB0ZXh0TGVuZ3RoPSIyMSIgeD0iMjQ3LjUiIHk9IjMxNC4xODc1Ij4uLi48L3RleHQ+PHRleHQgZmlsbD0iIzAwMDAwMCIgZm9udC1mYW1pbHk9InNhbnMtc2VyaWYiIGZvbnQtc2l6ZT0iMTQiIGxlbmd0aEFkanVzdD0ic3BhY2luZyIgdGV4dExlbmd0aD0iMjEiIHg9IjI0Ny41IiB5PSIzMjkuMTcxOSI+Li4uPC90ZXh0PjxsaW5lIHN0eWxlPSJzdHJva2U6IzE4MTgxODtzdHJva2Utd2lkdGg6MC41OyIgeDE9IjIyOC41IiB4Mj0iNTg5LjUiIHkxPSIzMzQuOTIxOSIgeTI9IjMzNC45MjE5Ii8+PGVsbGlwc2UgY3g9IjIzOC41IiBjeT0iMzQ3LjkxNDEiIGZpbGw9IiM4NEJFODQiIHJ4PSIzIiByeT0iMyIgc3R5bGU9InN0cm9rZTojMDM4MDQ4O3N0cm9rZS13aWR0aDoxLjA7Ii8+PHRleHQgZmlsbD0iIzAwMDAwMCIgZm9udC1mYW1pbHk9InNhbnMtc2VyaWYiIGZvbnQtc2l6ZT0iMTQiIGxlbmd0aEFkanVzdD0ic3BhY2luZyIgdGV4dExlbmd0aD0iMjg5IiB4PSIyNDcuNSIgeT0iMzUyLjE1NjMiPnJlZ2lzdGVyKFR5cGUsIEludm9jYXRpb25QbHVnaW4sIGJvb2xlYW4pPC90ZXh0PjxlbGxpcHNlIGN4PSIyMzguNSIgY3k9IjM2Mi44OTg0IiBmaWxsPSIjODRCRTg0IiByeD0iMyIgcnk9IjMiIHN0eWxlPSJzdHJva2U6IzAzODA0ODtzdHJva2Utd2lkdGg6MS4wOyIvPjx0ZXh0IGZpbGw9IiMwMDAwMDAiIGZvbnQtZmFtaWx5PSJzYW5zLXNlcmlmIiBmb250LXNpemU9IjE0IiBsZW5ndGhBZGp1c3Q9InNwYWNpbmciIHRleHRMZW5ndGg9IjI3NSIgeD0iMjQ3LjUiIHk9IjM2Ny4xNDA2Ij5sb29rdXBJbnZvY2F0aW9uKC4uLik6IEludm9jYXRpb25QbHVnaW48L3RleHQ+PGVsbGlwc2UgY3g9IjIzOC41IiBjeT0iMzc3Ljg4MjgiIGZpbGw9IiM4NEJFODQiIHJ4PSIzIiByeT0iMyIgc3R5bGU9InN0cm9rZTojMDM4MDQ4O3N0cm9rZS13aWR0aDoxLjA7Ii8+PHRleHQgZmlsbD0iIzAwMDAwMCIgZm9udC1mYW1pbHk9InNhbnMtc2VyaWYiIGZvbnQtc2l6ZT0iMTQiIGxlbmd0aEFkanVzdD0ic3BhY2luZyIgdGV4dExlbmd0aD0iMTM1IiB4PSIyNDcuNSIgeT0iMzgyLjEyNSI+Y2xvc2VSZWdpc3RyYXRpb24oKTwvdGV4dD48L2c+PCEtLWNsYXNzIENsYXNzUGx1Z2lucy0tPjxnIGlkPSJlbGVtX0NsYXNzUGx1Z2lucyI+PHJlY3QgY29kZUxpbmU9IjEyIiBmaWxsPSIjRjFGMUYxIiBoZWlnaHQ9IjEyMi45MjE5IiBpZD0iQ2xhc3NQbHVnaW5zIiByeD0iMi41IiByeT0iMi41IiBzdHlsZT0ic3Ryb2tlOiMxODE4MTg7c3Ryb2tlLXdpZHRoOjAuNTsiIHdpZHRoPSI0MTkiIHg9IjIxNC41IiB5PSI0NzciLz48ZWxsaXBzZSBjeD0iMzc3Ljc1IiBjeT0iNDkzIiBmaWxsPSIjQUREMUIyIiByeD0iMTEiIHJ5PSIxMSIgc3R5bGU9InN0cm9rZTojMTgxODE4O3N0cm9rZS13aWR0aDoxLjA7Ii8+PHBhdGggZD0iTTM3NS4zNzUsNDk3LjI1IEwzNzUuMzc1LDQ5OSBMMzgwLjMxMjUsNDk5IEwzODAuMzEyNSw0OTcuMjUgTDM3NS4zNzUsNDk3LjI1IFogTTM3Ni4wNjI1LDQ5Ny45Mzc1IFEzNzYuMDYyNSw0OTcuOTM3NSAzNzYuMDYyNSw0ODguNzUgTDM3NC4zMTI1LDQ4OC43NSBRMzc0LjMxMjUsNDg4Ljc1IDM3NC4zMTI1LDQ5Ny45Mzc1IEwzNzYuMDYyNSw0OTcuOTM3NSBaIE0zNzkuNjI1LDQ5Ny45Mzc1IEwzODEuMzc1LDQ5Ny45Mzc1IFEzODEuMzc1LDQ5Ny45Mzc1IDM4MS4zNzUsNDk1LjEyNSBMMzc5LjYyNSw0OTUuMTI1IFEzNzkuNjI1LDQ5NS4xMjUgMzc5LjYyNSw0OTcuOTM3NSBaIE0zNzkuNjI1LDQ4OC43NSBRMzc5LjYyNSw0ODguNzUgMzc5LjYyNSw0OTEuNTYyNSBMMzgxLjM3NSw0OTEuNTYyNSBRMzgxLjM3NSw0OTEuNTYyNSAzODEuMzc1LDQ4OC43NSBMMzc5LjYyNSw0ODguNzUgWiBNMzc1LjM3NSw0ODkuNDM3NSBMMzgwLjMxMjUsNDg5LjQzNzUgTDM4MC4zMTI1LDQ4Ny42ODc1IEwzNzUuMzc1LDQ4Ny42ODc1IEwzNzUuMzc1LDQ4OS40Mzc1IFogIiBmaWxsPSIjMDAwMDAwIi8+PHRleHQgZmlsbD0iIzAwMDAwMCIgZm9udC1mYW1pbHk9InNhbnMtc2VyaWYiIGZvbnQtc2l6ZT0iMTQiIGxlbmd0aEFkanVzdD0ic3BhY2luZyIgdGV4dExlbmd0aD0iODQiIHg9IjM5OC4yNSIgeT0iNDk4Ljc0MjIiPkNsYXNzUGx1Z2luczwvdGV4dD48bGluZSBzdHlsZT0ic3Ryb2tlOiMxODE4MTg7c3Ryb2tlLXdpZHRoOjAuNTsiIHgxPSIyMTUuNSIgeDI9IjYzMi41IiB5MT0iNTA5IiB5Mj0iNTA5Ii8+PHJlY3QgZmlsbD0ibm9uZSIgaGVpZ2h0PSI2IiBzdHlsZT0ic3Ryb2tlOiNDODI5MzA7c3Ryb2tlLXdpZHRoOjEuMDsiIHdpZHRoPSI2IiB4PSIyMjIuNSIgeT0iNTE4Ljk5MjIiLz48dGV4dCBmaWxsPSIjMDAwMDAwIiBmb250LWZhbWlseT0ic2Fucy1zZXJpZiIgZm9udC1zaXplPSIxNCIgbGVuZ3RoQWRqdXN0PSJzcGFjaW5nIiB0ZXh0TGVuZ3RoPSIzOTMiIHg9IjIzNC41IiB5PSI1MjYuMjM0NCI+aW52b2NhdGlvblBsdWdpbnM6IEVjb25vbWljTWFwJmx0O1N0cmluZywgSW52b2NhdGlvblBsdWdpbiZndDs8L3RleHQ+PHRleHQgZmlsbD0iIzAwMDAwMCIgZm9udC1mYW1pbHk9InNhbnMtc2VyaWYiIGZvbnQtc2l6ZT0iMTQiIGxlbmd0aEFkanVzdD0ic3BhY2luZyIgdGV4dExlbmd0aD0iMjEiIHg9IjIzNC41IiB5PSI1NDEuMjE4OCI+Li4uPC90ZXh0Pjx0ZXh0IGZpbGw9IiMwMDAwMDAiIGZvbnQtZmFtaWx5PSJzYW5zLXNlcmlmIiBmb250LXNpemU9IjE0IiBsZW5ndGhBZGp1c3Q9InNwYWNpbmciIHRleHRMZW5ndGg9IjIxIiB4PSIyMzQuNSIgeT0iNTU2LjIwMzEiPi4uLjwvdGV4dD48bGluZSBzdHlsZT0ic3Ryb2tlOiMxODE4MTg7c3Ryb2tlLXdpZHRoOjAuNTsiIHgxPSIyMTUuNSIgeDI9IjYzMi41IiB5MT0iNTYxLjk1MzEiIHkyPSI1NjEuOTUzMSIvPjxlbGxpcHNlIGN4PSIyMjUuNSIgY3k9IjU3NC45NDUzIiBmaWxsPSIjODRCRTg0IiByeD0iMyIgcnk9IjMiIHN0eWxlPSJzdHJva2U6IzAzODA0ODtzdHJva2Utd2lkdGg6MS4wOyIvPjx0ZXh0IGZpbGw9IiMwMDAwMDAiIGZvbnQtZmFtaWx5PSJzYW5zLXNlcmlmIiBmb250LXNpemU9IjE0IiBsZW5ndGhBZGp1c3Q9InNwYWNpbmciIHRleHRMZW5ndGg9IjE4NCIgeD0iMjM0LjUiIHk9IjU3OS4xODc1Ij5yZWdpc3RlcihJbnZvY2F0aW9uUGx1Z2luKTwvdGV4dD48ZWxsaXBzZSBjeD0iMjI1LjUiIGN5PSI1ODkuOTI5NyIgZmlsbD0iIzg0QkU4NCIgcng9IjMiIHJ5PSIzIiBzdHlsZT0ic3Ryb2tlOiMwMzgwNDg7c3Ryb2tlLXdpZHRoOjEuMDsiLz48dGV4dCBmaWxsPSIjMDAwMDAwIiBmb250LWZhbWlseT0ic2Fucy1zZXJpZiIgZm9udC1zaXplPSIxNCIgbGVuZ3RoQWRqdXN0PSJzcGFjaW5nIiB0ZXh0TGVuZ3RoPSIyOTAiIHg9IjIzNC41IiB5PSI1OTQuMTcxOSI+Z2V0KFJlc29sdmVkSmF2YU1ldGhvZCk6IEludm9jYXRpb25QbHVnaW48L3RleHQ+PC9nPjwhLS1jbGFzcyBSZWdpc3RyYXRpb24tLT48ZyBpZD0iZWxlbV9SZWdpc3RyYXRpb24iPjxyZWN0IGNvZGVMaW5lPSIyMCIgZmlsbD0iI0YxRjFGMSIgaGVpZ2h0PSIxMzcuOTA2MyIgaWQ9IlJlZ2lzdHJhdGlvbiIgcng9IjIuNSIgcnk9IjIuNSIgc3R5bGU9InN0cm9rZTojMTgxODE4O3N0cm9rZS13aWR0aDowLjU7IiB3aWR0aD0iMjEwIiB4PSIxMjgiIHk9IjciLz48ZWxsaXBzZSBjeD0iMTg2Ljc1IiBjeT0iMjMiIGZpbGw9IiNBREQxQjIiIHJ4PSIxMSIgcnk9IjExIiBzdHlsZT0ic3Ryb2tlOiMxODE4MTg7c3Ryb2tlLXdpZHRoOjEuMDsiLz48cGF0aCBkPSJNMTg0LjM3NSwyNy4yNSBMMTg0LjM3NSwyOSBMMTg5LjMxMjUsMjkgTDE4OS4zMTI1LDI3LjI1IEwxODQuMzc1LDI3LjI1IFogTTE4NS4wNjI1LDI3LjkzNzUgUTE4NS4wNjI1LDI3LjkzNzUgMTg1LjA2MjUsMTguNzUgTDE4My4zMTI1LDE4Ljc1IFExODMuMzEyNSwxOC43NSAxODMuMzEyNSwyNy45Mzc1IEwxODUuMDYyNSwyNy45Mzc1IFogTTE4OC42MjUsMjcuOTM3NSBMMTkwLjM3NSwyNy45Mzc1IFExOTAuMzc1LDI3LjkzNzUgMTkwLjM3NSwyNS4xMjUgTDE4OC42MjUsMjUuMTI1IFExODguNjI1LDI1LjEyNSAxODguNjI1LDI3LjkzNzUgWiBNMTg4LjYyNSwxOC43NSBRMTg4LjYyNSwxOC43NSAxODguNjI1LDIxLjU2MjUgTDE5MC4zNzUsMjEuNTYyNSBRMTkwLjM3NSwyMS41NjI1IDE5MC4zNzUsMTguNzUgTDE4OC42MjUsMTguNzUgWiBNMTg0LjM3NSwxOS40Mzc1IEwxODkuMzEyNSwxOS40Mzc1IEwxODkuMzEyNSwxNy42ODc1IEwxODQuMzc1LDE3LjY4NzUgTDE4NC4zNzUsMTkuNDM3NSBaICIgZmlsbD0iIzAwMDAwMCIvPjx0ZXh0IGZpbGw9IiMwMDAwMDAiIGZvbnQtZmFtaWx5PSJzYW5zLXNlcmlmIiBmb250LXNpemU9IjE0IiBsZW5ndGhBZGp1c3Q9InNwYWNpbmciIHRleHRMZW5ndGg9Ijg0IiB4PSIyMDcuMjUiIHk9IjI4Ljc0MjIiPlJlZ2lzdHJhdGlvbjwvdGV4dD48bGluZSBzdHlsZT0ic3Ryb2tlOiMxODE4MTg7c3Ryb2tlLXdpZHRoOjAuNTsiIHgxPSIxMjkiIHgyPSIzMzciIHkxPSIzOSIgeTI9IjM5Ii8+PHJlY3QgZmlsbD0ibm9uZSIgaGVpZ2h0PSI2IiBzdHlsZT0ic3Ryb2tlOiNDODI5MzA7c3Ryb2tlLXdpZHRoOjEuMDsiIHdpZHRoPSI2IiB4PSIxMzYiIHk9IjQ4Ljk5MjIiLz48dGV4dCBmaWxsPSIjMDAwMDAwIiBmb250LWZhbWlseT0ic2Fucy1zZXJpZiIgZm9udC1zaXplPSIxNCIgbGVuZ3RoQWRqdXN0PSJzcGFjaW5nIiB0ZXh0TGVuZ3RoPSIxODIiIHg9IjE0OCIgeT0iNTYuMjM0NCI+cGx1Z2luczogSW52b2NhdGlvblBsdWdpbnM8L3RleHQ+PHJlY3QgZmlsbD0ibm9uZSIgaGVpZ2h0PSI2IiBzdHlsZT0ic3Ryb2tlOiNDODI5MzA7c3Ryb2tlLXdpZHRoOjEuMDsiIHdpZHRoPSI2IiB4PSIxMzYiIHk9IjYzLjk3NjYiLz48dGV4dCBmaWxsPSIjMDAwMDAwIiBmb250LWZhbWlseT0ic2Fucy1zZXJpZiIgZm9udC1zaXplPSIxNCIgbGVuZ3RoQWRqdXN0PSJzcGFjaW5nIiB0ZXh0TGVuZ3RoPSIxMzMiIHg9IjE0OCIgeT0iNzEuMjE4OCI+ZGVjbGFyaW5nVHlwZTogVHlwZTwvdGV4dD48dGV4dCBmaWxsPSIjMDAwMDAwIiBmb250LWZhbWlseT0ic2Fucy1zZXJpZiIgZm9udC1zaXplPSIxNCIgbGVuZ3RoQWRqdXN0PSJzcGFjaW5nIiB0ZXh0TGVuZ3RoPSIyMSIgeD0iMTQ4IiB5PSI4Ni4yMDMxIj4uLi48L3RleHQ+PHRleHQgZmlsbD0iIzAwMDAwMCIgZm9udC1mYW1pbHk9InNhbnMtc2VyaWYiIGZvbnQtc2l6ZT0iMTQiIGxlbmd0aEFkanVzdD0ic3BhY2luZyIgdGV4dExlbmd0aD0iMjEiIHg9IjE0OCIgeT0iMTAxLjE4NzUiPi4uLjwvdGV4dD48bGluZSBzdHlsZT0ic3Ryb2tlOiMxODE4MTg7c3Ryb2tlLXdpZHRoOjAuNTsiIHgxPSIxMjkiIHgyPSIzMzciIHkxPSIxMDYuOTM3NSIgeTI9IjEwNi45Mzc1Ii8+PGVsbGlwc2UgY3g9IjEzOSIgY3k9IjExOS45Mjk3IiBmaWxsPSIjODRCRTg0IiByeD0iMyIgcnk9IjMiIHN0eWxlPSJzdHJva2U6IzAzODA0ODtzdHJva2Utd2lkdGg6MS4wOyIvPjx0ZXh0IGZpbGw9IiMwMDAwMDAiIGZvbnQtZmFtaWx5PSJzYW5zLXNlcmlmIiBmb250LXNpemU9IjE0IiBsZW5ndGhBZGp1c3Q9InNwYWNpbmciIHRleHRMZW5ndGg9IjE4NCIgeD0iMTQ4IiB5PSIxMjQuMTcxOSI+cmVnaXN0ZXIoSW52b2NhdGlvblBsdWdpbik8L3RleHQ+PGVsbGlwc2UgY3g9IjEzOSIgY3k9IjEzNC45MTQxIiBmaWxsPSIjODRCRTg0IiByeD0iMyIgcnk9IjMiIHN0eWxlPSJzdHJva2U6IzAzODA0ODtzdHJva2Utd2lkdGg6MS4wOyIvPjx0ZXh0IGZpbGw9IiMwMDAwMDAiIGZvbnQtZmFtaWx5PSJzYW5zLXNlcmlmIiBmb250LXNpemU9IjE0IiBsZW5ndGhBZGp1c3Q9InNwYWNpbmciIHRleHRMZW5ndGg9IjE3MCIgeD0iMTQ4IiB5PSIxMzkuMTU2MyI+cmVnaXN0ZXJDb25kaXRpb25hbCguLi4pPC90ZXh0PjwvZz48IS0tY2xhc3MgSW52b2NhdGlvblBsdWdpbi0tPjxnIGlkPSJlbGVtX0ludm9jYXRpb25QbHVnaW4iPjxyZWN0IGNvZGVMaW5lPSIyOSIgZmlsbD0iI0YxRjFGMSIgaGVpZ2h0PSIxNjcuODc1IiBpZD0iSW52b2NhdGlvblBsdWdpbiIgcng9IjIuNSIgcnk9IjIuNSIgc3R5bGU9InN0cm9rZTojMTgxODE4O3N0cm9rZS13aWR0aDowLjU7IiB3aWR0aD0iMzA4IiB4PSI3IiB5PSI2ODkiLz48ZWxsaXBzZSBjeD0iMTAwLjc1IiBjeT0iNzA1IiBmaWxsPSIjQUREMUIyIiByeD0iMTEiIHJ5PSIxMSIgc3R5bGU9InN0cm9rZTojMTgxODE4O3N0cm9rZS13aWR0aDoxLjA7Ii8+PHBhdGggZD0iTTk4LjM3NSw3MDkuMjUgTDk4LjM3NSw3MTEgTDEwMy4zMTI1LDcxMSBMMTAzLjMxMjUsNzA5LjI1IEw5OC4zNzUsNzA5LjI1IFogTTk5LjA2MjUsNzA5LjkzNzUgUTk5LjA2MjUsNzA5LjkzNzUgOTkuMDYyNSw3MDAuNzUgTDk3LjMxMjUsNzAwLjc1IFE5Ny4zMTI1LDcwMC43NSA5Ny4zMTI1LDcwOS45Mzc1IEw5OS4wNjI1LDcwOS45Mzc1IFogTTEwMi42MjUsNzA5LjkzNzUgTDEwNC4zNzUsNzA5LjkzNzUgUTEwNC4zNzUsNzA5LjkzNzUgMTA0LjM3NSw3MDcuMTI1IEwxMDIuNjI1LDcwNy4xMjUgUTEwMi42MjUsNzA3LjEyNSAxMDIuNjI1LDcwOS45Mzc1IFogTTEwMi42MjUsNzAwLjc1IFExMDIuNjI1LDcwMC43NSAxMDIuNjI1LDcwMy41NjI1IEwxMDQuMzc1LDcwMy41NjI1IFExMDQuMzc1LDcwMy41NjI1IDEwNC4zNzUsNzAwLjc1IEwxMDIuNjI1LDcwMC43NSBaIE05OC4zNzUsNzAxLjQzNzUgTDEwMy4zMTI1LDcwMS40Mzc1IEwxMDMuMzEyNSw2OTkuNjg3NSBMOTguMzc1LDY5OS42ODc1IEw5OC4zNzUsNzAxLjQzNzUgWiAiIGZpbGw9IiMwMDAwMDAiLz48dGV4dCBmaWxsPSIjMDAwMDAwIiBmb250LWZhbWlseT0ic2Fucy1zZXJpZiIgZm9udC1zaXplPSIxNCIgbGVuZ3RoQWRqdXN0PSJzcGFjaW5nIiB0ZXh0TGVuZ3RoPSIxMTIiIHg9IjEyMS4yNSIgeT0iNzEwLjc0MjIiPkludm9jYXRpb25QbHVnaW48L3RleHQ+PGxpbmUgc3R5bGU9InN0cm9rZTojMTgxODE4O3N0cm9rZS13aWR0aDowLjU7IiB4MT0iOCIgeDI9IjMxNCIgeTE9IjcyMSIgeTI9IjcyMSIvPjxyZWN0IGZpbGw9Im5vbmUiIGhlaWdodD0iNiIgc3R5bGU9InN0cm9rZTojQzgyOTMwO3N0cm9rZS13aWR0aDoxLjA7IiB3aWR0aD0iNiIgeD0iMTUiIHk9IjczMC45OTIyIi8+PHRleHQgZmlsbD0iIzAwMDAwMCIgZm9udC1mYW1pbHk9InNhbnMtc2VyaWYiIGZvbnQtc2l6ZT0iMTQiIGxlbmd0aEFkanVzdD0ic3BhY2luZyIgdGV4dExlbmd0aD0iODUiIHg9IjI3IiB5PSI3MzguMjM0NCI+bmFtZTogU3RyaW5nPC90ZXh0PjxyZWN0IGZpbGw9Im5vbmUiIGhlaWdodD0iNiIgc3R5bGU9InN0cm9rZTojQzgyOTMwO3N0cm9rZS13aWR0aDoxLjA7IiB3aWR0aD0iNiIgeD0iMTUiIHk9Ijc0NS45NzY2Ii8+PHRleHQgZmlsbD0iIzAwMDAwMCIgZm9udC1mYW1pbHk9InNhbnMtc2VyaWYiIGZvbnQtc2l6ZT0iMTQiIGxlbmd0aEFkanVzdD0ic3BhY2luZyIgdGV4dExlbmd0aD0iMTQ4IiB4PSIyNyIgeT0iNzUzLjIxODgiPmFyZ3VtZW50VHlwZXM6IFR5cGVbXTwvdGV4dD48cmVjdCBmaWxsPSJub25lIiBoZWlnaHQ9IjYiIHN0eWxlPSJzdHJva2U6I0M4MjkzMDtzdHJva2Utd2lkdGg6MS4wOyIgd2lkdGg9IjYiIHg9IjE1IiB5PSI3NjAuOTYwOSIvPjx0ZXh0IGZpbGw9IiMwMDAwMDAiIGZvbnQtZmFtaWx5PSJzYW5zLXNlcmlmIiBmb250LXNpemU9IjE0IiBsZW5ndGhBZGp1c3Q9InNwYWNpbmciIHRleHRMZW5ndGg9IjExOSIgeD0iMjciIHk9Ijc2OC4yMDMxIj5pc1N0YXRpYzogYm9vbGVhbjwvdGV4dD48cmVjdCBmaWxsPSJub25lIiBoZWlnaHQ9IjYiIHN0eWxlPSJzdHJva2U6I0M4MjkzMDtzdHJva2Utd2lkdGg6MS4wOyIgd2lkdGg9IjYiIHg9IjE1IiB5PSI3NzUuOTQ1MyIvPjx0ZXh0IGZpbGw9IiMwMDAwMDAiIGZvbnQtZmFtaWx5PSJzYW5zLXNlcmlmIiBmb250LXNpemU9IjE0IiBsZW5ndGhBZGp1c3Q9InNwYWNpbmciIHRleHRMZW5ndGg9IjE1NCIgeD0iMjciIHk9Ijc4My4xODc1Ij5uZXh0OiBJbnZvY2F0aW9uUGx1Z2luPC90ZXh0Pjx0ZXh0IGZpbGw9IiMwMDAwMDAiIGZvbnQtZmFtaWx5PSJzYW5zLXNlcmlmIiBmb250LXNpemU9IjE0IiBsZW5ndGhBZGp1c3Q9InNwYWNpbmciIHRleHRMZW5ndGg9IjIxIiB4PSIyNyIgeT0iNzk4LjE3MTkiPi4uLjwvdGV4dD48dGV4dCBmaWxsPSIjMDAwMDAwIiBmb250LWZhbWlseT0ic2Fucy1zZXJpZiIgZm9udC1zaXplPSIxNCIgbGVuZ3RoQWRqdXN0PSJzcGFjaW5nIiB0ZXh0TGVuZ3RoPSIyMSIgeD0iMjciIHk9IjgxMy4xNTYzIj4uLi48L3RleHQ+PGxpbmUgc3R5bGU9InN0cm9rZTojMTgxODE4O3N0cm9rZS13aWR0aDowLjU7IiB4MT0iOCIgeDI9IjMxNCIgeTE9IjgxOC45MDYzIiB5Mj0iODE4LjkwNjMiLz48ZWxsaXBzZSBjeD0iMTgiIGN5PSI4MzEuODk4NCIgZmlsbD0iIzg0QkU4NCIgcng9IjMiIHJ5PSIzIiBzdHlsZT0ic3Ryb2tlOiMwMzgwNDg7c3Ryb2tlLXdpZHRoOjEuMDsiLz48dGV4dCBmaWxsPSIjMDAwMDAwIiBmb250LWZhbWlseT0ic2Fucy1zZXJpZiIgZm9udC1zaXplPSIxNCIgbGVuZ3RoQWRqdXN0PSJzcGFjaW5nIiB0ZXh0TGVuZ3RoPSIxNzgiIHg9IjI3IiB5PSI4MzYuMTQwNiI+cmV3cml0ZVJlY2VpdmVyVHlwZShUeXBlKTwvdGV4dD48ZWxsaXBzZSBjeD0iMTgiIGN5PSI4NDYuODgyOCIgZmlsbD0iIzg0QkU4NCIgcng9IjMiIHJ5PSIzIiBzdHlsZT0ic3Ryb2tlOiMwMzgwNDg7c3Ryb2tlLXdpZHRoOjEuMDsiLz48dGV4dCBmaWxsPSIjMDAwMDAwIiBmb250LWZhbWlseT0ic2Fucy1zZXJpZiIgZm9udC1zaXplPSIxNCIgbGVuZ3RoQWRqdXN0PSJzcGFjaW5nIiB0ZXh0TGVuZ3RoPSIyODIiIHg9IjI3IiB5PSI4NTEuMTI1Ij5hcHBseShHcmFwaEJ1aWxkZXJDb250ZXh0LCAuLi4pOiBib29sZWFuPC90ZXh0PjwvZz48IS0tY2xhc3MgR3JhcGhCdWlsZGVyUGx1Z2luLS0+PGcgaWQ9ImVsZW1fR3JhcGhCdWlsZGVyUGx1Z2luIj48cmVjdCBmaWxsPSIjRjFGMUYxIiBoZWlnaHQ9IjQ4IiBpZD0iR3JhcGhCdWlsZGVyUGx1Z2luIiByeD0iMi41IiByeT0iMi41IiBzdHlsZT0ic3Ryb2tlOiMxODE4MTg7c3Ryb2tlLXdpZHRoOjAuNTsiIHdpZHRoPSIxNTgiIHg9IjgyIiB5PSI5MTgiLz48ZWxsaXBzZSBjeD0iOTciIGN5PSI5MzQiIGZpbGw9IiNBREQxQjIiIHJ4PSIxMSIgcnk9IjExIiBzdHlsZT0ic3Ryb2tlOiMxODE4MTg7c3Ryb2tlLXdpZHRoOjEuMDsiLz48cGF0aCBkPSJNOTQuNjI1LDkzOC4yNSBMOTQuNjI1LDk0MCBMOTkuNTYyNSw5NDAgTDk5LjU2MjUsOTM4LjI1IEw5NC42MjUsOTM4LjI1IFogTTk1LjMxMjUsOTM4LjkzNzUgUTk1LjMxMjUsOTM4LjkzNzUgOTUuMzEyNSw5MjkuNzUgTDkzLjU2MjUsOTI5Ljc1IFE5My41NjI1LDkyOS43NSA5My41NjI1LDkzOC45Mzc1IEw5NS4zMTI1LDkzOC45Mzc1IFogTTk4Ljg3NSw5MzguOTM3NSBMMTAwLjYyNSw5MzguOTM3NSBRMTAwLjYyNSw5MzguOTM3NSAxMDAuNjI1LDkzNi4xMjUgTDk4Ljg3NSw5MzYuMTI1IFE5OC44NzUsOTM2LjEyNSA5OC44NzUsOTM4LjkzNzUgWiBNOTguODc1LDkyOS43NSBROTguODc1LDkyOS43NSA5OC44NzUsOTMyLjU2MjUgTDEwMC42MjUsOTMyLjU2MjUgUTEwMC42MjUsOTMyLjU2MjUgMTAwLjYyNSw5MjkuNzUgTDk4Ljg3NSw5MjkuNzUgWiBNOTQuNjI1LDkzMC40Mzc1IEw5OS41NjI1LDkzMC40Mzc1IEw5OS41NjI1LDkyOC42ODc1IEw5NC42MjUsOTI4LjY4NzUgTDk0LjYyNSw5MzAuNDM3NSBaICIgZmlsbD0iIzAwMDAwMCIvPjx0ZXh0IGZpbGw9IiMwMDAwMDAiIGZvbnQtZmFtaWx5PSJzYW5zLXNlcmlmIiBmb250LXNpemU9IjE0IiBsZW5ndGhBZGp1c3Q9InNwYWNpbmciIHRleHRMZW5ndGg9IjEyNiIgeD0iMTExIiB5PSI5MzkuNzQyMiI+R3JhcGhCdWlsZGVyUGx1Z2luPC90ZXh0PjxsaW5lIHN0eWxlPSJzdHJva2U6IzE4MTgxODtzdHJva2Utd2lkdGg6MC41OyIgeDE9IjgzIiB4Mj0iMjM5IiB5MT0iOTUwIiB5Mj0iOTUwIi8+PGxpbmUgc3R5bGU9InN0cm9rZTojMTgxODE4O3N0cm9rZS13aWR0aDowLjU7IiB4MT0iODMiIHgyPSIyMzkiIHkxPSI5NTgiIHkyPSI5NTgiLz48L2c+PGcgaWQ9ImVsZW1fR01OMTQiPjxwYXRoIGQ9Ik02NjQuNSw1MCBMNjY0LjUsMTAxLjc0MjIgQTAsMCAwIDAgMCA2NjQuNSwxMDEuNzQyMiBMNzUwLjg4LDEwMS43NDIyIEw1NTIuMjMsMjE5Ljc5IEw3NTguODgsMTAxLjc0MjIgTDkzMS41LDEwMS43NDIyIEEwLDAgMCAwIDAgOTMxLjUsMTAxLjc0MjIgTDkzMS41LDYwIEw5MjEuNSw1MCBMNjY0LjUsNTAgQTAsMCAwIDAgMCA2NjQuNSw1MCAiIGZpbGw9IiNGRUZGREQiIHN0eWxlPSJzdHJva2U6IzE4MTgxODtzdHJva2Utd2lkdGg6MC41OyIvPjxwYXRoIGQ9Ik05MjEuNSw1MCBMOTIxLjUsNjAgTDkzMS41LDYwIEw5MjEuNSw1MCAiIGZpbGw9IiNGRUZGREQiIHN0eWxlPSJzdHJva2U6IzE4MTgxODtzdHJva2Utd2lkdGg6MC41OyIvPjx0ZXh0IGZpbGw9IiMwMDAwMDAiIGZvbnQtZmFtaWx5PSJzYW5zLXNlcmlmIiBmb250LXNpemU9IjEzIiBsZW5ndGhBZGp1c3Q9InNwYWNpbmciIHRleHRMZW5ndGg9IjI0NiIgeD0iNjcwLjUiIHk9IjY3LjI4OTEiPk1hbmFnZXMgcGx1Z2lucyB0aHJvdWdoIENsYXNzUGx1Z2luczwvdGV4dD48dGV4dCBmaWxsPSIjMDAwMDAwIiBmb250LWZhbWlseT0ic2Fucy1zZXJpZiIgZm9udC1zaXplPSIxMyIgbGVuZ3RoQWRqdXN0PSJzcGFjaW5nIiB0ZXh0TGVuZ3RoPSIyMzciIHg9IjY3MC41IiB5PSI4MS4yMDMxIj5IYW5kbGVzIGRlZmVycmVkL2xhdGUgcmVnaXN0cmF0aW9uczwvdGV4dD48dGV4dCBmaWxsPSIjMDAwMDAwIiBmb250LWZhbWlseT0ic2Fucy1zZXJpZiIgZm9udC1zaXplPSIxMyIgbGVuZ3RoQWRqdXN0PSJzcGFjaW5nIiB0ZXh0TGVuZ3RoPSIyMjQiIHg9IjY3MC41IiB5PSI5NS4xMTcyIj5QYXJlbnQgZm9yIHBsdWdpbiBsb29rdXAgY2hhaW5pbmc8L3RleHQ+PC9nPjxnIGlkPSJlbGVtX0dNTjE3Ij48cGF0aCBkPSJNNDA3LDc1NCBMNDA3LDc5MS44MjgxIEEwLDAgMCAwIDAgNDA3LDc5MS44MjgxIEw2OTksNzkxLjgyODEgQTAsMCAwIDAgMCA2OTksNzkxLjgyODEgTDY5OSw3NjQgTDY4OSw3NTQgTDU0Ni45Miw3NTQgTDQ1Ny43Miw2MDAuMjggTDUzOC45Miw3NTQgTDQwNyw3NTQgQTAsMCAwIDAgMCA0MDcsNzU0ICIgZmlsbD0iI0ZFRkZERCIgc3R5bGU9InN0cm9rZTojMTgxODE4O3N0cm9rZS13aWR0aDowLjU7Ii8+PHBhdGggZD0iTTY4OSw3NTQgTDY4OSw3NjQgTDY5OSw3NjQgTDY4OSw3NTQgIiBmaWxsPSIjRkVGRkREIiBzdHlsZT0ic3Ryb2tlOiMxODE4MTg7c3Ryb2tlLXdpZHRoOjAuNTsiLz48dGV4dCBmaWxsPSIjMDAwMDAwIiBmb250LWZhbWlseT0ic2Fucy1zZXJpZiIgZm9udC1zaXplPSIxMyIgbGVuZ3RoQWRqdXN0PSJzcGFjaW5nIiB0ZXh0TGVuZ3RoPSIyNzEiIHg9IjQxMyIgeT0iNzcxLjI4OTEiPlN0b3JlcyBJbnZvY2F0aW9uUGx1Z2lucyBwZXIgbWV0aG9kIG5hbWU8L3RleHQ+PHRleHQgZmlsbD0iIzAwMDAwMCIgZm9udC1mYW1pbHk9InNhbnMtc2VyaWYiIGZvbnQtc2l6ZT0iMTMiIGxlbmd0aEFkanVzdD0ic3BhY2luZyIgdGV4dExlbmd0aD0iMjM2IiB4PSI0MTMiIHk9Ijc4NS4yMDMxIj5Vc2VzIGxpbmtlZCBsaXN0IHN0cnVjdHVyZSB2aWEgbmV4dDwvdGV4dD48L2c+PGcgaWQ9ImVsZW1fR01OMjAiPjxwYXRoIGQ9Ik0zNzMsNTAgTDM3Myw3MiBMMzM4LjIxLDc2IEwzNzMsODAgTDM3MywxMDEuNzQyMiBBMCwwIDAgMCAwIDM3MywxMDEuNzQyMiBMNjI5LDEwMS43NDIyIEEwLDAgMCAwIDAgNjI5LDEwMS43NDIyIEw2MjksNjAgTDYxOSw1MCBMMzczLDUwIEEwLDAgMCAwIDAgMzczLDUwICIgZmlsbD0iI0ZFRkZERCIgc3R5bGU9InN0cm9rZTojMTgxODE4O3N0cm9rZS13aWR0aDowLjU7Ii8+PHBhdGggZD0iTTYxOSw1MCBMNjE5LDYwIEw2MjksNjAgTDYxOSw1MCAiIGZpbGw9IiNGRUZGREQiIHN0eWxlPSJzdHJva2U6IzE4MTgxODtzdHJva2Utd2lkdGg6MC41OyIvPjx0ZXh0IGZpbGw9IiMwMDAwMDAiIGZvbnQtZmFtaWx5PSJzYW5zLXNlcmlmIiBmb250LXNpemU9IjEzIiBsZW5ndGhBZGp1c3Q9InNwYWNpbmciIHRleHRMZW5ndGg9IjIzNSIgeD0iMzc5IiB5PSI2Ny4yODkxIj5FbnRyeSBwb2ludCBmb3IgcGx1Z2luIHJlZ2lzdHJhdGlvbjwvdGV4dD48dGV4dCBmaWxsPSIjMDAwMDAwIiBmb250LWZhbWlseT0ic2Fucy1zZXJpZiIgZm9udC1zaXplPSIxMyIgbGVuZ3RoQWRqdXN0PSJzcGFjaW5nIiB0ZXh0TGVuZ3RoPSIyMjMiIHg9IjM3OSIgeT0iODEuMjAzMSI+QmluZHMgdG8gc3BlY2lmaWMgZGVjbGFyaW5nIGNsYXNzPC90ZXh0Pjx0ZXh0IGZpbGw9IiMwMDAwMDAiIGZvbnQtZmFtaWx5PSJzYW5zLXNlcmlmIiBmb250LXNpemU9IjEzIiBsZW5ndGhBZGp1c3Q9InNwYWNpbmciIHRleHRMZW5ndGg9IjIyMiIgeD0iMzc5IiB5PSI5NS4xMTcyIj5IYW5kbGVzIGNvbmRpdGlvbmFsIHJlZ2lzdHJhdGlvbnM8L3RleHQ+PC9nPjwhLS1yZXZlcnNlIGxpbmsgSW52b2NhdGlvblBsdWdpbnMgdG8gQ2xhc3NQbHVnaW5zLS0+PGcgaWQ9ImxpbmtfSW52b2NhdGlvblBsdWdpbnNfQ2xhc3NQbHVnaW5zIj48cGF0aCBjb2RlTGluZT0iNDAiIGQ9Ik00MTUuMTQ1NCw0MDAuMjU0OSBDNDE3LjAzNTQsNDI5LjQ0NDkgNDE4LjMzLDQ0OS42OCA0MjAuMDgsNDc2LjY4ICIgZmlsbD0ibm9uZSIgaWQ9Ikludm9jYXRpb25QbHVnaW5zLWJhY2t0by1DbGFzc1BsdWdpbnMiIHN0eWxlPSJzdHJva2U6IzE4MTgxODtzdHJva2Utd2lkdGg6MS4wOyIvPjxwb2x5Z29uIGZpbGw9IiMxODE4MTgiIHBvaW50cz0iNDE0LjM3LDM4OC4yOCw0MTAuNzY2LDM5NC41MjU5LDQxNS4xNDU0LDQwMC4yNTQ5LDQxOC43NDkzLDM5NC4wMDksNDE0LjM3LDM4OC4yOCIgc3R5bGU9InN0cm9rZTojMTgxODE4O3N0cm9rZS13aWR0aDoxLjA7Ii8+PHRleHQgZmlsbD0iIzAwMDAwMCIgZm9udC1mYW1pbHk9InNhbnMtc2VyaWYiIGZvbnQtc2l6ZT0iMTMiIGxlbmd0aEFkanVzdD0ic3BhY2luZyIgdGV4dExlbmd0aD0iNTQiIHg9IjQ0OSIgeT0iNDMxLjI4OTEiPmNvbnRhaW5zPC90ZXh0Pjx0ZXh0IGZpbGw9IiMwMDAwMDAiIGZvbnQtZmFtaWx5PSJzYW5zLXNlcmlmIiBmb250LXNpemU9IjEzIiBsZW5ndGhBZGp1c3Q9InNwYWNpbmciIHRleHRMZW5ndGg9IjExNCIgeD0iNDE5IiB5PSI0NDUuMjAzMSI+dmlhIHJlZ2lzdHJhdGlvbnM8L3RleHQ+PHRleHQgZmlsbD0iIzAwMDAwMCIgZm9udC1mYW1pbHk9InNhbnMtc2VyaWYiIGZvbnQtc2l6ZT0iMTMiIGxlbmd0aEFkanVzdD0ic3BhY2luZyIgdGV4dExlbmd0aD0iNiIgeD0iNDEzLjE5MzQiIHk9IjQ2Ny4yNzkxIj4qPC90ZXh0PjwvZz48IS0tcmV2ZXJzZSBsaW5rIENsYXNzUGx1Z2lucyB0byBJbnZvY2F0aW9uUGx1Z2luLS0+PGcgaWQ9ImxpbmtfQ2xhc3NQbHVnaW5zX0ludm9jYXRpb25QbHVnaW4iPjxwYXRoIGNvZGVMaW5lPSI0MSIgZD0iTTM0Ni4yNTA1LDYwOC4yMjkyIEMzMTUuNjYwNSw2MzUuMjc5MiAyODguMTQsNjU5LjYgMjU1LjA4LDY4OC44MyAiIGZpbGw9Im5vbmUiIGlkPSJDbGFzc1BsdWdpbnMtYmFja3RvLUludm9jYXRpb25QbHVnaW4iIHN0eWxlPSJzdHJva2U6IzE4MTgxODtzdHJva2Utd2lkdGg6MS4wOyIvPjxwb2x5Z29uIGZpbGw9IiMxODE4MTgiIHBvaW50cz0iMzU1LjI0LDYwMC4yOCwzNDguMDk1NSw2MDEuMjU4MSwzNDYuMjUwNSw2MDguMjI5MiwzNTMuMzk1LDYwNy4yNTExLDM1NS4yNCw2MDAuMjgiIHN0eWxlPSJzdHJva2U6IzE4MTgxODtzdHJva2Utd2lkdGg6MS4wOyIvPjx0ZXh0IGZpbGw9IiMwMDAwMDAiIGZvbnQtZmFtaWx5PSJzYW5zLXNlcmlmIiBmb250LXNpemU9IjEzIiBsZW5ndGhBZGp1c3Q9InNwYWNpbmciIHRleHRMZW5ndGg9IjQ4IiB4PSIzNjQuNSIgeT0iNjQzLjI4OTEiPm1hbmFnZXM8L3RleHQ+PHRleHQgZmlsbD0iIzAwMDAwMCIgZm9udC1mYW1pbHk9InNhbnMtc2VyaWYiIGZvbnQtc2l6ZT0iMTMiIGxlbmd0aEFkanVzdD0ic3BhY2luZyIgdGV4dExlbmd0aD0iMTQxIiB4PSIzMTgiIHk9IjY1Ny4yMDMxIj52aWEgaW52b2NhdGlvblBsdWdpbnM8L3RleHQ+PHRleHQgZmlsbD0iIzAwMDAwMCIgZm9udC1mYW1pbHk9InNhbnMtc2VyaWYiIGZvbnQtc2l6ZT0iMTMiIGxlbmd0aEFkanVzdD0ic3BhY2luZyIgdGV4dExlbmd0aD0iNiIgeD0iMjU4LjA0NTciIHk9IjY3OS4yNDQ5Ij4qPC90ZXh0PjwvZz48IS0tbGluayBJbnZvY2F0aW9uUGx1Z2luIHRvIEludm9jYXRpb25QbHVnaW4tLT48ZyBpZD0ibGlua19JbnZvY2F0aW9uUGx1Z2luX0ludm9jYXRpb25QbHVnaW4iPjxwYXRoIGNvZGVMaW5lPSI0MiIgZD0iTTMxNS4yNSw3NTQuMDQgQzMzNi4xMSw3NTcuMjIgMzUwLDc2My41NCAzNTAsNzczIEMzNTAsNzgyLjQ2IDM0Mi4wNDE1LDc4Ny44NzU4IDMyMS4xODE1LDc5MS4wNTU4ICIgZmlsbD0ibm9uZSIgaWQ9Ikludm9jYXRpb25QbHVnaW4tdG8tSW52b2NhdGlvblBsdWdpbiIgc3R5bGU9InN0cm9rZTojMTgxODE4O3N0cm9rZS13aWR0aDoxLjA7Ii8+PHBvbHlnb24gZmlsbD0iIzE4MTgxOCIgcG9pbnRzPSIzMTUuMjUsNzkxLjk2LDMyNC43NSw3OTQuNTU4LDMyMC4xOTI5LDc5MS4yMDY1LDMyMy41NDQ0LDc4Ni42NDk0LDMxNS4yNSw3OTEuOTYiIHN0eWxlPSJzdHJva2U6IzE4MTgxODtzdHJva2Utd2lkdGg6MS4wOyIvPjx0ZXh0IGZpbGw9IiMwMDAwMDAiIGZvbnQtZmFtaWx5PSJzYW5zLXNlcmlmIiBmb250LXNpemU9IjEzIiBsZW5ndGhBZGp1c3Q9InNwYWNpbmciIHRleHRMZW5ndGg9IjI3IiB4PSIzNTYiIHk9Ijc3OC43ODkxIj5uZXh0PC90ZXh0PjwvZz48IS0tcmV2ZXJzZSBsaW5rIEludm9jYXRpb25QbHVnaW5zIHRvIFJlZ2lzdHJhdGlvbi0tPjxnIGlkPSJsaW5rX0ludm9jYXRpb25QbHVnaW5zX1JlZ2lzdHJhdGlvbiI+PHBhdGggY29kZUxpbmU9IjQ0IiBkPSJNMjk2LjYyMjgsMjExLjA1MjEgQzI4Ny42MDI4LDIwMS41NjIxIDI4Ny4zOCwyMDAuMjggMjgwLDE5MCBDMjcwLjI3LDE3Ni40NSAyNjIuMDksMTYwLjU5IDI1NS40MiwxNDUuMSAiIGZpbGw9Im5vbmUiIGlkPSJJbnZvY2F0aW9uUGx1Z2lucy1iYWNrdG8tUmVnaXN0cmF0aW9uIiBzdHlsZT0ic3Ryb2tlOiMxODE4MTg7c3Ryb2tlLXdpZHRoOjEuMDsiLz48cG9seWdvbiBmaWxsPSJub25lIiBwb2ludHM9IjMwNC44OSwyMTkuNzUsMzAzLjY1NTcsMjEyLjY0NTMsMjk2LjYyMjgsMjExLjA1MjEsMjk3Ljg1NzEsMjE4LjE1NjgsMzA0Ljg5LDIxOS43NSIgc3R5bGU9InN0cm9rZTojMTgxODE4O3N0cm9rZS13aWR0aDoxLjA7Ii8+PHRleHQgZmlsbD0iIzAwMDAwMCIgZm9udC1mYW1pbHk9InNhbnMtc2VyaWYiIGZvbnQtc2l6ZT0iMTMiIGxlbmd0aEFkanVzdD0ic3BhY2luZyIgdGV4dExlbmd0aD0iNDgiIHg9IjI4MSIgeT0iMTg4LjI4OTEiPmNyZWF0ZXM8L3RleHQ+PC9nPjwhLS1saW5rIFJlZ2lzdHJhdGlvbiB0byBJbnZvY2F0aW9uUGx1Z2lucy0tPjxnIGlkPSJsaW5rX1JlZ2lzdHJhdGlvbl9JbnZvY2F0aW9uUGx1Z2lucyI+PHBhdGggY29kZUxpbmU9IjQ1IiBkPSJNMzA3Ljk5LDE0NS4xOSBDMzE3LjE2LDE1NC44MyAzMjYuMDgsMTY0LjkxIDMzNCwxNzUgQzM0NC44OSwxODguODggMzUyLjE4ODgsMTk5LjM4MTkgMzYxLjYyODgsMjE0LjgxMTkgIiBmaWxsPSJub25lIiBpZD0iUmVnaXN0cmF0aW9uLXRvLUludm9jYXRpb25QbHVnaW5zIiBzdHlsZT0ic3Ryb2tlOiMxODE4MTg7c3Ryb2tlLXdpZHRoOjEuMDsiLz48cG9seWdvbiBmaWxsPSIjMTgxODE4IiBwb2ludHM9IjM2NC43NiwyMTkuOTMsMzYzLjQ3NTIsMjEwLjE2NTMsMzYyLjE1MDYsMjE1LjY2NDksMzU2LjY1MSwyMTQuMzQwMywzNjQuNzYsMjE5LjkzIiBzdHlsZT0ic3Ryb2tlOiMxODE4MTg7c3Ryb2tlLXdpZHRoOjEuMDsiLz48dGV4dCBmaWxsPSIjMDAwMDAwIiBmb250LWZhbWlseT0ic2Fucy1zZXJpZiIgZm9udC1zaXplPSIxMyIgbGVuZ3RoQWRqdXN0PSJzcGFjaW5nIiB0ZXh0TGVuZ3RoPSI4MSIgeD0iMzQ1IiB5PSIxODguMjg5MSI+cmVnaXN0ZXJzIHRvPC90ZXh0PjwvZz48IS0tbGluayBSZWdpc3RyYXRpb24gdG8gSW52b2NhdGlvblBsdWdpbi0tPjxnIGlkPSJsaW5rX1JlZ2lzdHJhdGlvbl9JbnZvY2F0aW9uUGx1Z2luIj48cGF0aCBjb2RlTGluZT0iNDYiIGQ9Ik0yMjEuMDEsMTQ1LjIzIEMyMTcuMTMsMTY4Ljg2IDIxMy4wNSwxOTUuNTUgMjEwLDIyMCBDMTg5LjM1LDM4NS42NCAxNzQuNjEyNCw1NzQuMzI0OSAxNjYuOTcyNCw2ODIuNTg0OSAiIGZpbGw9Im5vbmUiIGlkPSJSZWdpc3RyYXRpb24tdG8tSW52b2NhdGlvblBsdWdpbiIgc3R5bGU9InN0cm9rZTojMTgxODE4O3N0cm9rZS13aWR0aDoxLjA7c3Ryb2tlLWRhc2hhcnJheTo3LjAsNy4wOyIvPjxwb2x5Z29uIGZpbGw9IiMxODE4MTgiIHBvaW50cz0iMTY2LjU1LDY4OC41NywxNzEuMTczNiw2NzkuODczOSwxNjYuOTAyLDY4My41ODI0LDE2My4xOTM1LDY3OS4zMTA3LDE2Ni41NSw2ODguNTciIHN0eWxlPSJzdHJva2U6IzE4MTgxODtzdHJva2Utd2lkdGg6MS4wOyIvPjx0ZXh0IGZpbGw9IiMwMDAwMDAiIGZvbnQtZmFtaWx5PSJzYW5zLXNlcmlmIiBmb250LXNpemU9IjEzIiBsZW5ndGhBZGp1c3Q9InNwYWNpbmciIHRleHRMZW5ndGg9Ijc2IiB4PSIxOTAiIHk9IjQzMS4yODkxIj5jcmVhdGVzIGFuZDwvdGV4dD48dGV4dCBmaWxsPSIjMDAwMDAwIiBmb250LWZhbWlseT0ic2Fucy1zZXJpZiIgZm9udC1zaXplPSIxMyIgbGVuZ3RoQWRqdXN0PSJzcGFjaW5nIiB0ZXh0TGVuZ3RoPSI2MSIgeD0iMTk3LjUiIHk9IjQ0NS4yMDMxIj5yZWdpc3RlcnM8L3RleHQ+PC9nPjwhLS1saW5rIEludm9jYXRpb25QbHVnaW4gdG8gR3JhcGhCdWlsZGVyUGx1Z2luLS0+PGcgaWQ9ImxpbmtfSW52b2NhdGlvblBsdWdpbl9HcmFwaEJ1aWxkZXJQbHVnaW4iPjxwYXRoIGNvZGVMaW5lPSI0OCIgZD0iTTE2MSw4NTcuMDEgQzE2MSw4NzkuNDQgMTYxLDg4My45MiAxNjEsODk5Ljk3ICIgZmlsbD0ibm9uZSIgaWQ9Ikludm9jYXRpb25QbHVnaW4tdG8tR3JhcGhCdWlsZGVyUGx1Z2luIiBzdHlsZT0ic3Ryb2tlOiMxODE4MTg7c3Ryb2tlLXdpZHRoOjEuMDsiLz48cG9seWdvbiBmaWxsPSJub25lIiBwb2ludHM9IjE2MSw5MTcuOTcsMTY3LDg5OS45NywxNTUsODk5Ljk3LDE2MSw5MTcuOTciIHN0eWxlPSJzdHJva2U6IzE4MTgxODtzdHJva2Utd2lkdGg6MS4wOyIvPjwvZz48IS0tU1JDPVtaTEhEUnppbTNCdHhMbjB6OUxzSXRPcVlYblI1RmgwMEhSQVRyWHFLY1I2NW9mOFdvVGMyUlZ6emIybXRfWWdtWW5EUnZFRlpVd0l1UEN4MTl0Tk1kN2NYclBEaUlnNFNfQ3UwcmMybjVDeFJVRTlvVUVIUXdMaG03SkR0MXMtNUFiVm00MDFJclpPYzZNUEgtTm1BNmF5QkZBNnJNRW83cTVfZXZNeFZBQ01FNFdGRVBoRVh2eGo0MFV0WXd5TldRV0F3V2dGTTRmYlFuY1lmektqWmhhNEJXYmJFZ1NIT0JoTjNGZXQ1Q2pOemNzS3l3ajlsQmFhWW5idERvcEFrRURsSUVBWmplS0lfc0FGSnllcDVQdFBjRV9JTEJrUXg2QjNqenZCT2NleFpNc1BHUFkwU25DcVhGRi1WUHRWeWU1S1htWTZKS1V1bmhONXNlZ1BPSklMUmxVODdQaWtjZmlhOUI1bkJ2bGtGTGREdHkwSjB5eXhpNVcxXy1KVDVRR2QtakNBSm5IcDU2TXEwWjVGS3FjVjZvQ2xZV3NNY2tjLTRCNjhaZFoxTnEweERqTFBnUHhlYmotaXJ0RHBVM0VTYTF2ZTdwLVpsaXBlQkRib1lSMTNRdkt5YW9nNWNZZk1PODJQM0QtNDJ3X0xzM1lROERDVFNLLU4xbDExaFl5b1pvbVFWdnMxM1l2dHYzaG1VUGNtc2lxR0lFWjFMRkFsTng2b2thSnpSd0RrSVZDc0t6YVpMM0VaSngzWmxNaU13Y0dUVk1Uc0tyUzBTMmxqODMySTVUSFZIVXFjeUhZTzFGQ0xCMzR4UTlobnFqRzJsb0RhbWlnV0EyOUdJaVFGc05qVTFzd1pVbU1rQlNyVWlHR2pydEVzdTJuSndwTDZXNUVlNTJfZm43ZVhIbXRyWjRTOEtIMno3UFFxZUFuLWd6WnFXZzRWYnhHTUM1aUNjeDMzZ05nV1lFMFpFODFTZG1ReXQwaUpieFVkNWhzaS1LZ2taejB5MF0tLT48L2c+PC9zdmc+;" parent="1" vertex="1">
            <mxGeometry x="144.41" y="9937" width="549.59" height="570.1" as="geometry" />
          </mxCell>
        </UserObject>
        <mxCell id="tS4n0tbAUUS5ZLLJwk-N-2" value="Registeration" style="swimlane;fontStyle=1;align=center;verticalAlign=top;childLayout=stackLayout;horizontal=1;startSize=26;horizontalStack=0;resizeParent=1;resizeParentMax=0;resizeLast=0;collapsible=1;marginBottom=0;whiteSpace=wrap;html=1;fillColor=#dae8fc;strokeColor=#6c8ebf;" parent="1" vertex="1">
          <mxGeometry x="120" y="9410" width="200" height="164" as="geometry" />
        </mxCell>
        <mxCell id="tS4n0tbAUUS5ZLLJwk-N-3" value="+ plugins: InvocationPlugins" style="text;strokeColor=none;fillColor=none;align=left;verticalAlign=top;spacingLeft=4;spacingRight=4;overflow=hidden;rotatable=0;points=[[0,0.5],[1,0.5]];portConstraint=eastwest;whiteSpace=wrap;html=1;" parent="tS4n0tbAUUS5ZLLJwk-N-2" vertex="1">
          <mxGeometry y="26" width="200" height="26" as="geometry" />
        </mxCell>
        <mxCell id="tS4n0tbAUUS5ZLLJwk-N-6" value="+ declaringType: Type" style="text;strokeColor=none;fillColor=none;align=left;verticalAlign=top;spacingLeft=4;spacingRight=4;overflow=hidden;rotatable=0;points=[[0,0.5],[1,0.5]];portConstraint=eastwest;whiteSpace=wrap;html=1;" parent="tS4n0tbAUUS5ZLLJwk-N-2" vertex="1">
          <mxGeometry y="52" width="200" height="26" as="geometry" />
        </mxCell>
        <mxCell id="tS4n0tbAUUS5ZLLJwk-N-7" value="&lt;font style=&quot;font-size: 16px;&quot;&gt;&lt;b&gt;...&lt;/b&gt;&lt;/font&gt;" style="text;strokeColor=none;fillColor=none;align=left;verticalAlign=top;spacingLeft=4;spacingRight=4;overflow=hidden;rotatable=0;points=[[0,0.5],[1,0.5]];portConstraint=eastwest;whiteSpace=wrap;html=1;" parent="tS4n0tbAUUS5ZLLJwk-N-2" vertex="1">
          <mxGeometry y="78" width="200" height="26" as="geometry" />
        </mxCell>
        <mxCell id="tS4n0tbAUUS5ZLLJwk-N-4" value="" style="line;strokeWidth=1;fillColor=none;align=left;verticalAlign=middle;spacingTop=-1;spacingLeft=3;spacingRight=3;rotatable=0;labelPosition=right;points=[];portConstraint=eastwest;strokeColor=inherit;" parent="tS4n0tbAUUS5ZLLJwk-N-2" vertex="1">
          <mxGeometry y="104" width="200" height="8" as="geometry" />
        </mxCell>
        <mxCell id="tS4n0tbAUUS5ZLLJwk-N-5" value="+ register(InvocationPlugin)" style="text;strokeColor=none;fillColor=none;align=left;verticalAlign=top;spacingLeft=4;spacingRight=4;overflow=hidden;rotatable=0;points=[[0,0.5],[1,0.5]];portConstraint=eastwest;whiteSpace=wrap;html=1;" parent="tS4n0tbAUUS5ZLLJwk-N-2" vertex="1">
          <mxGeometry y="112" width="200" height="26" as="geometry" />
        </mxCell>
        <mxCell id="tS4n0tbAUUS5ZLLJwk-N-8" value="&lt;b style=&quot;font-size: 16px;&quot;&gt;...&lt;/b&gt;" style="text;strokeColor=none;fillColor=none;align=left;verticalAlign=top;spacingLeft=4;spacingRight=4;overflow=hidden;rotatable=0;points=[[0,0.5],[1,0.5]];portConstraint=eastwest;whiteSpace=wrap;html=1;" parent="tS4n0tbAUUS5ZLLJwk-N-2" vertex="1">
          <mxGeometry y="138" width="200" height="26" as="geometry" />
        </mxCell>
        <mxCell id="tS4n0tbAUUS5ZLLJwk-N-9" value="InvocationPlugins&amp;nbsp;" style="swimlane;fontStyle=1;align=center;verticalAlign=top;childLayout=stackLayout;horizontal=1;startSize=26;horizontalStack=0;resizeParent=1;resizeParentMax=0;resizeLast=0;collapsible=1;marginBottom=0;whiteSpace=wrap;html=1;fillColor=#d5e8d4;strokeColor=#82b366;" parent="1" vertex="1">
          <mxGeometry x="428.75" y="9410" width="290" height="164" as="geometry" />
        </mxCell>
        <mxCell id="tS4n0tbAUUS5ZLLJwk-N-10" value="- registrations: EconomicMap&amp;lt;String, ClassPlugins&amp;gt;" style="text;strokeColor=none;fillColor=none;align=left;verticalAlign=top;spacingLeft=4;spacingRight=4;overflow=hidden;rotatable=0;points=[[0,0.5],[1,0.5]];portConstraint=eastwest;whiteSpace=wrap;html=1;" parent="tS4n0tbAUUS5ZLLJwk-N-9" vertex="1">
          <mxGeometry y="26" width="290" height="26" as="geometry" />
        </mxCell>
        <mxCell id="tS4n0tbAUUS5ZLLJwk-N-16" value="- deferredRegistrations: List&amp;lt;Runnable&amp;gt;" style="text;strokeColor=none;fillColor=none;align=left;verticalAlign=top;spacingLeft=4;spacingRight=4;overflow=hidden;rotatable=0;points=[[0,0.5],[1,0.5]];portConstraint=eastwest;whiteSpace=wrap;html=1;" parent="tS4n0tbAUUS5ZLLJwk-N-9" vertex="1">
          <mxGeometry y="52" width="290" height="26" as="geometry" />
        </mxCell>
        <mxCell id="tS4n0tbAUUS5ZLLJwk-N-12" value="&lt;font style=&quot;font-size: 16px;&quot;&gt;&lt;b&gt;...&lt;/b&gt;&lt;/font&gt;" style="text;strokeColor=none;fillColor=none;align=left;verticalAlign=top;spacingLeft=4;spacingRight=4;overflow=hidden;rotatable=0;points=[[0,0.5],[1,0.5]];portConstraint=eastwest;whiteSpace=wrap;html=1;" parent="tS4n0tbAUUS5ZLLJwk-N-9" vertex="1">
          <mxGeometry y="78" width="290" height="26" as="geometry" />
        </mxCell>
        <mxCell id="tS4n0tbAUUS5ZLLJwk-N-13" value="" style="line;strokeWidth=1;fillColor=none;align=left;verticalAlign=middle;spacingTop=-1;spacingLeft=3;spacingRight=3;rotatable=0;labelPosition=right;points=[];portConstraint=eastwest;strokeColor=inherit;" parent="tS4n0tbAUUS5ZLLJwk-N-9" vertex="1">
          <mxGeometry y="104" width="290" height="8" as="geometry" />
        </mxCell>
        <mxCell id="tS4n0tbAUUS5ZLLJwk-N-14" value="+ register(Type, InvocationPlugin, boolean)" style="text;strokeColor=none;fillColor=none;align=left;verticalAlign=top;spacingLeft=4;spacingRight=4;overflow=hidden;rotatable=0;points=[[0,0.5],[1,0.5]];portConstraint=eastwest;whiteSpace=wrap;html=1;" parent="tS4n0tbAUUS5ZLLJwk-N-9" vertex="1">
          <mxGeometry y="112" width="290" height="26" as="geometry" />
        </mxCell>
        <mxCell id="tS4n0tbAUUS5ZLLJwk-N-15" value="&lt;b style=&quot;font-size: 16px;&quot;&gt;...&lt;/b&gt;" style="text;strokeColor=none;fillColor=none;align=left;verticalAlign=top;spacingLeft=4;spacingRight=4;overflow=hidden;rotatable=0;points=[[0,0.5],[1,0.5]];portConstraint=eastwest;whiteSpace=wrap;html=1;" parent="tS4n0tbAUUS5ZLLJwk-N-9" vertex="1">
          <mxGeometry y="138" width="290" height="26" as="geometry" />
        </mxCell>
        <mxCell id="tS4n0tbAUUS5ZLLJwk-N-17" value="ClassPlugins&amp;nbsp;" style="swimlane;fontStyle=1;align=center;verticalAlign=top;childLayout=stackLayout;horizontal=1;startSize=26;horizontalStack=0;resizeParent=1;resizeParentMax=0;resizeLast=0;collapsible=1;marginBottom=0;whiteSpace=wrap;html=1;fillColor=#e1d5e7;strokeColor=#9673a6;" parent="1" vertex="1">
          <mxGeometry x="407" y="9676" width="343" height="164" as="geometry" />
        </mxCell>
        <mxCell id="tS4n0tbAUUS5ZLLJwk-N-18" value="- invocationPlugins: EconomicMap&amp;lt;String, InvocationPlugin&amp;gt;" style="text;strokeColor=none;fillColor=none;align=left;verticalAlign=top;spacingLeft=4;spacingRight=4;overflow=hidden;rotatable=0;points=[[0,0.5],[1,0.5]];portConstraint=eastwest;whiteSpace=wrap;html=1;" parent="tS4n0tbAUUS5ZLLJwk-N-17" vertex="1">
          <mxGeometry y="26" width="343" height="26" as="geometry" />
        </mxCell>
        <mxCell id="tS4n0tbAUUS5ZLLJwk-N-20" value="&lt;font style=&quot;font-size: 16px;&quot;&gt;&lt;b&gt;...&lt;/b&gt;&lt;/font&gt;" style="text;strokeColor=none;fillColor=none;align=left;verticalAlign=top;spacingLeft=4;spacingRight=4;overflow=hidden;rotatable=0;points=[[0,0.5],[1,0.5]];portConstraint=eastwest;whiteSpace=wrap;html=1;" parent="tS4n0tbAUUS5ZLLJwk-N-17" vertex="1">
          <mxGeometry y="52" width="343" height="26" as="geometry" />
        </mxCell>
        <mxCell id="tS4n0tbAUUS5ZLLJwk-N-21" value="" style="line;strokeWidth=1;fillColor=none;align=left;verticalAlign=middle;spacingTop=-1;spacingLeft=3;spacingRight=3;rotatable=0;labelPosition=right;points=[];portConstraint=eastwest;strokeColor=inherit;" parent="tS4n0tbAUUS5ZLLJwk-N-17" vertex="1">
          <mxGeometry y="78" width="343" height="8" as="geometry" />
        </mxCell>
        <mxCell id="tS4n0tbAUUS5ZLLJwk-N-22" value="+ register(InvocationPlugin)" style="text;strokeColor=none;fillColor=none;align=left;verticalAlign=top;spacingLeft=4;spacingRight=4;overflow=hidden;rotatable=0;points=[[0,0.5],[1,0.5]];portConstraint=eastwest;whiteSpace=wrap;html=1;" parent="tS4n0tbAUUS5ZLLJwk-N-17" vertex="1">
          <mxGeometry y="86" width="343" height="26" as="geometry" />
        </mxCell>
        <mxCell id="tS4n0tbAUUS5ZLLJwk-N-24" value="+ get(ResolvedJavaMethod): InvocationPlugin" style="text;strokeColor=none;fillColor=none;align=left;verticalAlign=top;spacingLeft=4;spacingRight=4;overflow=hidden;rotatable=0;points=[[0,0.5],[1,0.5]];portConstraint=eastwest;whiteSpace=wrap;html=1;" parent="tS4n0tbAUUS5ZLLJwk-N-17" vertex="1">
          <mxGeometry y="112" width="343" height="26" as="geometry" />
        </mxCell>
        <mxCell id="tS4n0tbAUUS5ZLLJwk-N-23" value="&lt;b style=&quot;font-size: 16px;&quot;&gt;...&lt;/b&gt;" style="text;strokeColor=none;fillColor=none;align=left;verticalAlign=top;spacingLeft=4;spacingRight=4;overflow=hidden;rotatable=0;points=[[0,0.5],[1,0.5]];portConstraint=eastwest;whiteSpace=wrap;html=1;" parent="tS4n0tbAUUS5ZLLJwk-N-17" vertex="1">
          <mxGeometry y="138" width="343" height="26" as="geometry" />
        </mxCell>
        <mxCell id="tS4n0tbAUUS5ZLLJwk-N-25" value="InvocationPlugin&amp;nbsp;" style="swimlane;fontStyle=1;align=center;verticalAlign=top;childLayout=stackLayout;horizontal=1;startSize=26;horizontalStack=0;resizeParent=1;resizeParentMax=0;resizeLast=0;collapsible=1;marginBottom=0;whiteSpace=wrap;html=1;fillColor=#f8cecc;strokeColor=#b85450;" parent="1" vertex="1">
          <mxGeometry x="90.25" y="9650" width="249.5" height="216" as="geometry" />
        </mxCell>
        <mxCell id="tS4n0tbAUUS5ZLLJwk-N-26" value="&lt;div&gt;&amp;nbsp; - name: String&lt;/div&gt;&lt;div&gt;&lt;br&gt;&lt;/div&gt;" style="text;align=left;verticalAlign=top;spacingLeft=4;spacingRight=4;overflow=hidden;rotatable=0;points=[[0,0.5],[1,0.5]];portConstraint=eastwest;whiteSpace=wrap;html=1;" parent="tS4n0tbAUUS5ZLLJwk-N-25" vertex="1">
          <mxGeometry y="26" width="249.5" height="26" as="geometry" />
        </mxCell>
        <mxCell id="tS4n0tbAUUS5ZLLJwk-N-36" style="edgeStyle=orthogonalEdgeStyle;rounded=0;orthogonalLoop=1;jettySize=auto;html=1;exitX=1;exitY=0.5;exitDx=0;exitDy=0;entryX=1;entryY=0.5;entryDx=0;entryDy=0;curved=1;" parent="tS4n0tbAUUS5ZLLJwk-N-25" source="tS4n0tbAUUS5ZLLJwk-N-32" target="tS4n0tbAUUS5ZLLJwk-N-33" edge="1">
          <mxGeometry relative="1" as="geometry">
            <Array as="points">
              <mxPoint x="290" y="65" />
              <mxPoint x="290" y="117" />
            </Array>
          </mxGeometry>
        </mxCell>
        <mxCell id="tS4n0tbAUUS5ZLLJwk-N-32" value="&amp;nbsp;- argumentTypes: Type[]" style="text;strokeColor=none;fillColor=none;align=left;verticalAlign=top;spacingLeft=4;spacingRight=4;overflow=hidden;rotatable=0;points=[[0,0.5],[1,0.5]];portConstraint=eastwest;whiteSpace=wrap;html=1;" parent="tS4n0tbAUUS5ZLLJwk-N-25" vertex="1">
          <mxGeometry y="52" width="249.5" height="26" as="geometry" />
        </mxCell>
        <mxCell id="tS4n0tbAUUS5ZLLJwk-N-34" value="&lt;div&gt;&lt;span style=&quot;background-color: transparent; color: light-dark(rgb(0, 0, 0), rgb(255, 255, 255));&quot;&gt;&amp;nbsp; - isStatic: boolean&lt;/span&gt;&lt;/div&gt;&lt;div&gt;&lt;br&gt;&lt;/div&gt;" style="text;strokeColor=none;fillColor=none;align=left;verticalAlign=top;spacingLeft=4;spacingRight=4;overflow=hidden;rotatable=0;points=[[0,0.5],[1,0.5]];portConstraint=eastwest;whiteSpace=wrap;html=1;" parent="tS4n0tbAUUS5ZLLJwk-N-25" vertex="1">
          <mxGeometry y="78" width="249.5" height="26" as="geometry" />
        </mxCell>
        <mxCell id="tS4n0tbAUUS5ZLLJwk-N-33" value="&amp;nbsp; - next: InvocationPlugin" style="text;strokeColor=none;fillColor=none;align=left;verticalAlign=top;spacingLeft=4;spacingRight=4;overflow=hidden;rotatable=0;points=[[0,0.5],[1,0.5]];portConstraint=eastwest;whiteSpace=wrap;html=1;" parent="tS4n0tbAUUS5ZLLJwk-N-25" vertex="1">
          <mxGeometry y="104" width="249.5" height="26" as="geometry" />
        </mxCell>
        <mxCell id="tS4n0tbAUUS5ZLLJwk-N-28" value="&lt;font style=&quot;font-size: 16px;&quot;&gt;&lt;b&gt;...&lt;/b&gt;&lt;/font&gt;" style="text;strokeColor=none;fillColor=none;align=left;verticalAlign=top;spacingLeft=4;spacingRight=4;overflow=hidden;rotatable=0;points=[[0,0.5],[1,0.5]];portConstraint=eastwest;whiteSpace=wrap;html=1;" parent="tS4n0tbAUUS5ZLLJwk-N-25" vertex="1">
          <mxGeometry y="130" width="249.5" height="26" as="geometry" />
        </mxCell>
        <mxCell id="tS4n0tbAUUS5ZLLJwk-N-29" value="" style="line;strokeWidth=1;fillColor=none;align=left;verticalAlign=middle;spacingTop=-1;spacingLeft=3;spacingRight=3;rotatable=0;labelPosition=right;points=[];portConstraint=eastwest;strokeColor=inherit;" parent="tS4n0tbAUUS5ZLLJwk-N-25" vertex="1">
          <mxGeometry y="156" width="249.5" height="8" as="geometry" />
        </mxCell>
        <mxCell id="tS4n0tbAUUS5ZLLJwk-N-30" value="+ apply(GraphBuilderContext, ...): boolean" style="text;strokeColor=none;fillColor=none;align=left;verticalAlign=top;spacingLeft=4;spacingRight=4;overflow=hidden;rotatable=0;points=[[0,0.5],[1,0.5]];portConstraint=eastwest;whiteSpace=wrap;html=1;" parent="tS4n0tbAUUS5ZLLJwk-N-25" vertex="1">
          <mxGeometry y="164" width="249.5" height="26" as="geometry" />
        </mxCell>
        <mxCell id="tS4n0tbAUUS5ZLLJwk-N-31" value="&lt;b style=&quot;font-size: 16px;&quot;&gt;...&lt;/b&gt;" style="text;strokeColor=none;fillColor=none;align=left;verticalAlign=top;spacingLeft=4;spacingRight=4;overflow=hidden;rotatable=0;points=[[0,0.5],[1,0.5]];portConstraint=eastwest;whiteSpace=wrap;html=1;" parent="tS4n0tbAUUS5ZLLJwk-N-25" vertex="1">
          <mxGeometry y="190" width="249.5" height="26" as="geometry" />
        </mxCell>
        <mxCell id="tS4n0tbAUUS5ZLLJwk-N-35" value="" style="endArrow=diamondThin;endFill=1;endSize=12;html=1;rounded=0;entryX=0.514;entryY=1.071;entryDx=0;entryDy=0;entryPerimeter=0;exitX=0.5;exitY=0;exitDx=0;exitDy=0;fontSize=9;spacing=2;" parent="1" source="tS4n0tbAUUS5ZLLJwk-N-17" target="tS4n0tbAUUS5ZLLJwk-N-15" edge="1">
          <mxGeometry width="160" relative="1" as="geometry">
            <mxPoint x="270" y="9880" as="sourcePoint" />
            <mxPoint x="430" y="9880" as="targetPoint" />
          </mxGeometry>
        </mxCell>
        <mxCell id="tS4n0tbAUUS5ZLLJwk-N-39" value="&lt;span style=&quot;font-size: 12px; text-align: left; text-wrap-mode: wrap; background-color: rgb(251, 251, 251);&quot;&gt;通过registrations字段包含&lt;/span&gt;" style="edgeLabel;html=1;align=center;verticalAlign=middle;resizable=0;points=[];" parent="tS4n0tbAUUS5ZLLJwk-N-35" vertex="1" connectable="0">
          <mxGeometry x="-0.1649" y="-4" relative="1" as="geometry">
            <mxPoint as="offset" />
          </mxGeometry>
        </mxCell>
        <mxCell id="tS4n0tbAUUS5ZLLJwk-N-37" value="&lt;font style=&quot;font-size: 14px;&quot;&gt;next&lt;/font&gt;" style="text;html=1;align=center;verticalAlign=middle;resizable=0;points=[];autosize=1;strokeColor=none;fillColor=none;" parent="1" vertex="1">
          <mxGeometry x="332" y="9690" width="50" height="30" as="geometry" />
        </mxCell>
        <mxCell id="tS4n0tbAUUS5ZLLJwk-N-38" value="创建并注册" style="endArrow=open;endSize=12;dashed=1;html=1;rounded=0;exitX=0.47;exitY=1;exitDx=0;exitDy=0;exitPerimeter=0;entryX=0.492;entryY=-0.006;entryDx=0;entryDy=0;entryPerimeter=0;" parent="1" source="tS4n0tbAUUS5ZLLJwk-N-8" target="tS4n0tbAUUS5ZLLJwk-N-25" edge="1">
          <mxGeometry width="160" relative="1" as="geometry">
            <mxPoint x="170" y="9610" as="sourcePoint" />
            <mxPoint x="330" y="9610" as="targetPoint" />
          </mxGeometry>
        </mxCell>
        <mxCell id="tS4n0tbAUUS5ZLLJwk-N-40" value="" style="endArrow=diamondThin;endFill=1;endSize=12;html=1;rounded=0;entryX=0;entryY=0.5;entryDx=0;entryDy=0;fontSize=9;spacing=2;" parent="1" target="tS4n0tbAUUS5ZLLJwk-N-24" edge="1">
          <mxGeometry width="160" relative="1" as="geometry">
            <mxPoint x="342" y="9801" as="sourcePoint" />
            <mxPoint x="366.25" y="9814" as="targetPoint" />
          </mxGeometry>
        </mxCell>
        <mxCell id="tS4n0tbAUUS5ZLLJwk-N-41" value="&lt;span style=&quot;font-size: 12px; text-align: left; text-wrap-mode: wrap; background-color: rgb(251, 251, 251);&quot;&gt;获取&lt;/span&gt;" style="edgeLabel;html=1;align=center;verticalAlign=middle;resizable=0;points=[];" parent="tS4n0tbAUUS5ZLLJwk-N-40" vertex="1" connectable="0">
          <mxGeometry x="-0.1649" y="-4" relative="1" as="geometry">
            <mxPoint as="offset" />
          </mxGeometry>
        </mxCell>
        <mxCell id="tS4n0tbAUUS5ZLLJwk-N-44" value="获取" style="endArrow=open;endSize=12;dashed=1;html=1;rounded=0;exitX=0.995;exitY=0.101;exitDx=0;exitDy=0;exitPerimeter=0;entryX=0.002;entryY=0.105;entryDx=0;entryDy=0;entryPerimeter=0;" parent="1" source="tS4n0tbAUUS5ZLLJwk-N-2" target="tS4n0tbAUUS5ZLLJwk-N-9" edge="1">
          <mxGeometry width="160" relative="1" as="geometry">
            <mxPoint x="340" y="9610" as="sourcePoint" />
            <mxPoint x="500" y="9610" as="targetPoint" />
          </mxGeometry>
        </mxCell>
        <mxCell id="9EPkMwTMLO34tnoBVW8a-2" value="&lt;font style=&quot;font-size: 16px;&quot;&gt;offset = value - min(keys)&lt;/font&gt;" style="rounded=0;whiteSpace=wrap;html=1;" parent="1" vertex="1">
          <mxGeometry x="289.38" y="6467.5" width="203" height="40" as="geometry" />
        </mxCell>
        <mxCell id="9EPkMwTMLO34tnoBVW8a-3" value="&lt;span style=&quot;font-size: 16px;&quot;&gt;bgtu offset , diff, default&lt;/span&gt;" style="rounded=0;whiteSpace=wrap;html=1;" parent="1" vertex="1">
          <mxGeometry x="289.38" y="6507.5" width="203" height="40" as="geometry" />
        </mxCell>
        <mxCell id="9EPkMwTMLO34tnoBVW8a-4" value="&lt;span style=&quot;font-size: 16px;&quot;&gt;Search Range Table&lt;/span&gt;" style="rounded=0;whiteSpace=wrap;html=1;" parent="1" vertex="1">
          <mxGeometry x="289.38" y="6547.5" width="203" height="40" as="geometry" />
        </mxCell>
        <mxCell id="9EPkMwTMLO34tnoBVW8a-11" style="rounded=0;orthogonalLoop=1;jettySize=auto;html=1;exitX=1;exitY=0;exitDx=0;exitDy=0;entryX=0;entryY=0;entryDx=0;entryDy=0;endArrow=none;startFill=0;dashed=1;dashPattern=8 8;" parent="1" source="9EPkMwTMLO34tnoBVW8a-5" target="3uFvsSg2rkh7UaSVAgNL-23" edge="1">
          <mxGeometry relative="1" as="geometry" />
        </mxCell>
        <mxCell id="9EPkMwTMLO34tnoBVW8a-12" style="rounded=0;orthogonalLoop=1;jettySize=auto;html=1;exitX=1;exitY=1;exitDx=0;exitDy=0;entryX=0;entryY=1;entryDx=0;entryDy=0;endArrow=none;startFill=0;dashed=1;dashPattern=8 8;" parent="1" source="9EPkMwTMLO34tnoBVW8a-5" target="3uFvsSg2rkh7UaSVAgNL-23" edge="1">
          <mxGeometry relative="1" as="geometry" />
        </mxCell>
        <mxCell id="9EPkMwTMLO34tnoBVW8a-5" value="&lt;span style=&quot;font-size: 16px;&quot;&gt;Range Table&lt;/span&gt;" style="rounded=0;whiteSpace=wrap;html=1;fillColor=#f8cecc;strokeColor=default;" parent="1" vertex="1">
          <mxGeometry x="289.38" y="6587.5" width="203" height="132.5" as="geometry" />
        </mxCell>
        <mxCell id="9EPkMwTMLO34tnoBVW8a-8" value="&lt;b style=&quot;font-size: 18px;&quot;&gt;...&lt;/b&gt;" style="rounded=0;whiteSpace=wrap;html=1;" parent="1" vertex="1">
          <mxGeometry x="289.38" y="6427.5" width="203" height="40" as="geometry" />
        </mxCell>
        <mxCell id="9EPkMwTMLO34tnoBVW8a-9" value="&lt;font style=&quot;font-size: 18px;&quot;&gt;&lt;b style=&quot;&quot;&gt;...&lt;/b&gt;&lt;/font&gt;" style="rounded=0;whiteSpace=wrap;html=1;" parent="1" vertex="1">
          <mxGeometry x="289.38" y="6720" width="203" height="40" as="geometry" />
        </mxCell>
        <mxCell id="9EPkMwTMLO34tnoBVW8a-10" value="&lt;font style=&quot;font-size: 16px;&quot;&gt;&lt;b&gt;Nmethod&lt;/b&gt;&lt;/font&gt;" style="text;html=1;align=center;verticalAlign=middle;resizable=0;points=[];autosize=1;strokeColor=none;fillColor=none;" parent="1" vertex="1">
          <mxGeometry x="277.63" y="6380" width="90" height="30" as="geometry" />
        </mxCell>
        <mxCell id="9EPkMwTMLO34tnoBVW8a-13" value="" style="shape=flexArrow;endArrow=classic;html=1;rounded=0;" parent="1" edge="1">
          <mxGeometry width="50" height="50" relative="1" as="geometry">
            <mxPoint x="215.25" y="7295.75" as="sourcePoint" />
            <mxPoint x="253.25" y="7295.84" as="targetPoint" />
          </mxGeometry>
        </mxCell>
        <mxCell id="9EPkMwTMLO34tnoBVW8a-14" value="" style="rounded=0;whiteSpace=wrap;html=1;fillColor=#dae8fc;strokeColor=#6c8ebf;" parent="1" vertex="1">
          <mxGeometry x="266.5" y="7110" width="234.25" height="370" as="geometry" />
        </mxCell>
        <mxCell id="9EPkMwTMLO34tnoBVW8a-15" value="&lt;font style=&quot;font-size: 16px;&quot;&gt;Calcalute Hash&lt;/font&gt;" style="rounded=0;whiteSpace=wrap;html=1;" parent="1" vertex="1">
          <mxGeometry x="283.5" y="7167.5" width="203" height="40" as="geometry" />
        </mxCell>
        <mxCell id="9EPkMwTMLO34tnoBVW8a-17" value="&lt;span style=&quot;font-size: 16px;&quot;&gt;Search Hash Table&lt;/span&gt;" style="rounded=0;whiteSpace=wrap;html=1;" parent="1" vertex="1">
          <mxGeometry x="283.5" y="7207.5" width="203" height="40" as="geometry" />
        </mxCell>
        <mxCell id="9EPkMwTMLO34tnoBVW8a-23" style="rounded=0;orthogonalLoop=1;jettySize=auto;html=1;exitX=1;exitY=0;exitDx=0;exitDy=0;entryX=0;entryY=0;entryDx=0;entryDy=0;endArrow=none;startFill=0;dashed=1;dashPattern=8 8;" parent="1" source="9EPkMwTMLO34tnoBVW8a-18" target="3uFvsSg2rkh7UaSVAgNL-29" edge="1">
          <mxGeometry relative="1" as="geometry" />
        </mxCell>
        <mxCell id="9EPkMwTMLO34tnoBVW8a-24" style="rounded=0;orthogonalLoop=1;jettySize=auto;html=1;exitX=1;exitY=1;exitDx=0;exitDy=0;entryX=0;entryY=1;entryDx=0;entryDy=0;endArrow=none;startFill=0;dashed=1;dashPattern=8 8;" parent="1" source="9EPkMwTMLO34tnoBVW8a-18" target="3uFvsSg2rkh7UaSVAgNL-29" edge="1">
          <mxGeometry relative="1" as="geometry" />
        </mxCell>
        <mxCell id="9EPkMwTMLO34tnoBVW8a-18" value="&lt;span style=&quot;font-size: 16px;&quot;&gt;Hash Table&lt;/span&gt;" style="rounded=0;whiteSpace=wrap;html=1;fillColor=#f8cecc;strokeColor=default;" parent="1" vertex="1">
          <mxGeometry x="283.5" y="7247.5" width="203" height="172.5" as="geometry" />
        </mxCell>
        <mxCell id="9EPkMwTMLO34tnoBVW8a-19" value="&lt;b style=&quot;font-size: 18px;&quot;&gt;...&lt;/b&gt;" style="rounded=0;whiteSpace=wrap;html=1;" parent="1" vertex="1">
          <mxGeometry x="283.5" y="7127.5" width="203" height="40" as="geometry" />
        </mxCell>
        <mxCell id="9EPkMwTMLO34tnoBVW8a-20" value="&lt;font style=&quot;font-size: 18px;&quot;&gt;&lt;b style=&quot;&quot;&gt;...&lt;/b&gt;&lt;/font&gt;" style="rounded=0;whiteSpace=wrap;html=1;" parent="1" vertex="1">
          <mxGeometry x="283.5" y="7420" width="203" height="40" as="geometry" />
        </mxCell>
        <mxCell id="9EPkMwTMLO34tnoBVW8a-21" value="&lt;font style=&quot;font-size: 16px;&quot;&gt;&lt;b&gt;Nmethod&lt;/b&gt;&lt;/font&gt;" style="text;html=1;align=center;verticalAlign=middle;resizable=0;points=[];autosize=1;strokeColor=none;fillColor=none;" parent="1" vertex="1">
          <mxGeometry x="271.75" y="7080" width="90" height="30" as="geometry" />
        </mxCell>
        <mxCell id="R-gMwyTmyChJ_m9MSwHn-1" value="&lt;font style=&quot;font-size: 16px;&quot;&gt;LIR Instruction&lt;/font&gt;" style="text;html=1;align=center;verticalAlign=middle;resizable=0;points=[];autosize=1;strokeColor=none;fillColor=none;fontStyle=1" vertex="1" parent="1">
          <mxGeometry x="52.43999999999999" y="840" width="130" height="30" as="geometry" />
        </mxCell>
        <mxCell id="R-gMwyTmyChJ_m9MSwHn-2" value="&lt;font style=&quot;font-size: 16px;&quot;&gt;Code Buffer&lt;/font&gt;" style="text;html=1;align=center;verticalAlign=middle;resizable=0;points=[];autosize=1;strokeColor=none;fillColor=none;fontStyle=1" vertex="1" parent="1">
          <mxGeometry x="653.25" y="840" width="110" height="30" as="geometry" />
        </mxCell>
        <mxCell id="R-gMwyTmyChJ_m9MSwHn-5" value="" style="endArrow=classic;html=1;rounded=0;exitX=1;exitY=0.5;exitDx=0;exitDy=0;" edge="1" parent="1" source="GOm38GStyMNKn4AWp28O-7" target="R-gMwyTmyChJ_m9MSwHn-6">
          <mxGeometry width="50" height="50" relative="1" as="geometry">
            <mxPoint x="374.38" y="910" as="sourcePoint" />
            <mxPoint x="434.38" y="955" as="targetPoint" />
          </mxGeometry>
        </mxCell>
        <mxCell id="R-gMwyTmyChJ_m9MSwHn-6" value="&lt;font style=&quot;font-size: 14px;&quot;&gt;a2&lt;/font&gt;" style="text;html=1;align=center;verticalAlign=middle;resizable=0;points=[];autosize=1;strokeColor=none;fillColor=none;" vertex="1" parent="1">
          <mxGeometry x="440.38" y="940" width="40" height="30" as="geometry" />
        </mxCell>
        <mxCell id="R-gMwyTmyChJ_m9MSwHn-7" value="&lt;font style=&quot;font-size: 14px;&quot;&gt;a2&lt;/font&gt;" style="text;html=1;align=center;verticalAlign=middle;resizable=0;points=[];autosize=1;strokeColor=none;fillColor=none;" vertex="1" parent="1">
          <mxGeometry x="440.88" y="970" width="40" height="30" as="geometry" />
        </mxCell>
        <mxCell id="R-gMwyTmyChJ_m9MSwHn-8" value="&lt;font style=&quot;font-size: 14px;&quot;&gt;a3&lt;/font&gt;" style="text;html=1;align=center;verticalAlign=middle;resizable=0;points=[];autosize=1;strokeColor=none;fillColor=none;" vertex="1" parent="1">
          <mxGeometry x="440.38" y="1000" width="40" height="30" as="geometry" />
        </mxCell>
        <mxCell id="R-gMwyTmyChJ_m9MSwHn-11" style="edgeStyle=orthogonalEdgeStyle;rounded=0;orthogonalLoop=1;jettySize=auto;html=1;entryX=0.01;entryY=0.521;entryDx=0;entryDy=0;entryPerimeter=0;" edge="1" parent="1" source="GOm38GStyMNKn4AWp28O-9" target="R-gMwyTmyChJ_m9MSwHn-8">
          <mxGeometry relative="1" as="geometry" />
        </mxCell>
        <mxCell id="R-gMwyTmyChJ_m9MSwHn-13" value="&lt;span style=&quot;font-size: 13px;&quot;&gt;寄存器&lt;br&gt;分配&lt;/span&gt;" style="text;html=1;align=center;verticalAlign=middle;resizable=0;points=[];autosize=1;strokeColor=none;fillColor=none;" vertex="1" parent="1">
          <mxGeometry x="286" y="930" width="60" height="40" as="geometry" />
        </mxCell>
        <mxCell id="R-gMwyTmyChJ_m9MSwHn-14" value="" style="shape=flexArrow;endArrow=classic;html=1;rounded=0;" edge="1" parent="1">
          <mxGeometry width="50" height="50" relative="1" as="geometry">
            <mxPoint x="486.5" y="984.8" as="sourcePoint" />
            <mxPoint x="546.5" y="984.8" as="targetPoint" />
          </mxGeometry>
        </mxCell>
      </root>
    </mxGraphModel>
  </diagram>
</mxfile>
